{"glyphs":{"0":{"ha":1003,"x_min":43,"x_max":960,"o":"m 503 1046 q 686 1006 603 1046 q 831 894 769 967 q 926 725 892 822 q 960 513 960 628 q 901 242 960 360 q 740 56 843 124 q 503 -11 638 -11 q 264 56 368 -11 q 101 242 160 124 q 43 513 43 360 q 77 725 43 628 q 173 894 111 822 q 319 1006 235 967 q 503 1046 403 1046 l 503 1046 m 501 206 q 583 235 553 206 q 627 332 614 265 q 640 511 640 399 q 626 698 640 628 q 582 800 613 768 q 501 832 551 832 q 421 800 451 832 q 376 697 390 768 q 363 511 363 626 q 376 333 363 400 q 421 235 390 265 q 501 206 451 206 l 501 206 z "},"1":{"ha":746,"x_min":47,"x_max":707,"o":"m 675 228 q 707 201 707 228 l 707 31 q 699 9 707 18 q 672 0 690 0 l 82 0 q 49 29 49 0 l 49 201 q 79 228 49 228 l 203 228 q 219 240 219 228 l 219 704 q 196 722 219 728 l 85 697 q 47 729 47 689 l 47 846 q 53 872 47 864 q 72 886 58 879 l 322 1011 q 358 1026 344 1022 q 392 1031 372 1031 l 510 1031 q 535 1001 535 1031 l 535 244 q 550 228 535 228 l 675 228 l 675 228 z "},"2":{"ha":935,"x_min":40,"x_max":889,"o":"m 356 456 q 471 554 428 515 q 536 619 514 593 q 566 667 558 646 q 574 714 574 689 q 559 769 574 744 q 518 807 544 793 q 453 821 492 821 q 389 806 418 821 q 332 758 360 792 q 274 668 304 725 q 257 656 268 658 q 229 663 246 654 l 64 744 q 44 769 47 753 q 51 799 42 785 q 230 985 129 925 q 469 1044 331 1044 q 688 1003 596 1044 q 829 888 779 961 q 879 717 879 814 q 862 617 879 664 q 804 526 844 569 q 696 436 764 482 l 453 274 q 443 263 443 268 q 461 257 443 257 l 857 257 q 889 231 889 257 l 889 31 q 881 9 889 18 q 854 0 872 0 l 78 0 q 49 7 57 0 q 40 35 40 14 l 40 172 q 44 188 40 179 q 66 213 49 196 q 122 263 83 231 l 356 456 z "},"3":{"ha":951,"x_min":29,"x_max":913,"o":"m 81 858 q 81 894 67 874 q 174 972 114 939 q 310 1025 235 1006 q 465 1044 386 1044 q 689 1010 596 1044 q 831 915 782 976 q 881 769 881 853 q 842 650 881 710 q 725 567 803 590 q 709 552 710 561 q 724 538 708 543 q 824 483 782 518 q 890 403 867 447 q 913 307 913 358 q 861 128 913 200 q 707 22 810 57 q 449 -14 604 -14 q 283 10 364 -14 q 139 77 203 35 q 39 174 75 119 q 33 203 29 189 q 50 225 36 217 l 190 322 q 213 331 204 331 q 228 324 222 331 q 306 254 271 281 q 378 215 340 228 q 465 203 415 203 q 567 230 531 203 q 603 301 603 257 q 585 360 603 335 q 533 399 567 385 q 456 415 500 414 l 339 418 q 310 442 310 418 l 310 610 q 339 633 310 629 l 432 639 q 508 656 476 642 q 556 694 539 671 q 574 749 574 718 q 558 792 574 772 q 517 822 543 811 q 460 833 492 833 q 353 811 400 833 q 249 735 306 789 q 233 724 239 725 q 215 733 226 724 l 81 858 l 81 858 z "},"4":{"ha":994,"x_min":39,"x_max":957,"o":"m 483 996 q 514 1024 501 1018 q 554 1031 526 1031 l 782 1031 q 808 1001 808 1031 l 808 447 q 824 431 808 431 l 926 431 q 957 404 957 431 l 957 251 q 924 221 957 221 l 825 221 q 808 203 808 221 l 808 40 q 763 0 808 0 l 525 0 q 488 35 488 0 l 489 207 q 469 221 489 221 l 74 221 q 39 251 39 221 l 39 396 q 50 430 39 411 q 85 479 61 449 l 483 996 l 483 996 m 481 431 q 493 440 493 431 l 493 708 q 489 728 493 728 q 474 714 485 729 l 283 449 q 293 431 269 431 l 481 431 z "},"5":{"ha":958,"x_min":29,"x_max":919,"o":"m 796 1031 q 833 1023 826 1031 q 838 990 839 1015 l 829 813 q 819 788 828 794 q 790 781 810 781 l 375 781 q 346 756 347 781 l 335 663 q 340 645 333 650 q 357 643 347 640 q 450 665 413 658 q 535 672 488 672 q 734 633 647 672 q 870 518 821 593 q 919 336 919 443 q 865 148 919 226 q 714 28 811 69 q 485 -14 617 -14 q 216 38 333 -14 q 46 168 99 89 q 33 199 36 183 q 49 226 29 214 l 199 328 q 244 322 224 346 q 301 263 272 290 q 365 219 329 235 q 451 203 401 203 q 538 219 503 203 q 592 265 574 236 q 610 326 610 293 q 594 388 610 358 q 544 435 578 417 q 456 453 510 453 q 394 444 424 453 q 317 415 364 436 q 297 410 303 410 q 275 418 290 410 l 110 507 q 92 528 94 515 q 92 560 90 540 l 132 989 q 147 1022 135 1013 q 194 1031 158 1031 l 796 1031 z "},"6":{"ha":974,"x_min":43,"x_max":936,"o":"m 518 1042 q 662 1019 597 1042 q 775 963 726 997 q 852 891 824 929 q 886 819 881 853 q 887 797 889 808 q 869 782 885 786 l 671 724 q 650 728 657 719 q 640 742 643 736 q 592 803 618 779 q 518 828 567 828 q 433 803 469 828 q 376 735 396 779 q 356 629 356 690 q 362 598 356 603 q 390 601 368 593 q 471 629 432 618 q 568 640 510 640 q 759 601 676 640 q 889 493 842 563 q 936 333 936 424 q 879 156 936 235 q 725 33 822 78 q 506 -11 628 -11 q 260 51 364 -11 q 99 226 156 114 q 43 489 43 339 q 103 786 43 663 q 272 976 164 910 q 518 1042 379 1042 l 518 1042 m 496 440 q 449 435 474 440 q 403 421 424 429 q 372 404 383 413 q 361 392 364 399 q 358 365 358 385 q 368 291 358 324 q 396 235 378 258 q 439 201 414 213 q 494 189 464 189 q 560 206 531 189 q 608 252 590 222 q 625 321 625 282 q 606 388 625 361 q 558 427 588 414 q 496 440 529 440 l 496 440 z "},"7":{"ha":878,"x_min":35,"x_max":843,"o":"m 790 1031 q 830 1019 817 1031 q 842 992 843 1007 l 836 899 q 819 853 835 885 q 792 803 804 822 q 704 651 744 731 q 631 488 664 571 q 575 324 599 404 q 538 174 551 244 q 521 46 524 103 q 486 0 519 0 l 193 0 q 165 40 154 0 q 215 191 189 118 q 280 346 242 264 q 374 527 318 428 q 511 756 431 626 q 517 774 518 767 q 499 781 515 781 l 75 781 q 38 815 35 781 l 57 1007 q 99 1031 60 1031 l 790 1031 z "},"8":{"ha":963,"x_min":39,"x_max":925,"o":"m 471 1044 q 680 1006 588 1044 q 826 903 772 968 q 879 756 879 838 q 846 656 879 701 q 750 581 813 611 q 749 553 726 569 q 858 472 819 511 q 910 392 896 432 q 925 304 925 351 q 866 131 925 203 q 703 23 807 60 q 463 -14 599 -14 q 243 17 339 -14 q 93 107 147 47 q 39 253 39 167 q 73 371 39 318 q 200 471 107 424 q 212 479 210 475 q 203 492 214 483 q 139 547 171 518 q 87 615 107 575 q 67 715 67 656 q 114 878 67 804 q 251 999 161 953 q 471 1044 342 1044 l 471 1044 m 476 843 q 417 833 444 843 q 375 803 390 822 q 360 756 360 783 q 426 675 360 699 l 515 644 q 553 645 535 638 q 587 669 572 653 q 610 706 601 685 q 618 744 618 726 q 582 813 618 782 q 476 843 546 843 l 476 843 m 482 188 q 579 212 546 188 q 613 276 613 236 q 596 328 613 304 q 522 371 579 351 l 424 406 q 382 408 403 413 q 343 388 361 403 q 314 351 325 374 q 303 303 303 329 q 343 219 303 250 q 482 188 383 188 l 482 188 z "},"9":{"ha":974,"x_min":38,"x_max":931,"o":"m 456 -11 q 312 11 376 -11 q 199 67 247 33 q 122 140 150 101 q 88 211 94 178 q 88 233 86 222 q 104 249 90 244 l 303 307 q 324 303 317 311 q 333 289 331 296 q 382 227 357 251 q 456 203 407 203 q 541 227 504 203 q 598 297 578 251 q 618 401 618 342 q 612 433 618 428 q 583 429 606 438 q 503 401 542 413 q 406 390 464 390 q 215 429 299 390 q 85 538 132 468 q 38 697 38 607 q 94 875 38 797 q 249 997 151 953 q 468 1042 347 1042 q 715 979 611 1042 q 874 804 818 917 q 931 542 931 692 q 870 245 931 369 q 703 55 810 121 q 456 -11 596 -11 l 456 -11 m 478 590 q 526 596 501 590 q 570 610 550 601 q 601 626 590 618 q 613 640 610 633 q 615 665 615 647 q 606 740 615 707 q 578 795 596 772 q 535 830 560 818 q 479 842 510 842 q 413 825 443 842 q 366 778 383 808 q 349 710 349 749 q 367 643 349 669 q 416 603 386 617 q 478 590 446 590 l 478 590 z "},"A":{"ha":1110,"x_min":31,"x_max":1079,"o":"m 60 0 q 38 15 44 0 q 39 51 31 29 l 375 999 q 390 1023 382 1015 q 417 1031 399 1031 l 690 1031 q 740 993 726 1031 l 1074 47 q 1074 17 1079 33 q 1054 0 1069 0 l 782 0 q 751 24 758 0 l 697 183 q 691 195 694 190 q 676 200 688 200 l 382 200 q 361 185 365 200 l 304 21 q 294 6 301 13 q 271 0 286 0 l 60 0 l 60 0 m 607 436 q 619 464 628 436 l 536 701 q 528 708 533 708 q 519 701 522 708 l 435 465 q 449 436 424 436 l 607 436 z "},"Á":{"ha":1110,"x_min":31,"x_max":1079,"o":"m 60 0 q 38 15 44 0 q 39 51 31 29 l 375 999 q 390 1023 382 1015 q 417 1031 399 1031 l 690 1031 q 740 993 726 1031 l 1074 47 q 1074 17 1079 33 q 1054 0 1069 0 l 782 0 q 751 24 758 0 l 697 183 q 691 195 694 190 q 676 200 688 200 l 382 200 q 361 185 365 200 l 304 21 q 294 6 301 13 q 271 0 286 0 l 60 0 l 60 0 m 607 436 q 619 464 628 436 l 536 701 q 528 708 533 708 q 519 701 522 708 l 435 465 q 449 436 424 436 l 607 436 m 717 1317 l 754 1208 q 728 1164 765 1174 l 404 1086 q 378 1086 386 1082 q 364 1104 369 1090 l 343 1164 q 354 1197 335 1189 l 688 1333 q 717 1317 707 1342 z "},"Ă":{"ha":1110,"x_min":31,"x_max":1079,"o":"m 60 0 q 38 15 44 0 q 39 51 31 29 l 375 999 q 390 1023 382 1015 q 417 1031 399 1031 l 690 1031 q 740 993 726 1031 l 1074 47 q 1074 17 1079 33 q 1054 0 1069 0 l 782 0 q 751 24 758 0 l 697 183 q 691 195 694 190 q 676 200 688 200 l 382 200 q 361 185 365 200 l 304 21 q 294 6 301 13 q 271 0 286 0 l 60 0 l 60 0 m 607 436 q 619 464 628 436 l 536 701 q 528 708 533 708 q 519 701 522 708 l 435 465 q 449 436 424 436 l 607 436 m 804 1325 q 822 1300 832 1325 q 759 1199 800 1239 q 665 1138 718 1158 q 550 1118 611 1118 q 433 1137 490 1118 q 334 1197 376 1156 q 275 1303 292 1238 q 277 1318 274 1311 q 290 1325 281 1325 l 397 1325 q 416 1321 410 1325 q 431 1306 422 1317 q 463 1273 444 1288 q 505 1250 482 1258 q 550 1242 528 1242 q 616 1260 582 1242 q 668 1307 650 1278 q 681 1322 675 1319 q 696 1325 688 1325 l 804 1325 z "},"Ắ":{"ha":1110,"x_min":31,"x_max":1079,"o":"m 60 0 q 38 15 44 0 q 39 51 31 29 l 375 999 q 390 1023 382 1015 q 417 1031 399 1031 l 690 1031 q 740 993 726 1031 l 1074 47 q 1074 17 1079 33 q 1054 0 1069 0 l 782 0 q 751 24 758 0 l 697 183 q 691 195 694 190 q 676 200 688 200 l 382 200 q 361 185 365 200 l 304 21 q 294 6 301 13 q 271 0 286 0 l 60 0 l 60 0 m 607 436 q 619 464 628 436 l 536 701 q 528 708 533 708 q 519 701 522 708 l 435 465 q 449 436 424 436 l 607 436 m 803 1325 q 821 1300 831 1325 q 758 1199 799 1239 q 663 1138 717 1158 q 549 1118 610 1118 q 432 1137 489 1118 q 333 1197 375 1156 q 274 1303 290 1238 q 276 1318 272 1311 q 289 1325 279 1325 l 396 1325 q 415 1321 408 1325 q 429 1306 421 1317 q 462 1273 443 1288 q 503 1250 481 1258 q 549 1242 526 1242 q 615 1260 581 1242 q 667 1307 649 1278 q 680 1322 674 1319 q 694 1325 686 1325 l 803 1325 m 715 1583 l 753 1475 q 726 1431 764 1440 l 403 1353 q 376 1353 385 1349 q 363 1371 368 1357 l 342 1431 q 353 1464 333 1456 l 686 1600 q 715 1583 706 1608 z "},"Ặ":{"ha":1110,"x_min":31,"x_max":1079,"o":"m 60 0 q 38 15 44 0 q 39 51 31 29 l 375 999 q 390 1023 382 1015 q 417 1031 399 1031 l 690 1031 q 740 993 726 1031 l 1074 47 q 1074 17 1079 33 q 1054 0 1069 0 l 782 0 q 751 24 758 0 l 697 183 q 691 195 694 190 q 676 200 688 200 l 382 200 q 361 185 365 200 l 304 21 q 294 6 301 13 q 271 0 286 0 l 60 0 l 60 0 m 607 436 q 619 464 628 436 l 536 701 q 528 708 533 708 q 519 701 522 708 l 435 465 q 449 436 424 436 l 607 436 m 658 -76 l 658 -199 q 651 -222 658 -214 q 625 -229 643 -229 l 479 -229 q 458 -222 464 -229 q 453 -203 453 -215 l 453 -79 q 471 -54 453 -54 l 640 -54 q 658 -76 658 -54 m 804 1325 q 822 1300 832 1325 q 759 1199 800 1239 q 665 1138 718 1158 q 550 1118 611 1118 q 433 1137 490 1118 q 334 1197 376 1156 q 275 1303 292 1238 q 277 1318 274 1311 q 290 1325 281 1325 l 397 1325 q 416 1321 410 1325 q 431 1306 422 1317 q 463 1273 444 1288 q 505 1250 482 1258 q 550 1242 528 1242 q 616 1260 582 1242 q 668 1307 650 1278 q 681 1322 675 1319 q 696 1325 688 1325 l 804 1325 z "},"Ằ":{"ha":1110,"x_min":31,"x_max":1079,"o":"m 60 0 q 38 15 44 0 q 39 51 31 29 l 375 999 q 390 1023 382 1015 q 417 1031 399 1031 l 690 1031 q 740 993 726 1031 l 1074 47 q 1074 17 1079 33 q 1054 0 1069 0 l 782 0 q 751 24 758 0 l 697 183 q 691 195 694 190 q 676 200 688 200 l 382 200 q 361 185 365 200 l 304 21 q 294 6 301 13 q 271 0 286 0 l 60 0 l 60 0 m 607 436 q 619 464 628 436 l 536 701 q 528 708 533 708 q 519 701 522 708 l 435 465 q 449 436 424 436 l 607 436 m 804 1325 q 822 1300 832 1325 q 759 1199 800 1239 q 665 1138 718 1158 q 550 1118 611 1118 q 433 1137 490 1118 q 334 1197 376 1156 q 275 1303 292 1238 q 277 1318 274 1311 q 290 1325 281 1325 l 397 1325 q 416 1321 410 1325 q 431 1306 422 1317 q 463 1273 444 1288 q 505 1250 482 1258 q 550 1242 528 1242 q 616 1260 582 1242 q 668 1307 650 1278 q 681 1322 675 1319 q 696 1325 688 1325 l 804 1325 m 383 1588 q 413 1604 393 1613 l 744 1468 q 756 1435 764 1460 l 735 1375 q 721 1357 729 1361 q 694 1357 713 1353 l 371 1435 q 344 1479 333 1444 l 383 1588 z "},"Ẳ":{"ha":1110,"x_min":31,"x_max":1079,"o":"m 60 0 q 38 15 44 0 q 39 51 31 29 l 375 999 q 390 1023 382 1015 q 417 1031 399 1031 l 690 1031 q 740 993 726 1031 l 1074 47 q 1074 17 1079 33 q 1054 0 1069 0 l 782 0 q 751 24 758 0 l 697 183 q 691 195 694 190 q 676 200 688 200 l 382 200 q 361 185 365 200 l 304 21 q 294 6 301 13 q 271 0 286 0 l 60 0 l 60 0 m 607 436 q 619 464 628 436 l 536 701 q 528 708 533 708 q 519 701 522 708 l 435 465 q 449 436 424 436 l 607 436 m 804 1325 q 822 1300 832 1325 q 759 1199 800 1239 q 665 1138 718 1158 q 550 1118 611 1118 q 433 1137 490 1118 q 334 1197 376 1156 q 275 1303 292 1238 q 277 1318 274 1311 q 290 1325 281 1325 l 397 1325 q 416 1321 410 1325 q 431 1306 422 1317 q 463 1273 444 1288 q 505 1250 482 1258 q 550 1242 528 1242 q 616 1260 582 1242 q 668 1307 650 1278 q 681 1322 675 1319 q 696 1325 688 1325 l 804 1325 m 558 1317 q 531 1321 543 1306 l 492 1375 q 488 1390 486 1382 q 494 1400 490 1397 q 549 1444 532 1428 q 567 1482 567 1460 q 551 1505 567 1499 q 519 1511 535 1511 q 484 1506 501 1511 q 446 1489 467 1500 q 422 1499 432 1481 l 388 1564 q 397 1588 379 1581 q 463 1611 435 1601 q 521 1621 490 1621 q 631 1585 586 1621 q 676 1489 676 1550 q 642 1395 676 1436 q 558 1317 608 1354 z "},"Ẵ":{"ha":1110,"x_min":31,"x_max":1079,"o":"m 60 0 q 38 15 44 0 q 39 51 31 29 l 375 999 q 390 1023 382 1015 q 417 1031 399 1031 l 690 1031 q 740 993 726 1031 l 1074 47 q 1074 17 1079 33 q 1054 0 1069 0 l 782 0 q 751 24 758 0 l 697 183 q 691 195 694 190 q 676 200 688 200 l 382 200 q 361 185 365 200 l 304 21 q 294 6 301 13 q 271 0 286 0 l 60 0 l 60 0 m 607 436 q 619 464 628 436 l 536 701 q 528 708 533 708 q 519 701 522 708 l 435 465 q 449 436 424 436 l 607 436 m 804 1325 q 822 1300 832 1325 q 759 1199 800 1239 q 665 1138 718 1158 q 550 1118 611 1118 q 433 1137 490 1118 q 334 1197 376 1156 q 275 1303 292 1238 q 277 1318 274 1311 q 290 1325 281 1325 l 397 1325 q 416 1321 410 1325 q 431 1306 422 1317 q 463 1273 444 1288 q 505 1250 482 1258 q 550 1242 528 1242 q 616 1260 582 1242 q 668 1307 650 1278 q 681 1322 675 1319 q 696 1325 688 1325 l 804 1325 m 804 1449 q 745 1420 782 1433 q 665 1407 708 1407 q 588 1418 625 1407 q 516 1440 551 1429 q 440 1450 481 1450 q 390 1442 411 1450 q 342 1415 369 1435 q 323 1408 331 1407 q 310 1426 315 1410 l 286 1501 q 283 1522 283 1513 q 297 1544 282 1531 q 354 1584 324 1567 q 433 1601 385 1601 q 518 1590 478 1601 q 595 1566 558 1578 q 664 1554 632 1554 q 725 1567 697 1554 q 771 1593 753 1579 q 792 1598 782 1600 q 804 1581 801 1596 l 824 1490 q 804 1449 829 1467 z "},"Â":{"ha":1110,"x_min":31,"x_max":1079,"o":"m 60 0 q 38 15 44 0 q 39 51 31 29 l 375 999 q 390 1023 382 1015 q 417 1031 399 1031 l 690 1031 q 740 993 726 1031 l 1074 47 q 1074 17 1079 33 q 1054 0 1069 0 l 782 0 q 751 24 758 0 l 697 183 q 691 195 694 190 q 676 200 688 200 l 382 200 q 361 185 365 200 l 304 21 q 294 6 301 13 q 271 0 286 0 l 60 0 l 60 0 m 607 436 q 619 464 628 436 l 536 701 q 528 708 533 708 q 519 701 522 708 l 435 465 q 449 436 424 436 l 607 436 m 626 1133 l 569 1208 q 548 1228 556 1228 q 522 1208 540 1228 l 458 1133 q 442 1122 449 1124 q 422 1121 436 1121 l 285 1121 q 272 1128 272 1121 q 281 1146 271 1135 l 436 1318 q 457 1334 446 1329 q 488 1339 468 1339 l 619 1339 q 643 1333 635 1339 q 658 1321 651 1328 l 813 1146 q 810 1121 836 1121 l 664 1121 q 642 1122 651 1121 q 626 1133 633 1124 z "},"Ấ":{"ha":1110,"x_min":31,"x_max":1079,"o":"m 60 0 q 38 15 44 0 q 39 51 31 29 l 375 999 q 390 1023 382 1015 q 417 1031 399 1031 l 690 1031 q 740 993 726 1031 l 1074 47 q 1074 17 1079 33 q 1054 0 1069 0 l 782 0 q 751 24 758 0 l 697 183 q 691 195 694 190 q 676 200 688 200 l 382 200 q 361 185 365 200 l 304 21 q 294 6 301 13 q 271 0 286 0 l 60 0 l 60 0 m 607 436 q 619 464 628 436 l 536 701 q 528 708 533 708 q 519 701 522 708 l 435 465 q 449 436 424 436 l 607 436 m 626 1133 l 569 1208 q 548 1228 556 1228 q 522 1208 540 1228 l 458 1133 q 442 1122 449 1124 q 422 1121 436 1121 l 285 1121 q 272 1128 272 1121 q 281 1146 271 1135 l 436 1318 q 457 1334 446 1329 q 488 1339 468 1339 l 619 1339 q 643 1333 635 1339 q 658 1321 651 1328 l 813 1146 q 810 1121 836 1121 l 664 1121 q 642 1122 651 1121 q 626 1133 633 1124 m 715 1576 l 753 1468 q 726 1424 764 1433 l 403 1346 q 376 1346 385 1342 q 363 1364 368 1350 l 342 1424 q 353 1457 333 1449 l 686 1593 q 715 1576 706 1601 z "},"Ậ":{"ha":1110,"x_min":31,"x_max":1079,"o":"m 60 0 q 38 15 44 0 q 39 51 31 29 l 375 999 q 390 1023 382 1015 q 417 1031 399 1031 l 690 1031 q 740 993 726 1031 l 1074 47 q 1074 17 1079 33 q 1054 0 1069 0 l 782 0 q 751 24 758 0 l 697 183 q 691 195 694 190 q 676 200 688 200 l 382 200 q 361 185 365 200 l 304 21 q 294 6 301 13 q 271 0 286 0 l 60 0 l 60 0 m 607 436 q 619 464 628 436 l 536 701 q 528 708 533 708 q 519 701 522 708 l 435 465 q 449 436 424 436 l 607 436 m 658 -76 l 658 -199 q 651 -222 658 -214 q 625 -229 643 -229 l 479 -229 q 458 -222 464 -229 q 453 -203 453 -215 l 453 -79 q 471 -54 453 -54 l 640 -54 q 658 -76 658 -54 m 626 1133 l 569 1208 q 548 1228 556 1228 q 522 1208 540 1228 l 458 1133 q 442 1122 449 1124 q 422 1121 436 1121 l 285 1121 q 272 1128 272 1121 q 281 1146 271 1135 l 436 1318 q 457 1334 446 1329 q 488 1339 468 1339 l 619 1339 q 643 1333 635 1339 q 658 1321 651 1328 l 813 1146 q 810 1121 836 1121 l 664 1121 q 642 1122 651 1121 q 626 1133 633 1124 z "},"Ầ":{"ha":1110,"x_min":31,"x_max":1079,"o":"m 60 0 q 38 15 44 0 q 39 51 31 29 l 375 999 q 390 1023 382 1015 q 417 1031 399 1031 l 690 1031 q 740 993 726 1031 l 1074 47 q 1074 17 1079 33 q 1054 0 1069 0 l 782 0 q 751 24 758 0 l 697 183 q 691 195 694 190 q 676 200 688 200 l 382 200 q 361 185 365 200 l 304 21 q 294 6 301 13 q 271 0 286 0 l 60 0 l 60 0 m 607 436 q 619 464 628 436 l 536 701 q 528 708 533 708 q 519 701 522 708 l 435 465 q 449 436 424 436 l 607 436 m 626 1133 l 569 1208 q 548 1228 556 1228 q 522 1208 540 1228 l 458 1133 q 442 1122 449 1124 q 422 1121 436 1121 l 285 1121 q 272 1128 272 1121 q 281 1146 271 1135 l 436 1318 q 457 1334 446 1329 q 488 1339 468 1339 l 619 1339 q 643 1333 635 1339 q 658 1321 651 1328 l 813 1146 q 810 1121 836 1121 l 664 1121 q 642 1122 651 1121 q 626 1133 633 1124 m 382 1581 q 411 1597 392 1606 l 743 1461 q 754 1428 763 1453 l 733 1368 q 719 1350 728 1354 q 693 1350 711 1346 l 369 1428 q 343 1472 332 1438 l 382 1581 z "},"Ẩ":{"ha":1110,"x_min":31,"x_max":1079,"o":"m 60 0 q 38 15 44 0 q 39 51 31 29 l 375 999 q 390 1023 382 1015 q 417 1031 399 1031 l 690 1031 q 740 993 726 1031 l 1074 47 q 1074 17 1079 33 q 1054 0 1069 0 l 782 0 q 751 24 758 0 l 697 183 q 691 195 694 190 q 676 200 688 200 l 382 200 q 361 185 365 200 l 304 21 q 294 6 301 13 q 271 0 286 0 l 60 0 l 60 0 m 607 436 q 619 464 628 436 l 536 701 q 528 708 533 708 q 519 701 522 708 l 435 465 q 449 436 424 436 l 607 436 m 626 1133 l 569 1208 q 548 1228 556 1228 q 522 1208 540 1228 l 458 1133 q 442 1122 449 1124 q 422 1121 436 1121 l 285 1121 q 272 1128 272 1121 q 281 1146 271 1135 l 436 1318 q 457 1334 446 1329 q 488 1339 468 1339 l 619 1339 q 643 1333 635 1339 q 658 1321 651 1328 l 813 1146 q 810 1121 836 1121 l 664 1121 q 642 1122 651 1121 q 626 1133 633 1124 m 864 1272 q 836 1276 849 1261 l 797 1331 q 794 1345 792 1338 q 800 1356 796 1353 q 855 1399 838 1383 q 872 1438 872 1415 q 856 1460 872 1454 q 825 1467 840 1467 q 790 1461 807 1467 q 751 1444 772 1456 q 728 1454 738 1436 l 693 1519 q 703 1543 685 1536 q 768 1567 740 1557 q 826 1576 796 1576 q 937 1541 892 1576 q 982 1444 982 1506 q 948 1351 982 1392 q 864 1272 914 1310 z "},"Ẫ":{"ha":1110,"x_min":31,"x_max":1079,"o":"m 60 0 q 38 15 44 0 q 39 51 31 29 l 375 999 q 390 1023 382 1015 q 417 1031 399 1031 l 690 1031 q 740 993 726 1031 l 1074 47 q 1074 17 1079 33 q 1054 0 1069 0 l 782 0 q 751 24 758 0 l 697 183 q 691 195 694 190 q 676 200 688 200 l 382 200 q 361 185 365 200 l 304 21 q 294 6 301 13 q 271 0 286 0 l 60 0 l 60 0 m 607 436 q 619 464 628 436 l 536 701 q 528 708 533 708 q 519 701 522 708 l 435 465 q 449 436 424 436 l 607 436 m 626 1133 l 569 1208 q 548 1228 556 1228 q 522 1208 540 1228 l 458 1133 q 442 1122 449 1124 q 422 1121 436 1121 l 285 1121 q 272 1128 272 1121 q 281 1146 271 1135 l 436 1318 q 457 1334 446 1329 q 488 1339 468 1339 l 619 1339 q 643 1333 635 1339 q 658 1321 651 1328 l 813 1146 q 810 1121 836 1121 l 664 1121 q 642 1122 651 1121 q 626 1133 633 1124 m 803 1442 q 744 1413 781 1426 q 664 1400 707 1400 q 587 1411 624 1400 q 515 1433 550 1422 q 439 1443 479 1443 q 389 1435 410 1443 q 340 1408 368 1428 q 322 1401 329 1400 q 308 1419 314 1403 l 285 1494 q 281 1515 282 1506 q 296 1538 281 1524 q 353 1577 322 1560 q 432 1594 383 1594 q 517 1583 476 1594 q 594 1559 557 1571 q 663 1547 631 1547 q 724 1560 696 1547 q 769 1586 751 1572 q 790 1591 781 1593 q 803 1574 800 1589 l 822 1483 q 803 1442 828 1460 z "},"Ȁ":{"ha":1110,"x_min":31,"x_max":1079,"o":"m 60 0 q 38 15 44 0 q 39 51 31 29 l 375 999 q 390 1023 382 1015 q 417 1031 399 1031 l 690 1031 q 740 993 726 1031 l 1074 47 q 1074 17 1079 33 q 1054 0 1069 0 l 782 0 q 751 24 758 0 l 697 183 q 691 195 694 190 q 676 200 688 200 l 382 200 q 361 185 365 200 l 304 21 q 294 6 301 13 q 271 0 286 0 l 60 0 l 60 0 m 607 436 q 619 464 628 436 l 536 701 q 528 708 533 708 q 519 701 522 708 l 435 465 q 449 436 424 436 l 607 436 m 285 1326 q 318 1329 300 1346 l 513 1164 q 508 1129 529 1150 l 463 1081 q 444 1070 453 1069 q 418 1081 435 1071 l 219 1192 q 202 1216 201 1203 q 214 1243 203 1229 l 285 1326 m 589 1326 q 622 1329 604 1346 l 817 1164 q 813 1129 833 1150 l 767 1081 q 748 1070 757 1069 q 722 1081 739 1071 l 524 1192 q 506 1216 506 1203 q 518 1243 507 1229 l 589 1326 z "},"Ä":{"ha":1110,"x_min":31,"x_max":1079,"o":"m 60 0 q 38 15 44 0 q 39 51 31 29 l 375 999 q 390 1023 382 1015 q 417 1031 399 1031 l 690 1031 q 740 993 726 1031 l 1074 47 q 1074 17 1079 33 q 1054 0 1069 0 l 782 0 q 751 24 758 0 l 697 183 q 691 195 694 190 q 676 200 688 200 l 382 200 q 361 185 365 200 l 304 21 q 294 6 301 13 q 271 0 286 0 l 60 0 l 60 0 m 607 436 q 619 464 628 436 l 536 701 q 528 708 533 708 q 519 701 522 708 l 435 465 q 449 436 424 436 l 607 436 m 500 1300 l 500 1160 q 490 1134 500 1142 q 460 1126 481 1126 l 293 1126 q 269 1134 275 1126 q 263 1157 263 1142 l 263 1297 q 285 1325 263 1325 l 478 1325 q 500 1300 500 1325 m 833 1300 l 833 1160 q 824 1134 833 1142 q 793 1126 814 1126 l 626 1126 q 602 1134 608 1126 q 596 1157 596 1142 l 596 1297 q 618 1325 596 1325 l 811 1325 q 833 1300 833 1325 z "},"Ạ":{"ha":1110,"x_min":31,"x_max":1079,"o":"m 60 0 q 38 15 44 0 q 39 51 31 29 l 375 999 q 390 1023 382 1015 q 417 1031 399 1031 l 690 1031 q 740 993 726 1031 l 1074 47 q 1074 17 1079 33 q 1054 0 1069 0 l 782 0 q 751 24 758 0 l 697 183 q 691 195 694 190 q 676 200 688 200 l 382 200 q 361 185 365 200 l 304 21 q 294 6 301 13 q 271 0 286 0 l 60 0 l 60 0 m 607 436 q 619 464 628 436 l 536 701 q 528 708 533 708 q 519 701 522 708 l 435 465 q 449 436 424 436 l 607 436 m 658 -76 l 658 -199 q 651 -222 658 -214 q 625 -229 643 -229 l 479 -229 q 458 -222 464 -229 q 453 -203 453 -215 l 453 -79 q 471 -54 453 -54 l 640 -54 q 658 -76 658 -54 z "},"À":{"ha":1110,"x_min":31,"x_max":1079,"o":"m 60 0 q 38 15 44 0 q 39 51 31 29 l 375 999 q 390 1023 382 1015 q 417 1031 399 1031 l 690 1031 q 740 993 726 1031 l 1074 47 q 1074 17 1079 33 q 1054 0 1069 0 l 782 0 q 751 24 758 0 l 697 183 q 691 195 694 190 q 676 200 688 200 l 382 200 q 361 185 365 200 l 304 21 q 294 6 301 13 q 271 0 286 0 l 60 0 l 60 0 m 607 436 q 619 464 628 436 l 536 701 q 528 708 533 708 q 519 701 522 708 l 435 465 q 449 436 424 436 l 607 436 m 383 1321 q 413 1338 393 1346 l 744 1201 q 756 1168 764 1193 l 735 1108 q 721 1090 729 1094 q 694 1090 713 1086 l 371 1168 q 344 1213 333 1178 l 383 1321 z "},"Ả":{"ha":1110,"x_min":31,"x_max":1079,"o":"m 60 0 q 38 15 44 0 q 39 51 31 29 l 375 999 q 390 1023 382 1015 q 417 1031 399 1031 l 690 1031 q 740 993 726 1031 l 1074 47 q 1074 17 1079 33 q 1054 0 1069 0 l 782 0 q 751 24 758 0 l 697 183 q 691 195 694 190 q 676 200 688 200 l 382 200 q 361 185 365 200 l 304 21 q 294 6 301 13 q 271 0 286 0 l 60 0 l 60 0 m 607 436 q 619 464 628 436 l 536 701 q 528 708 533 708 q 519 701 522 708 l 435 465 q 449 436 424 436 l 607 436 m 558 1133 q 531 1138 543 1122 l 492 1192 q 488 1206 486 1199 q 494 1217 490 1214 q 549 1260 532 1244 q 567 1299 567 1276 q 551 1322 567 1315 q 519 1328 535 1328 q 484 1322 501 1328 q 446 1306 467 1317 q 422 1315 432 1297 l 388 1381 q 397 1404 379 1397 q 463 1428 435 1418 q 521 1438 490 1438 q 631 1402 586 1438 q 676 1306 676 1367 q 642 1212 676 1253 q 558 1133 608 1171 z "},"Ȃ":{"ha":1110,"x_min":31,"x_max":1079,"o":"m 60 0 q 38 15 44 0 q 39 51 31 29 l 375 999 q 390 1023 382 1015 q 417 1031 399 1031 l 690 1031 q 740 993 726 1031 l 1074 47 q 1074 17 1079 33 q 1054 0 1069 0 l 782 0 q 751 24 758 0 l 697 183 q 691 195 694 190 q 676 200 688 200 l 382 200 q 361 185 365 200 l 304 21 q 294 6 301 13 q 271 0 286 0 l 60 0 l 60 0 m 607 436 q 619 464 628 436 l 536 701 q 528 708 533 708 q 519 701 522 708 l 435 465 q 449 436 424 436 l 607 436 m 804 1118 l 696 1118 q 681 1121 688 1118 q 668 1136 675 1124 q 616 1183 650 1165 q 550 1201 582 1201 q 505 1193 528 1201 q 463 1170 482 1185 q 431 1138 444 1156 q 416 1122 422 1126 q 397 1118 410 1118 l 290 1118 q 277 1125 281 1118 q 275 1140 274 1132 q 334 1247 292 1207 q 433 1306 376 1288 q 550 1325 490 1325 q 665 1305 611 1325 q 759 1244 718 1285 q 822 1143 800 1204 q 804 1118 832 1118 z "},"Ā":{"ha":1110,"x_min":31,"x_max":1079,"o":"m 60 0 q 38 15 44 0 q 39 51 31 29 l 375 999 q 390 1023 382 1015 q 417 1031 399 1031 l 690 1031 q 740 993 726 1031 l 1074 47 q 1074 17 1079 33 q 1054 0 1069 0 l 782 0 q 751 24 758 0 l 697 183 q 691 195 694 190 q 676 200 688 200 l 382 200 q 361 185 365 200 l 304 21 q 294 6 301 13 q 271 0 286 0 l 60 0 l 60 0 m 607 436 q 619 464 628 436 l 536 701 q 528 708 533 708 q 519 701 522 708 l 435 465 q 449 436 424 436 l 607 436 m 833 1300 l 833 1188 q 793 1154 833 1154 l 293 1154 q 269 1162 275 1154 q 263 1185 263 1169 l 263 1297 q 285 1325 263 1325 l 811 1325 q 833 1300 833 1325 z "},"Ą":{"ha":1110,"x_min":31,"x_max":1079,"o":"m 60 0 q 38 15 44 0 q 39 51 31 29 l 375 999 q 390 1023 382 1015 q 417 1031 399 1031 l 690 1031 q 740 993 726 1031 l 1074 47 q 1074 17 1079 33 q 1054 0 1069 0 l 782 0 q 751 24 758 0 l 697 183 q 691 195 694 190 q 676 200 688 200 l 382 200 q 361 185 365 200 l 304 21 q 294 6 301 13 q 271 0 286 0 l 60 0 l 60 0 m 607 436 q 619 464 628 436 l 536 701 q 528 708 533 708 q 519 701 522 708 l 435 465 q 449 436 424 436 l 607 436 m 746 -125 q 771 -57 746 -89 q 876 4 796 -25 l 1065 4 q 963 -42 988 -21 q 938 -86 938 -62 q 947 -117 938 -107 q 976 -126 957 -126 q 1018 -120 1000 -126 q 1054 -104 1036 -114 q 1079 -119 1079 -92 l 1079 -192 q 1065 -217 1079 -208 q 1006 -236 1047 -226 q 914 -246 964 -246 q 792 -217 839 -246 q 746 -125 746 -187 z "},"Å":{"ha":1110,"x_min":31,"x_max":1079,"o":"m 60 0 q 38 15 44 0 q 39 51 31 29 l 375 999 q 390 1023 382 1015 q 417 1031 399 1031 l 690 1031 q 740 993 726 1031 l 1074 47 q 1074 17 1079 33 q 1054 0 1069 0 l 782 0 q 751 24 758 0 l 697 183 q 691 195 694 190 q 676 200 688 200 l 382 200 q 361 185 365 200 l 304 21 q 294 6 301 13 q 271 0 286 0 l 60 0 l 60 0 m 607 436 q 619 464 628 436 l 536 701 q 528 708 533 708 q 519 701 522 708 l 435 465 q 449 436 424 436 l 607 436 m 711 1238 q 664 1122 711 1169 q 549 1075 617 1075 q 433 1123 481 1075 q 386 1240 386 1171 q 408 1320 386 1285 q 467 1376 431 1356 q 549 1397 504 1397 q 631 1376 594 1397 q 690 1318 668 1354 q 711 1238 711 1282 m 614 1236 q 594 1283 614 1264 q 547 1301 575 1301 q 500 1283 521 1301 q 479 1236 479 1264 q 500 1189 479 1210 q 547 1168 521 1168 q 594 1189 575 1168 q 614 1236 614 1210 z "},"Ǻ":{"ha":986,"x_min":-14,"x_max":1011,"o":"m 654 1106 q 610 1002 654 1042 q 501 963 565 963 q 393 1003 438 963 q 349 1108 349 1043 q 394 1209 349 1169 q 501 1249 439 1249 q 610 1208 565 1249 q 654 1106 654 1168 l 654 1106 m 567 1104 q 547 1151 567 1132 q 500 1169 528 1169 q 453 1151 474 1169 q 432 1104 432 1132 q 453 1057 432 1078 q 500 1036 474 1036 q 547 1057 528 1036 q 567 1104 567 1078 l 567 1104 m 635 1031 q 683 993 672 1031 l 1006 47 q 1006 17 1011 33 q 986 0 1001 0 l 714 0 q 683 24 690 0 l 633 183 q 627 195 631 190 q 613 200 624 200 l 333 200 q 313 185 317 200 l 260 21 q 249 6 257 13 q 226 0 242 0 l 15 0 q -7 15 0 0 q -6 51 -14 29 l 319 999 q 333 1023 325 1015 q 360 1031 342 1031 l 635 1031 m 479 701 q 472 708 476 708 q 464 701 467 708 l 386 465 q 400 436 375 436 l 543 436 q 556 464 564 436 l 479 701 m 576 1339 q 598 1326 593 1339 q 596 1299 603 1314 l 561 1215 l 442 1215 l 461 1296 q 481 1331 468 1322 q 514 1339 494 1339 l 576 1339 z "},"Ã":{"ha":1110,"x_min":31,"x_max":1079,"o":"m 60 0 q 38 15 44 0 q 39 51 31 29 l 375 999 q 390 1023 382 1015 q 417 1031 399 1031 l 690 1031 q 740 993 726 1031 l 1074 47 q 1074 17 1079 33 q 1054 0 1069 0 l 782 0 q 751 24 758 0 l 697 183 q 691 195 694 190 q 676 200 688 200 l 382 200 q 361 185 365 200 l 304 21 q 294 6 301 13 q 271 0 286 0 l 60 0 l 60 0 m 607 436 q 619 464 628 436 l 536 701 q 528 708 533 708 q 519 701 522 708 l 435 465 q 449 436 424 436 l 607 436 m 804 1182 q 745 1153 782 1167 q 665 1140 708 1140 q 588 1151 625 1140 q 516 1173 551 1163 q 440 1183 481 1183 q 390 1176 411 1183 q 342 1149 369 1168 q 323 1142 331 1140 q 310 1160 315 1143 l 286 1235 q 283 1255 283 1246 q 297 1278 282 1264 q 354 1317 324 1300 q 433 1335 385 1335 q 518 1323 478 1335 q 595 1299 558 1311 q 664 1288 632 1288 q 725 1300 697 1288 q 771 1326 753 1313 q 792 1331 782 1333 q 804 1314 801 1329 l 824 1224 q 804 1182 829 1200 z "},"Æ":{"ha":1565,"x_min":31,"x_max":1519,"o":"m 1489 228 q 1519 201 1519 228 l 1519 31 q 1512 9 1519 18 q 1486 0 1504 0 l 743 0 q 706 35 706 0 l 706 181 q 688 200 706 200 l 408 200 q 385 185 392 200 l 303 21 q 290 6 299 13 q 267 0 282 0 l 56 0 q 35 15 40 0 q 43 51 31 29 l 535 999 q 553 1023 543 1015 q 581 1031 563 1031 l 1482 1031 q 1507 1001 1507 1031 l 1507 840 q 1471 803 1507 803 l 1053 803 q 1021 776 1021 803 l 1021 658 q 1046 629 1021 629 l 1296 629 q 1325 601 1325 629 l 1325 429 q 1319 413 1325 419 q 1300 406 1314 406 l 1043 406 q 1021 386 1021 406 l 1021 247 q 1038 228 1021 228 l 1489 228 l 1489 228 m 679 436 q 706 464 706 436 l 706 743 q 686 776 706 775 q 650 746 667 778 l 508 465 q 517 436 490 436 l 679 436 l 679 436 z "},"Ǽ":{"ha":1565,"x_min":31,"x_max":1519,"o":"m 1489 228 q 1519 201 1519 228 l 1519 31 q 1512 9 1519 18 q 1486 0 1504 0 l 743 0 q 706 35 706 0 l 706 181 q 688 200 706 200 l 408 200 q 385 185 392 200 l 303 21 q 290 6 299 13 q 267 0 282 0 l 56 0 q 35 15 40 0 q 43 51 31 29 l 535 999 q 553 1023 543 1015 q 581 1031 563 1031 l 1482 1031 q 1507 1001 1507 1031 l 1507 840 q 1471 803 1507 803 l 1053 803 q 1021 776 1021 803 l 1021 658 q 1046 629 1021 629 l 1296 629 q 1325 601 1325 629 l 1325 429 q 1319 413 1325 419 q 1300 406 1314 406 l 1043 406 q 1021 386 1021 406 l 1021 247 q 1038 228 1021 228 l 1489 228 l 1489 228 m 679 436 q 706 464 706 436 l 706 743 q 686 776 706 775 q 650 746 667 778 l 508 465 q 517 436 490 436 l 679 436 l 679 436 m 1169 1317 l 1207 1208 q 1181 1164 1218 1174 l 857 1086 q 831 1086 839 1082 q 817 1104 822 1090 l 796 1164 q 807 1197 788 1189 l 1140 1333 q 1169 1317 1160 1342 z "},"B":{"ha":1026,"x_min":72,"x_max":986,"o":"m 104 0 q 81 9 90 0 q 72 31 72 18 l 72 994 q 82 1020 72 1010 q 107 1031 92 1031 l 521 1031 q 849 962 736 1031 q 961 758 961 893 q 922 635 961 686 q 779 536 883 585 q 776 531 776 535 q 779 526 776 528 q 940 426 894 483 q 986 281 986 369 q 877 69 986 138 q 543 0 768 0 l 104 0 l 104 0 m 536 208 q 628 242 597 208 q 658 315 658 275 q 644 367 658 344 q 603 401 629 389 q 543 414 578 414 l 419 414 q 388 385 388 414 l 388 239 q 411 208 388 208 l 536 208 m 543 628 q 588 635 568 628 q 621 655 607 642 q 642 685 635 668 q 650 722 650 701 q 616 795 650 768 q 533 822 582 822 l 419 822 q 388 794 388 822 l 388 658 q 411 628 388 628 l 543 628 z "},"C":{"ha":1024,"x_min":42,"x_max":990,"o":"m 535 1044 q 697 1021 622 1044 q 828 954 771 997 q 923 853 886 911 q 974 725 960 794 q 976 688 981 696 q 956 676 971 679 l 713 661 q 693 667 697 661 q 686 688 689 674 q 644 790 675 749 q 543 831 613 831 q 419 762 465 831 q 372 524 372 693 q 415 283 372 351 q 542 214 457 214 q 665 249 611 214 q 754 376 718 285 q 793 388 761 393 l 967 353 q 982 343 974 351 q 986 307 990 335 q 964 246 982 285 q 913 162 946 207 q 826 77 879 117 q 701 12 774 38 q 532 -14 628 -14 q 273 56 383 -14 q 102 249 163 126 q 42 529 42 372 q 102 801 42 686 q 274 981 163 917 q 535 1044 385 1044 l 535 1044 z "},"Ć":{"ha":1024,"x_min":42,"x_max":990,"o":"m 535 1044 q 697 1021 622 1044 q 828 954 771 997 q 923 853 886 911 q 974 725 960 794 q 976 688 981 696 q 956 676 971 679 l 713 661 q 693 667 697 661 q 686 688 689 674 q 644 790 675 749 q 543 831 613 831 q 419 762 465 831 q 372 524 372 693 q 415 283 372 351 q 542 214 457 214 q 665 249 611 214 q 754 376 718 285 q 793 388 761 393 l 967 353 q 982 343 974 351 q 986 307 990 335 q 964 246 982 285 q 913 162 946 207 q 826 77 879 117 q 701 12 774 38 q 532 -14 628 -14 q 273 56 383 -14 q 102 249 163 126 q 42 529 42 372 q 102 801 42 686 q 274 981 163 917 q 535 1044 385 1044 l 535 1044 m 703 1317 l 740 1208 q 714 1164 751 1174 l 390 1086 q 364 1086 372 1082 q 350 1104 356 1090 l 329 1164 q 340 1197 321 1189 l 674 1333 q 703 1317 693 1342 z "},"Č":{"ha":1024,"x_min":42,"x_max":990,"o":"m 535 1044 q 697 1021 622 1044 q 828 954 771 997 q 923 853 886 911 q 974 725 960 794 q 976 688 981 696 q 956 676 971 679 l 713 661 q 693 667 697 661 q 686 688 689 674 q 644 790 675 749 q 543 831 613 831 q 419 762 465 831 q 372 524 372 693 q 415 283 372 351 q 542 214 457 214 q 665 249 611 214 q 754 376 718 285 q 793 388 761 393 l 967 353 q 982 343 974 351 q 986 307 990 335 q 964 246 982 285 q 913 162 946 207 q 826 77 879 117 q 701 12 774 38 q 532 -14 628 -14 q 273 56 383 -14 q 102 249 163 126 q 42 529 42 372 q 102 801 42 686 q 274 981 163 917 q 535 1044 385 1044 l 535 1044 m 613 1314 q 628 1325 619 1324 q 650 1326 638 1326 l 796 1326 q 799 1301 822 1326 l 644 1125 q 629 1113 638 1118 q 606 1107 621 1107 l 474 1107 q 443 1113 454 1107 q 422 1128 432 1118 l 267 1301 q 258 1319 257 1313 q 271 1326 258 1326 l 408 1326 q 429 1326 422 1326 q 444 1314 436 1325 l 508 1238 q 533 1218 525 1217 q 556 1238 542 1219 l 613 1314 z "},"Ç":{"ha":1024,"x_min":42,"x_max":990,"o":"m 535 1044 q 697 1021 622 1044 q 828 954 771 997 q 923 853 886 911 q 974 725 960 794 q 976 688 981 696 q 956 676 971 679 l 713 661 q 693 667 697 661 q 686 688 689 674 q 644 790 675 749 q 543 831 613 831 q 419 762 465 831 q 372 524 372 693 q 415 283 372 351 q 542 214 457 214 q 665 249 611 214 q 754 376 718 285 q 793 388 761 393 l 967 353 q 982 343 974 351 q 986 307 990 335 q 964 246 982 285 q 913 162 946 207 q 826 77 879 117 q 701 12 774 38 q 532 -14 628 -14 q 273 56 383 -14 q 102 249 163 126 q 42 529 42 372 q 102 801 42 686 q 274 981 163 917 q 535 1044 385 1044 l 535 1044 m 724 -190 q 698 -255 724 -228 q 631 -297 672 -282 q 539 -312 589 -312 q 447 -305 493 -312 q 363 -278 401 -297 q 354 -256 349 -268 l 378 -199 q 394 -192 382 -187 q 447 -214 418 -204 q 504 -224 476 -224 q 551 -214 533 -224 q 569 -186 569 -204 q 542 -147 569 -161 q 443 -132 515 -132 q 428 -129 433 -132 q 429 -115 424 -126 l 482 7 l 594 7 l 568 -61 q 576 -74 563 -74 q 663 -92 631 -74 q 710 -137 696 -110 q 724 -190 724 -164 z "},"Ḉ":{"ha":1024,"x_min":42,"x_max":990,"o":"m 535 1044 q 697 1021 622 1044 q 828 954 771 997 q 923 853 886 911 q 974 725 960 794 q 976 688 981 696 q 956 676 971 679 l 713 661 q 693 667 697 661 q 686 688 689 674 q 644 790 675 749 q 543 831 613 831 q 419 762 465 831 q 372 524 372 693 q 415 283 372 351 q 542 214 457 214 q 665 249 611 214 q 754 376 718 285 q 793 388 761 393 l 967 353 q 982 343 974 351 q 986 307 990 335 q 964 246 982 285 q 913 162 946 207 q 826 77 879 117 q 701 12 774 38 q 532 -14 628 -14 q 273 56 383 -14 q 102 249 163 126 q 42 529 42 372 q 102 801 42 686 q 274 981 163 917 q 535 1044 385 1044 l 535 1044 m 724 -190 q 698 -255 724 -228 q 631 -297 672 -282 q 539 -312 589 -312 q 447 -305 493 -312 q 363 -278 401 -297 q 354 -256 349 -268 l 378 -199 q 394 -192 382 -187 q 447 -214 418 -204 q 504 -224 476 -224 q 551 -214 533 -224 q 569 -186 569 -204 q 542 -147 569 -161 q 443 -132 515 -132 q 428 -129 433 -132 q 429 -115 424 -126 l 482 7 l 594 7 l 568 -61 q 576 -74 563 -74 q 663 -92 631 -74 q 710 -137 696 -110 q 724 -190 724 -164 m 703 1317 l 740 1208 q 714 1164 751 1174 l 390 1086 q 364 1086 372 1082 q 350 1104 356 1090 l 329 1164 q 340 1197 321 1189 l 674 1333 q 703 1317 693 1342 z "},"Ĉ":{"ha":1024,"x_min":42,"x_max":990,"o":"m 535 1044 q 697 1021 622 1044 q 828 954 771 997 q 923 853 886 911 q 974 725 960 794 q 976 688 981 696 q 956 676 971 679 l 713 661 q 693 667 697 661 q 686 688 689 674 q 644 790 675 749 q 543 831 613 831 q 419 762 465 831 q 372 524 372 693 q 415 283 372 351 q 542 214 457 214 q 665 249 611 214 q 754 376 718 285 q 793 388 761 393 l 967 353 q 982 343 974 351 q 986 307 990 335 q 964 246 982 285 q 913 162 946 207 q 826 77 879 117 q 701 12 774 38 q 532 -14 628 -14 q 273 56 383 -14 q 102 249 163 126 q 42 529 42 372 q 102 801 42 686 q 274 981 163 917 q 535 1044 385 1044 l 535 1044 m 613 1133 l 556 1208 q 534 1228 542 1228 q 508 1208 526 1228 l 444 1133 q 428 1122 435 1124 q 408 1121 422 1121 l 271 1121 q 258 1128 258 1121 q 267 1146 257 1135 l 422 1318 q 443 1334 432 1329 q 474 1339 454 1339 l 606 1339 q 629 1333 621 1339 q 644 1321 638 1328 l 799 1146 q 796 1121 822 1121 l 650 1121 q 628 1122 638 1121 q 613 1133 619 1124 z "},"Ċ":{"ha":1024,"x_min":42,"x_max":990,"o":"m 535 1044 q 697 1021 622 1044 q 828 954 771 997 q 923 853 886 911 q 974 725 960 794 q 976 688 981 696 q 956 676 971 679 l 713 661 q 693 667 697 661 q 686 688 689 674 q 644 790 675 749 q 543 831 613 831 q 419 762 465 831 q 372 524 372 693 q 415 283 372 351 q 542 214 457 214 q 665 249 611 214 q 754 376 718 285 q 793 388 761 393 l 967 353 q 982 343 974 351 q 986 307 990 335 q 964 246 982 285 q 913 162 946 207 q 826 77 879 117 q 701 12 774 38 q 532 -14 628 -14 q 273 56 383 -14 q 102 249 163 126 q 42 529 42 372 q 102 801 42 686 q 274 981 163 917 q 535 1044 385 1044 l 535 1044 m 674 1296 l 674 1132 q 663 1101 674 1111 q 628 1092 651 1092 l 432 1092 q 403 1101 411 1092 q 396 1128 396 1110 l 396 1293 q 422 1325 396 1325 l 649 1325 q 674 1296 674 1325 z "},"D":{"ha":1071,"x_min":72,"x_max":1028,"o":"m 113 0 q 72 42 72 0 l 72 996 q 81 1023 72 1015 q 110 1031 89 1031 q 194 1031 144 1031 q 299 1031 244 1031 q 401 1031 353 1031 q 479 1029 449 1031 q 787 957 665 1024 q 968 777 908 890 q 1028 517 1028 664 q 967 251 1028 368 q 783 67 906 133 q 478 0 661 0 l 113 0 m 407 218 l 417 218 q 567 247 504 218 q 663 343 629 276 q 697 519 697 410 q 669 681 697 617 q 583 779 642 746 q 435 813 525 813 l 401 813 q 388 793 388 813 l 388 239 q 407 218 388 218 z "},"Ǳ":{"ha":2035,"x_min":72,"x_max":1992,"o":"m 113 0 q 72 42 72 0 l 72 996 q 81 1023 72 1015 q 110 1031 89 1031 q 194 1031 144 1031 q 299 1031 244 1031 q 401 1031 353 1031 q 479 1029 449 1031 q 787 957 665 1024 q 968 777 908 890 q 1028 517 1028 664 q 967 251 1028 368 q 783 67 906 133 q 478 0 661 0 l 113 0 m 407 218 l 417 218 q 567 247 504 218 q 663 343 629 276 q 697 519 697 410 q 669 681 697 617 q 583 779 642 746 q 435 813 525 813 l 401 813 q 388 793 388 813 l 388 239 q 407 218 388 218 m 1115 0 q 1087 7 1094 0 q 1079 35 1079 14 l 1079 97 q 1084 130 1079 119 q 1108 168 1089 140 l 1536 779 q 1524 801 1550 801 l 1156 801 q 1131 809 1138 801 q 1125 835 1125 817 l 1125 1001 q 1150 1031 1125 1031 l 1965 1031 q 1992 1003 1992 1031 l 1992 932 q 1987 906 1992 917 q 1968 875 1982 894 l 1524 250 q 1524 235 1517 239 q 1540 231 1531 231 l 1953 231 q 1983 204 1983 231 l 1983 31 q 1976 9 1983 18 q 1950 0 1968 0 l 1115 0 l 1115 0 z "},"Ǆ":{"ha":2035,"x_min":72,"x_max":1992,"o":"m 113 0 q 72 42 72 0 l 72 996 q 81 1023 72 1015 q 110 1031 89 1031 q 194 1031 144 1031 q 299 1031 244 1031 q 401 1031 353 1031 q 479 1029 449 1031 q 787 957 665 1024 q 968 777 908 890 q 1028 517 1028 664 q 967 251 1028 368 q 783 67 906 133 q 478 0 661 0 l 113 0 m 407 218 l 417 218 q 567 247 504 218 q 663 343 629 276 q 697 519 697 410 q 669 681 697 617 q 583 779 642 746 q 435 813 525 813 l 401 813 q 388 793 388 813 l 388 239 q 407 218 388 218 m 1115 0 q 1087 7 1094 0 q 1079 35 1079 14 l 1079 97 q 1084 130 1079 119 q 1108 168 1089 140 l 1536 779 q 1524 801 1550 801 l 1156 801 q 1131 809 1138 801 q 1125 835 1125 817 l 1125 1001 q 1150 1031 1125 1031 l 1965 1031 q 1992 1003 1992 1031 l 1992 932 q 1987 906 1992 917 q 1968 875 1982 894 l 1524 250 q 1524 235 1517 239 q 1540 231 1531 231 l 1953 231 q 1983 204 1983 231 l 1983 31 q 1976 9 1983 18 q 1950 0 1968 0 l 1115 0 l 1115 0 m 1636 1314 q 1652 1325 1643 1324 q 1674 1326 1661 1326 l 1819 1326 q 1822 1301 1846 1326 l 1668 1125 q 1653 1113 1661 1118 q 1629 1107 1644 1107 l 1497 1107 q 1467 1113 1478 1107 q 1446 1128 1456 1118 l 1290 1301 q 1281 1319 1281 1313 q 1294 1326 1282 1326 l 1432 1326 q 1453 1326 1446 1326 q 1468 1314 1460 1325 l 1532 1238 q 1557 1218 1549 1217 q 1579 1238 1565 1219 l 1636 1314 z "},"Ď":{"ha":1071,"x_min":72,"x_max":1028,"o":"m 113 0 q 72 42 72 0 l 72 996 q 81 1023 72 1015 q 110 1031 89 1031 q 194 1031 144 1031 q 299 1031 244 1031 q 401 1031 353 1031 q 479 1029 449 1031 q 787 957 665 1024 q 968 777 908 890 q 1028 517 1028 664 q 967 251 1028 368 q 783 67 906 133 q 478 0 661 0 l 113 0 m 407 218 l 417 218 q 567 247 504 218 q 663 343 629 276 q 697 519 697 410 q 669 681 697 617 q 583 779 642 746 q 435 813 525 813 l 401 813 q 388 793 388 813 l 388 239 q 407 218 388 218 m 619 1314 q 635 1325 626 1324 q 657 1326 644 1326 l 803 1326 q 806 1301 829 1326 l 651 1125 q 636 1113 644 1118 q 613 1107 628 1107 l 481 1107 q 450 1113 461 1107 q 429 1128 439 1118 l 274 1301 q 265 1319 264 1313 q 278 1326 265 1326 l 415 1326 q 436 1326 429 1326 q 451 1314 443 1325 l 515 1238 q 540 1218 532 1217 q 563 1238 549 1219 l 619 1314 z "},"Đ":{"ha":1099,"x_min":33,"x_max":1056,"o":"m 600 446 q 554 407 600 407 l 69 407 q 41 415 49 407 q 33 442 33 424 l 33 571 q 60 603 33 603 l 575 603 q 600 575 600 603 l 600 446 m 140 0 q 100 42 100 0 l 100 996 q 108 1023 100 1015 q 138 1031 117 1031 q 222 1031 172 1031 q 326 1031 272 1031 q 428 1031 381 1031 q 507 1029 476 1031 q 815 957 693 1024 q 996 777 936 890 q 1056 517 1056 664 q 994 251 1056 368 q 811 67 933 133 q 506 0 689 0 l 140 0 m 435 218 l 444 218 q 594 247 532 218 q 691 343 657 276 q 725 519 725 410 q 697 681 725 617 q 611 779 669 746 q 463 813 553 813 l 429 813 q 415 793 415 813 l 415 239 q 435 218 415 218 z "},"Ḍ":{"ha":1071,"x_min":72,"x_max":1028,"o":"m 113 0 q 72 42 72 0 l 72 996 q 81 1023 72 1015 q 110 1031 89 1031 q 194 1031 144 1031 q 299 1031 244 1031 q 401 1031 353 1031 q 479 1029 449 1031 q 787 957 665 1024 q 968 777 908 890 q 1028 517 1028 664 q 967 251 1028 368 q 783 67 906 133 q 478 0 661 0 l 113 0 m 407 218 l 417 218 q 567 247 504 218 q 663 343 629 276 q 697 519 697 410 q 669 681 697 617 q 583 779 642 746 q 435 813 525 813 l 401 813 q 388 793 388 813 l 388 239 q 407 218 388 218 m 628 -76 l 628 -199 q 620 -222 628 -214 q 594 -229 613 -229 l 449 -229 q 428 -222 433 -229 q 422 -203 422 -215 l 422 -79 q 440 -54 422 -54 l 610 -54 q 628 -76 628 -54 z "},"Ḏ":{"ha":1071,"x_min":72,"x_max":1028,"o":"m 113 0 q 72 42 72 0 l 72 996 q 81 1023 72 1015 q 110 1031 89 1031 q 194 1031 144 1031 q 299 1031 244 1031 q 401 1031 353 1031 q 479 1029 449 1031 q 787 957 665 1024 q 968 777 908 890 q 1028 517 1028 664 q 967 251 1028 368 q 783 67 906 133 q 478 0 661 0 l 113 0 m 407 218 l 417 218 q 567 247 504 218 q 663 343 629 276 q 697 519 697 410 q 669 681 697 617 q 583 779 642 746 q 435 813 525 813 l 401 813 q 388 793 388 813 l 388 239 q 407 218 388 218 m 776 -83 l 776 -211 q 731 -250 776 -250 l 310 -250 q 281 -242 289 -250 q 274 -215 274 -233 l 274 -87 q 300 -56 274 -56 l 751 -56 q 776 -83 776 -56 z "},"ǲ":{"ha":1826,"x_min":72,"x_max":1793,"o":"m 113 0 q 72 42 72 0 l 72 996 q 81 1023 72 1015 q 110 1031 89 1031 q 194 1031 144 1031 q 299 1031 244 1031 q 401 1031 353 1031 q 479 1029 449 1031 q 787 957 665 1024 q 968 777 908 890 q 1028 517 1028 664 q 967 251 1028 368 q 783 67 906 133 q 478 0 661 0 l 113 0 m 407 218 l 417 218 q 567 247 504 218 q 663 343 629 276 q 697 519 697 410 q 669 681 697 617 q 583 779 642 746 q 435 813 525 813 l 401 813 q 388 793 388 813 l 388 239 q 407 218 388 218 m 1133 0 q 1105 7 1113 0 q 1097 35 1097 14 l 1097 97 q 1102 131 1097 119 q 1126 168 1107 142 l 1422 544 q 1408 567 1439 567 l 1158 567 q 1134 574 1140 567 q 1128 599 1128 581 l 1128 708 q 1153 736 1128 736 l 1765 736 q 1792 710 1792 736 l 1792 638 q 1786 610 1792 622 q 1768 581 1781 599 l 1465 199 q 1476 172 1446 172 l 1761 172 q 1793 146 1793 172 l 1793 31 q 1785 9 1793 18 q 1758 0 1776 0 l 1133 0 l 1133 0 z "},"ǅ":{"ha":1826,"x_min":72,"x_max":1793,"o":"m 113 0 q 72 42 72 0 l 72 996 q 81 1023 72 1015 q 110 1031 89 1031 q 194 1031 144 1031 q 299 1031 244 1031 q 401 1031 353 1031 q 479 1029 449 1031 q 787 957 665 1024 q 968 777 908 890 q 1028 517 1028 664 q 967 251 1028 368 q 783 67 906 133 q 478 0 661 0 l 113 0 m 407 218 l 417 218 q 567 247 504 218 q 663 343 629 276 q 697 519 697 410 q 669 681 697 617 q 583 779 642 746 q 435 813 525 813 l 401 813 q 388 793 388 813 l 388 239 q 407 218 388 218 m 1133 0 q 1105 7 1113 0 q 1097 35 1097 14 l 1097 97 q 1102 131 1097 119 q 1126 168 1107 142 l 1422 544 q 1408 567 1439 567 l 1158 567 q 1134 574 1140 567 q 1128 599 1128 581 l 1128 708 q 1153 736 1128 736 l 1765 736 q 1792 710 1792 736 l 1792 638 q 1786 610 1792 622 q 1768 581 1781 599 l 1465 199 q 1476 172 1446 172 l 1761 172 q 1793 146 1793 172 l 1793 31 q 1785 9 1793 18 q 1758 0 1776 0 l 1133 0 l 1133 0 m 1526 1019 q 1542 1031 1533 1029 q 1564 1032 1551 1032 l 1710 1032 q 1713 1007 1736 1032 l 1558 831 q 1543 818 1551 824 q 1519 813 1535 813 l 1388 813 q 1357 818 1368 813 q 1336 833 1346 824 l 1181 1007 q 1172 1025 1171 1018 q 1185 1032 1172 1032 l 1322 1032 q 1343 1031 1336 1032 q 1358 1019 1350 1031 l 1422 943 q 1447 924 1439 922 q 1469 943 1456 925 l 1526 1019 z "},"Ð":{"ha":1099,"x_min":33,"x_max":1056,"o":"m 600 446 q 554 407 600 407 l 69 407 q 41 415 49 407 q 33 442 33 424 l 33 571 q 60 603 33 603 l 575 603 q 600 575 600 603 l 600 446 m 140 0 q 100 42 100 0 l 100 996 q 108 1023 100 1015 q 138 1031 117 1031 q 222 1031 172 1031 q 326 1031 272 1031 q 428 1031 381 1031 q 507 1029 476 1031 q 815 957 693 1024 q 996 777 936 890 q 1056 517 1056 664 q 994 251 1056 368 q 811 67 933 133 q 506 0 689 0 l 140 0 m 435 218 l 444 218 q 594 247 532 218 q 691 343 657 276 q 725 519 725 410 q 697 681 725 617 q 611 779 669 746 q 463 813 553 813 l 429 813 q 415 793 415 813 l 415 239 q 435 218 415 218 z "},"E":{"ha":932,"x_min":72,"x_max":886,"o":"m 72 999 q 99 1031 72 1031 l 849 1031 q 874 1001 874 1031 l 874 840 q 838 803 874 803 l 419 803 q 388 776 388 803 l 388 658 q 413 629 388 629 l 663 629 q 692 601 692 629 l 692 429 q 686 413 692 419 q 667 406 681 406 l 410 406 q 388 386 388 406 l 388 247 q 404 228 388 228 l 856 228 q 886 201 886 228 l 886 31 q 878 9 886 18 q 853 0 871 0 l 110 0 q 72 35 72 0 l 72 999 l 72 999 z "},"É":{"ha":932,"x_min":72,"x_max":886,"o":"m 72 999 q 99 1031 72 1031 l 849 1031 q 874 1001 874 1031 l 874 840 q 838 803 874 803 l 419 803 q 388 776 388 803 l 388 658 q 413 629 388 629 l 663 629 q 692 601 692 629 l 692 429 q 686 413 692 419 q 667 406 681 406 l 410 406 q 388 386 388 406 l 388 247 q 404 228 388 228 l 856 228 q 886 201 886 228 l 886 31 q 878 9 886 18 q 853 0 871 0 l 110 0 q 72 35 72 0 l 72 999 l 72 999 m 635 1317 l 672 1208 q 646 1164 683 1174 l 322 1086 q 296 1086 304 1082 q 282 1104 288 1090 l 261 1164 q 272 1197 253 1189 l 606 1333 q 635 1317 625 1342 z "},"Ĕ":{"ha":932,"x_min":72,"x_max":886,"o":"m 72 999 q 99 1031 72 1031 l 849 1031 q 874 1001 874 1031 l 874 840 q 838 803 874 803 l 419 803 q 388 776 388 803 l 388 658 q 413 629 388 629 l 663 629 q 692 601 692 629 l 692 429 q 686 413 692 419 q 667 406 681 406 l 410 406 q 388 386 388 406 l 388 247 q 404 228 388 228 l 856 228 q 886 201 886 228 l 886 31 q 878 9 886 18 q 853 0 871 0 l 110 0 q 72 35 72 0 l 72 999 l 72 999 m 722 1325 q 740 1300 750 1325 q 677 1199 718 1239 q 583 1138 636 1158 q 468 1118 529 1118 q 351 1137 408 1118 q 252 1197 294 1156 q 193 1303 210 1238 q 195 1318 192 1311 q 208 1325 199 1325 l 315 1325 q 334 1321 328 1325 q 349 1306 340 1317 q 381 1273 363 1288 q 423 1250 400 1258 q 468 1242 446 1242 q 534 1260 500 1242 q 586 1307 568 1278 q 599 1322 593 1319 q 614 1325 606 1325 l 722 1325 z "},"Ě":{"ha":932,"x_min":72,"x_max":886,"o":"m 72 999 q 99 1031 72 1031 l 849 1031 q 874 1001 874 1031 l 874 840 q 838 803 874 803 l 419 803 q 388 776 388 803 l 388 658 q 413 629 388 629 l 663 629 q 692 601 692 629 l 692 429 q 686 413 692 419 q 667 406 681 406 l 410 406 q 388 386 388 406 l 388 247 q 404 228 388 228 l 856 228 q 886 201 886 228 l 886 31 q 878 9 886 18 q 853 0 871 0 l 110 0 q 72 35 72 0 l 72 999 l 72 999 m 544 1314 q 560 1325 551 1324 q 582 1326 569 1326 l 728 1326 q 731 1301 754 1326 l 576 1125 q 561 1113 569 1118 q 538 1107 553 1107 l 406 1107 q 375 1113 386 1107 q 354 1128 364 1118 l 199 1301 q 190 1319 189 1313 q 203 1326 190 1326 l 340 1326 q 361 1326 354 1326 q 376 1314 368 1325 l 440 1238 q 465 1218 457 1217 q 488 1238 474 1219 l 544 1314 z "},"Ḝ":{"ha":932,"x_min":72,"x_max":886,"o":"m 72 999 q 99 1031 72 1031 l 849 1031 q 874 1001 874 1031 l 874 840 q 838 803 874 803 l 419 803 q 388 776 388 803 l 388 658 q 413 629 388 629 l 663 629 q 692 601 692 629 l 692 429 q 686 413 692 419 q 667 406 681 406 l 410 406 q 388 386 388 406 l 388 247 q 404 228 388 228 l 856 228 q 886 201 886 228 l 886 31 q 878 9 886 18 q 853 0 871 0 l 110 0 q 72 35 72 0 l 72 999 l 72 999 m 658 -190 q 633 -255 658 -228 q 565 -297 607 -282 q 474 -312 524 -312 q 382 -305 428 -312 q 297 -278 336 -297 q 289 -256 283 -268 l 313 -199 q 329 -192 317 -187 q 382 -214 353 -204 q 439 -224 411 -224 q 486 -214 468 -224 q 504 -186 504 -204 q 477 -147 504 -161 q 378 -132 450 -132 q 363 -129 368 -132 q 364 -115 358 -126 l 417 7 l 529 7 l 503 -61 q 511 -74 497 -74 q 598 -92 565 -74 q 644 -137 631 -110 q 658 -190 658 -164 m 722 1325 q 740 1300 750 1325 q 677 1199 718 1239 q 583 1138 636 1158 q 468 1118 529 1118 q 351 1137 408 1118 q 252 1197 294 1156 q 193 1303 210 1238 q 195 1318 192 1311 q 208 1325 199 1325 l 315 1325 q 334 1321 328 1325 q 349 1306 340 1317 q 381 1273 363 1288 q 423 1250 400 1258 q 468 1242 446 1242 q 534 1260 500 1242 q 586 1307 568 1278 q 599 1322 593 1319 q 614 1325 606 1325 l 722 1325 z "},"Ê":{"ha":932,"x_min":72,"x_max":886,"o":"m 72 999 q 99 1031 72 1031 l 849 1031 q 874 1001 874 1031 l 874 840 q 838 803 874 803 l 419 803 q 388 776 388 803 l 388 658 q 413 629 388 629 l 663 629 q 692 601 692 629 l 692 429 q 686 413 692 419 q 667 406 681 406 l 410 406 q 388 386 388 406 l 388 247 q 404 228 388 228 l 856 228 q 886 201 886 228 l 886 31 q 878 9 886 18 q 853 0 871 0 l 110 0 q 72 35 72 0 l 72 999 l 72 999 m 544 1133 l 488 1208 q 466 1228 474 1228 q 440 1208 458 1228 l 376 1133 q 360 1122 367 1124 q 340 1121 354 1121 l 203 1121 q 190 1128 190 1121 q 199 1146 189 1135 l 354 1318 q 375 1334 364 1329 q 406 1339 386 1339 l 538 1339 q 561 1333 553 1339 q 576 1321 569 1328 l 731 1146 q 728 1121 754 1121 l 582 1121 q 560 1122 569 1121 q 544 1133 551 1124 z "},"Ế":{"ha":932,"x_min":72,"x_max":886,"o":"m 72 999 q 99 1031 72 1031 l 849 1031 q 874 1001 874 1031 l 874 840 q 838 803 874 803 l 419 803 q 388 776 388 803 l 388 658 q 413 629 388 629 l 663 629 q 692 601 692 629 l 692 429 q 686 413 692 419 q 667 406 681 406 l 410 406 q 388 386 388 406 l 388 247 q 404 228 388 228 l 856 228 q 886 201 886 228 l 886 31 q 878 9 886 18 q 853 0 871 0 l 110 0 q 72 35 72 0 l 72 999 l 72 999 m 544 1133 l 488 1208 q 466 1228 474 1228 q 440 1208 458 1228 l 376 1133 q 360 1122 367 1124 q 340 1121 354 1121 l 203 1121 q 190 1128 190 1121 q 199 1146 189 1135 l 354 1318 q 375 1334 364 1329 q 406 1339 386 1339 l 538 1339 q 561 1333 553 1339 q 576 1321 569 1328 l 731 1146 q 728 1121 754 1121 l 582 1121 q 560 1122 569 1121 q 544 1133 551 1124 m 633 1576 l 671 1468 q 644 1424 682 1433 l 321 1346 q 294 1346 303 1342 q 281 1364 286 1350 l 260 1424 q 271 1457 251 1449 l 604 1593 q 633 1576 624 1601 z "},"Ệ":{"ha":932,"x_min":72,"x_max":886,"o":"m 72 999 q 99 1031 72 1031 l 849 1031 q 874 1001 874 1031 l 874 840 q 838 803 874 803 l 419 803 q 388 776 388 803 l 388 658 q 413 629 388 629 l 663 629 q 692 601 692 629 l 692 429 q 686 413 692 419 q 667 406 681 406 l 410 406 q 388 386 388 406 l 388 247 q 404 228 388 228 l 856 228 q 886 201 886 228 l 886 31 q 878 9 886 18 q 853 0 871 0 l 110 0 q 72 35 72 0 l 72 999 l 72 999 m 569 -76 l 569 -199 q 562 -222 569 -214 q 536 -229 554 -229 l 390 -229 q 369 -222 375 -229 q 364 -203 364 -215 l 364 -79 q 382 -54 364 -54 l 551 -54 q 569 -76 569 -54 m 544 1133 l 488 1208 q 466 1228 474 1228 q 440 1208 458 1228 l 376 1133 q 360 1122 367 1124 q 340 1121 354 1121 l 203 1121 q 190 1128 190 1121 q 199 1146 189 1135 l 354 1318 q 375 1334 364 1329 q 406 1339 386 1339 l 538 1339 q 561 1333 553 1339 q 576 1321 569 1328 l 731 1146 q 728 1121 754 1121 l 582 1121 q 560 1122 569 1121 q 544 1133 551 1124 z "},"Ề":{"ha":932,"x_min":72,"x_max":886,"o":"m 72 999 q 99 1031 72 1031 l 849 1031 q 874 1001 874 1031 l 874 840 q 838 803 874 803 l 419 803 q 388 776 388 803 l 388 658 q 413 629 388 629 l 663 629 q 692 601 692 629 l 692 429 q 686 413 692 419 q 667 406 681 406 l 410 406 q 388 386 388 406 l 388 247 q 404 228 388 228 l 856 228 q 886 201 886 228 l 886 31 q 878 9 886 18 q 853 0 871 0 l 110 0 q 72 35 72 0 l 72 999 l 72 999 m 544 1133 l 488 1208 q 466 1228 474 1228 q 440 1208 458 1228 l 376 1133 q 360 1122 367 1124 q 340 1121 354 1121 l 203 1121 q 190 1128 190 1121 q 199 1146 189 1135 l 354 1318 q 375 1334 364 1329 q 406 1339 386 1339 l 538 1339 q 561 1333 553 1339 q 576 1321 569 1328 l 731 1146 q 728 1121 754 1121 l 582 1121 q 560 1122 569 1121 q 544 1133 551 1124 m 300 1581 q 329 1597 310 1606 l 661 1461 q 672 1428 681 1453 l 651 1368 q 638 1350 646 1354 q 611 1350 629 1346 l 288 1428 q 261 1472 250 1438 l 300 1581 z "},"Ể":{"ha":932,"x_min":72,"x_max":900,"o":"m 72 999 q 99 1031 72 1031 l 849 1031 q 874 1001 874 1031 l 874 840 q 838 803 874 803 l 419 803 q 388 776 388 803 l 388 658 q 413 629 388 629 l 663 629 q 692 601 692 629 l 692 429 q 686 413 692 419 q 667 406 681 406 l 410 406 q 388 386 388 406 l 388 247 q 404 228 388 228 l 856 228 q 886 201 886 228 l 886 31 q 878 9 886 18 q 853 0 871 0 l 110 0 q 72 35 72 0 l 72 999 l 72 999 m 544 1133 l 488 1208 q 466 1228 474 1228 q 440 1208 458 1228 l 376 1133 q 360 1122 367 1124 q 340 1121 354 1121 l 203 1121 q 190 1128 190 1121 q 199 1146 189 1135 l 354 1318 q 375 1334 364 1329 q 406 1339 386 1339 l 538 1339 q 561 1333 553 1339 q 576 1321 569 1328 l 731 1146 q 728 1121 754 1121 l 582 1121 q 560 1122 569 1121 q 544 1133 551 1124 m 782 1272 q 754 1276 767 1261 l 715 1331 q 712 1345 710 1338 q 718 1356 714 1353 q 773 1399 756 1383 q 790 1438 790 1415 q 774 1460 790 1454 q 743 1467 758 1467 q 708 1461 725 1467 q 669 1444 690 1456 q 646 1454 656 1436 l 611 1519 q 621 1543 603 1536 q 686 1567 658 1557 q 744 1576 714 1576 q 855 1541 810 1576 q 900 1444 900 1506 q 866 1351 900 1392 q 782 1272 832 1310 z "},"Ễ":{"ha":932,"x_min":72,"x_max":886,"o":"m 72 999 q 99 1031 72 1031 l 849 1031 q 874 1001 874 1031 l 874 840 q 838 803 874 803 l 419 803 q 388 776 388 803 l 388 658 q 413 629 388 629 l 663 629 q 692 601 692 629 l 692 429 q 686 413 692 419 q 667 406 681 406 l 410 406 q 388 386 388 406 l 388 247 q 404 228 388 228 l 856 228 q 886 201 886 228 l 886 31 q 878 9 886 18 q 853 0 871 0 l 110 0 q 72 35 72 0 l 72 999 l 72 999 m 544 1133 l 488 1208 q 466 1228 474 1228 q 440 1208 458 1228 l 376 1133 q 360 1122 367 1124 q 340 1121 354 1121 l 203 1121 q 190 1128 190 1121 q 199 1146 189 1135 l 354 1318 q 375 1334 364 1329 q 406 1339 386 1339 l 538 1339 q 561 1333 553 1339 q 576 1321 569 1328 l 731 1146 q 728 1121 754 1121 l 582 1121 q 560 1122 569 1121 q 544 1133 551 1124 m 721 1442 q 662 1413 699 1426 q 582 1400 625 1400 q 505 1411 542 1400 q 433 1433 468 1422 q 357 1443 397 1443 q 307 1435 328 1443 q 258 1408 286 1428 q 240 1401 247 1400 q 226 1419 232 1403 l 203 1494 q 199 1515 200 1506 q 214 1538 199 1524 q 271 1577 240 1560 q 350 1594 301 1594 q 435 1583 394 1594 q 512 1559 475 1571 q 581 1547 549 1547 q 642 1560 614 1547 q 688 1586 669 1572 q 708 1591 699 1593 q 721 1574 718 1589 l 740 1483 q 721 1442 746 1460 z "},"Ȅ":{"ha":932,"x_min":72,"x_max":886,"o":"m 72 999 q 99 1031 72 1031 l 849 1031 q 874 1001 874 1031 l 874 840 q 838 803 874 803 l 419 803 q 388 776 388 803 l 388 658 q 413 629 388 629 l 663 629 q 692 601 692 629 l 692 429 q 686 413 692 419 q 667 406 681 406 l 410 406 q 388 386 388 406 l 388 247 q 404 228 388 228 l 856 228 q 886 201 886 228 l 886 31 q 878 9 886 18 q 853 0 871 0 l 110 0 q 72 35 72 0 l 72 999 l 72 999 m 203 1326 q 236 1329 218 1346 l 431 1164 q 426 1129 447 1150 l 381 1081 q 362 1070 371 1069 q 336 1081 353 1071 l 138 1192 q 120 1216 119 1203 q 132 1243 121 1229 l 203 1326 m 507 1326 q 540 1329 522 1346 l 735 1164 q 731 1129 751 1150 l 685 1081 q 666 1070 675 1069 q 640 1081 657 1071 l 442 1192 q 424 1216 424 1203 q 436 1243 425 1229 l 507 1326 z "},"Ë":{"ha":932,"x_min":72,"x_max":886,"o":"m 72 999 q 99 1031 72 1031 l 849 1031 q 874 1001 874 1031 l 874 840 q 838 803 874 803 l 419 803 q 388 776 388 803 l 388 658 q 413 629 388 629 l 663 629 q 692 601 692 629 l 692 429 q 686 413 692 419 q 667 406 681 406 l 410 406 q 388 386 388 406 l 388 247 q 404 228 388 228 l 856 228 q 886 201 886 228 l 886 31 q 878 9 886 18 q 853 0 871 0 l 110 0 q 72 35 72 0 l 72 999 l 72 999 m 418 1300 l 418 1160 q 408 1134 418 1142 q 378 1126 399 1126 l 211 1126 q 187 1134 193 1126 q 181 1157 181 1142 l 181 1297 q 203 1325 181 1325 l 396 1325 q 418 1300 418 1325 m 751 1300 l 751 1160 q 742 1134 751 1142 q 711 1126 732 1126 l 544 1126 q 520 1134 526 1126 q 514 1157 514 1142 l 514 1297 q 536 1325 514 1325 l 729 1325 q 751 1300 751 1325 z "},"Ė":{"ha":932,"x_min":72,"x_max":886,"o":"m 72 999 q 99 1031 72 1031 l 849 1031 q 874 1001 874 1031 l 874 840 q 838 803 874 803 l 419 803 q 388 776 388 803 l 388 658 q 413 629 388 629 l 663 629 q 692 601 692 629 l 692 429 q 686 413 692 419 q 667 406 681 406 l 410 406 q 388 386 388 406 l 388 247 q 404 228 388 228 l 856 228 q 886 201 886 228 l 886 31 q 878 9 886 18 q 853 0 871 0 l 110 0 q 72 35 72 0 l 72 999 l 72 999 m 606 1296 l 606 1132 q 594 1101 606 1111 q 560 1092 583 1092 l 364 1092 q 335 1101 343 1092 q 328 1128 328 1110 l 328 1293 q 354 1325 328 1325 l 581 1325 q 606 1296 606 1325 z "},"Ẹ":{"ha":932,"x_min":72,"x_max":886,"o":"m 72 999 q 99 1031 72 1031 l 849 1031 q 874 1001 874 1031 l 874 840 q 838 803 874 803 l 419 803 q 388 776 388 803 l 388 658 q 413 629 388 629 l 663 629 q 692 601 692 629 l 692 429 q 686 413 692 419 q 667 406 681 406 l 410 406 q 388 386 388 406 l 388 247 q 404 228 388 228 l 856 228 q 886 201 886 228 l 886 31 q 878 9 886 18 q 853 0 871 0 l 110 0 q 72 35 72 0 l 72 999 l 72 999 m 569 -76 l 569 -199 q 562 -222 569 -214 q 536 -229 554 -229 l 390 -229 q 369 -222 375 -229 q 364 -203 364 -215 l 364 -79 q 382 -54 364 -54 l 551 -54 q 569 -76 569 -54 z "},"È":{"ha":932,"x_min":72,"x_max":886,"o":"m 72 999 q 99 1031 72 1031 l 849 1031 q 874 1001 874 1031 l 874 840 q 838 803 874 803 l 419 803 q 388 776 388 803 l 388 658 q 413 629 388 629 l 663 629 q 692 601 692 629 l 692 429 q 686 413 692 419 q 667 406 681 406 l 410 406 q 388 386 388 406 l 388 247 q 404 228 388 228 l 856 228 q 886 201 886 228 l 886 31 q 878 9 886 18 q 853 0 871 0 l 110 0 q 72 35 72 0 l 72 999 l 72 999 m 301 1321 q 331 1338 311 1346 l 663 1201 q 674 1168 682 1193 l 653 1108 q 639 1090 647 1094 q 613 1090 631 1086 l 289 1168 q 263 1213 251 1178 l 301 1321 z "},"Ẻ":{"ha":932,"x_min":72,"x_max":886,"o":"m 72 999 q 99 1031 72 1031 l 849 1031 q 874 1001 874 1031 l 874 840 q 838 803 874 803 l 419 803 q 388 776 388 803 l 388 658 q 413 629 388 629 l 663 629 q 692 601 692 629 l 692 429 q 686 413 692 419 q 667 406 681 406 l 410 406 q 388 386 388 406 l 388 247 q 404 228 388 228 l 856 228 q 886 201 886 228 l 886 31 q 878 9 886 18 q 853 0 871 0 l 110 0 q 72 35 72 0 l 72 999 l 72 999 m 476 1133 q 449 1138 461 1122 l 410 1192 q 406 1206 404 1199 q 413 1217 408 1214 q 467 1260 450 1244 q 485 1299 485 1276 q 469 1322 485 1315 q 438 1328 453 1328 q 402 1322 419 1328 q 364 1306 385 1317 q 340 1315 350 1297 l 306 1381 q 315 1404 297 1397 q 381 1428 353 1418 q 439 1438 408 1438 q 549 1402 504 1438 q 594 1306 594 1367 q 560 1212 594 1253 q 476 1133 526 1171 z "},"Ȇ":{"ha":932,"x_min":72,"x_max":886,"o":"m 72 999 q 99 1031 72 1031 l 849 1031 q 874 1001 874 1031 l 874 840 q 838 803 874 803 l 419 803 q 388 776 388 803 l 388 658 q 413 629 388 629 l 663 629 q 692 601 692 629 l 692 429 q 686 413 692 419 q 667 406 681 406 l 410 406 q 388 386 388 406 l 388 247 q 404 228 388 228 l 856 228 q 886 201 886 228 l 886 31 q 878 9 886 18 q 853 0 871 0 l 110 0 q 72 35 72 0 l 72 999 l 72 999 m 722 1118 l 614 1118 q 599 1121 606 1118 q 586 1136 593 1124 q 534 1183 568 1165 q 468 1201 500 1201 q 423 1193 446 1201 q 381 1170 400 1185 q 349 1138 363 1156 q 334 1122 340 1126 q 315 1118 328 1118 l 208 1118 q 195 1125 199 1118 q 193 1140 192 1132 q 252 1247 210 1207 q 351 1306 294 1288 q 468 1325 408 1325 q 583 1305 529 1325 q 677 1244 636 1285 q 740 1143 718 1204 q 722 1118 750 1118 z "},"Ē":{"ha":932,"x_min":72,"x_max":886,"o":"m 72 999 q 99 1031 72 1031 l 849 1031 q 874 1001 874 1031 l 874 840 q 838 803 874 803 l 419 803 q 388 776 388 803 l 388 658 q 413 629 388 629 l 663 629 q 692 601 692 629 l 692 429 q 686 413 692 419 q 667 406 681 406 l 410 406 q 388 386 388 406 l 388 247 q 404 228 388 228 l 856 228 q 886 201 886 228 l 886 31 q 878 9 886 18 q 853 0 871 0 l 110 0 q 72 35 72 0 l 72 999 l 72 999 m 751 1300 l 751 1188 q 711 1154 751 1154 l 211 1154 q 187 1162 193 1154 q 181 1185 181 1169 l 181 1297 q 203 1325 181 1325 l 729 1325 q 751 1300 751 1325 z "},"Ḗ":{"ha":932,"x_min":72,"x_max":886,"o":"m 72 999 q 99 1031 72 1031 l 849 1031 q 874 1001 874 1031 l 874 840 q 838 803 874 803 l 419 803 q 388 776 388 803 l 388 658 q 413 629 388 629 l 663 629 q 692 601 692 629 l 692 429 q 686 413 692 419 q 667 406 681 406 l 410 406 q 388 386 388 406 l 388 247 q 404 228 388 228 l 856 228 q 886 201 886 228 l 886 31 q 878 9 886 18 q 853 0 871 0 l 110 0 q 72 35 72 0 l 72 999 l 72 999 m 751 1300 l 751 1188 q 711 1154 751 1154 l 211 1154 q 187 1162 193 1154 q 181 1185 181 1169 l 181 1297 q 203 1325 181 1325 l 729 1325 q 751 1300 751 1325 m 635 1583 l 672 1475 q 646 1431 683 1440 l 322 1353 q 296 1353 304 1349 q 282 1371 288 1357 l 261 1431 q 272 1464 253 1456 l 606 1600 q 635 1583 625 1608 z "},"Ḕ":{"ha":932,"x_min":72,"x_max":886,"o":"m 72 999 q 99 1031 72 1031 l 849 1031 q 874 1001 874 1031 l 874 840 q 838 803 874 803 l 419 803 q 388 776 388 803 l 388 658 q 413 629 388 629 l 663 629 q 692 601 692 629 l 692 429 q 686 413 692 419 q 667 406 681 406 l 410 406 q 388 386 388 406 l 388 247 q 404 228 388 228 l 856 228 q 886 201 886 228 l 886 31 q 878 9 886 18 q 853 0 871 0 l 110 0 q 72 35 72 0 l 72 999 l 72 999 m 751 1300 l 751 1188 q 711 1154 751 1154 l 211 1154 q 187 1162 193 1154 q 181 1185 181 1169 l 181 1297 q 203 1325 181 1325 l 729 1325 q 751 1300 751 1325 m 301 1588 q 331 1604 311 1613 l 663 1468 q 674 1435 682 1460 l 653 1375 q 639 1357 647 1361 q 613 1357 631 1353 l 289 1435 q 263 1479 251 1444 l 301 1588 z "},"Ę":{"ha":932,"x_min":72,"x_max":892,"o":"m 72 999 q 99 1031 72 1031 l 849 1031 q 874 1001 874 1031 l 874 840 q 838 803 874 803 l 419 803 q 388 776 388 803 l 388 658 q 413 629 388 629 l 663 629 q 692 601 692 629 l 692 429 q 686 413 692 419 q 667 406 681 406 l 410 406 q 388 386 388 406 l 388 247 q 404 228 388 228 l 856 228 q 886 201 886 228 l 886 31 q 878 9 886 18 q 853 0 871 0 l 110 0 q 72 35 72 0 l 72 999 l 72 999 m 558 -121 q 583 -53 558 -85 q 689 8 608 -21 l 878 8 q 775 -37 800 -17 q 750 -82 750 -58 q 760 -112 750 -103 q 789 -122 769 -122 q 831 -116 813 -122 q 867 -100 849 -110 q 892 -115 892 -87 l 892 -187 q 878 -212 892 -204 q 818 -232 860 -222 q 726 -242 776 -242 q 605 -212 651 -242 q 558 -121 558 -183 z "},"Ẽ":{"ha":932,"x_min":72,"x_max":886,"o":"m 72 999 q 99 1031 72 1031 l 849 1031 q 874 1001 874 1031 l 874 840 q 838 803 874 803 l 419 803 q 388 776 388 803 l 388 658 q 413 629 388 629 l 663 629 q 692 601 692 629 l 692 429 q 686 413 692 419 q 667 406 681 406 l 410 406 q 388 386 388 406 l 388 247 q 404 228 388 228 l 856 228 q 886 201 886 228 l 886 31 q 878 9 886 18 q 853 0 871 0 l 110 0 q 72 35 72 0 l 72 999 l 72 999 m 722 1182 q 663 1153 700 1167 q 583 1140 626 1140 q 506 1151 543 1140 q 434 1173 469 1163 q 358 1183 399 1183 q 308 1176 329 1183 q 260 1149 288 1168 q 241 1142 249 1140 q 228 1160 233 1143 l 204 1235 q 201 1255 201 1246 q 215 1278 200 1264 q 272 1317 242 1300 q 351 1335 303 1335 q 436 1323 396 1335 q 513 1299 476 1311 q 582 1288 550 1288 q 643 1300 615 1288 q 689 1326 671 1313 q 710 1331 700 1333 q 722 1314 719 1329 l 742 1224 q 722 1182 747 1200 z "},"Ə":{"ha":1081,"x_min":43,"x_max":1038,"o":"m 704 621 q 700 672 704 646 q 686 721 696 697 q 658 763 676 744 q 610 792 639 781 q 542 803 582 803 q 493 797 515 803 q 451 780 471 792 q 413 750 432 768 q 376 708 394 732 q 339 651 358 683 q 327 642 335 644 q 301 650 319 640 l 110 744 q 103 788 88 756 q 162 880 129 839 q 235 951 194 921 q 322 1003 275 982 q 424 1034 369 1024 q 539 1044 478 1044 q 709 1020 632 1044 q 847 950 786 996 q 951 841 908 904 q 1015 699 993 778 q 1038 528 1038 619 q 997 314 1038 413 q 887 142 957 215 q 726 27 817 68 q 535 -14 635 -14 q 322 23 414 -14 q 167 132 229 60 q 74 308 106 204 q 43 544 43 411 q 48 579 43 568 q 75 590 53 590 l 676 590 q 704 621 704 590 l 704 621 m 411 396 q 387 391 393 396 q 381 371 381 386 q 391 306 381 336 q 421 252 401 275 q 469 216 440 229 q 532 203 497 203 q 603 215 574 203 q 653 251 633 228 q 684 312 672 275 q 701 396 696 349 l 411 396 z "},"F":{"ha":903,"x_min":72,"x_max":864,"o":"m 72 999 q 99 1031 72 1031 l 839 1031 q 864 1001 864 1031 l 864 840 q 829 803 864 803 l 419 803 q 388 776 388 803 l 388 646 q 413 618 388 618 l 667 618 q 694 590 694 618 l 694 421 q 669 397 694 397 l 410 397 q 388 376 388 397 l 388 40 q 342 0 388 0 l 110 0 q 80 8 88 0 q 72 35 72 17 l 72 999 l 72 999 z "},"G":{"ha":1057,"x_min":42,"x_max":1004,"o":"m 528 -14 q 272 53 382 -14 q 102 238 163 119 q 42 511 42 357 q 106 792 42 672 q 283 978 169 911 q 546 1044 397 1044 q 764 999 671 1044 q 913 885 857 954 q 986 740 969 815 q 988 703 993 711 q 967 692 983 694 l 729 656 q 708 663 713 656 q 701 683 704 669 q 675 755 694 722 q 622 808 656 788 q 539 829 589 829 q 450 801 488 829 q 392 705 413 772 q 372 519 372 638 q 394 326 372 394 q 457 230 417 257 q 550 203 497 203 q 603 209 579 203 q 645 228 626 215 q 677 258 664 240 q 700 300 690 276 l 704 313 q 692 336 713 336 l 561 336 q 540 342 547 336 q 533 367 533 349 l 533 500 q 563 524 533 524 l 951 524 q 991 512 978 524 q 1004 481 1004 500 l 1004 24 q 998 7 1004 14 q 981 0 992 0 l 928 0 q 905 6 915 0 q 883 26 894 13 l 828 107 q 822 111 825 111 q 813 104 818 111 q 753 53 788 81 q 664 6 718 25 q 528 -14 610 -14 l 528 -14 z "},"Ǵ":{"ha":1057,"x_min":42,"x_max":1004,"o":"m 528 -14 q 272 53 382 -14 q 102 238 163 119 q 42 511 42 357 q 106 792 42 672 q 283 978 169 911 q 546 1044 397 1044 q 764 999 671 1044 q 913 885 857 954 q 986 740 969 815 q 988 703 993 711 q 967 692 983 694 l 729 656 q 708 663 713 656 q 701 683 704 669 q 675 755 694 722 q 622 808 656 788 q 539 829 589 829 q 450 801 488 829 q 392 705 413 772 q 372 519 372 638 q 394 326 372 394 q 457 230 417 257 q 550 203 497 203 q 603 209 579 203 q 645 228 626 215 q 677 258 664 240 q 700 300 690 276 l 704 313 q 692 336 713 336 l 561 336 q 540 342 547 336 q 533 367 533 349 l 533 500 q 563 524 533 524 l 951 524 q 991 512 978 524 q 1004 481 1004 500 l 1004 24 q 998 7 1004 14 q 981 0 992 0 l 928 0 q 905 6 915 0 q 883 26 894 13 l 828 107 q 822 111 825 111 q 813 104 818 111 q 753 53 788 81 q 664 6 718 25 q 528 -14 610 -14 l 528 -14 m 699 1317 l 736 1208 q 710 1164 747 1174 l 386 1086 q 360 1086 368 1082 q 346 1104 351 1090 l 325 1164 q 336 1197 317 1189 l 669 1333 q 699 1317 689 1342 z "},"Ğ":{"ha":1057,"x_min":42,"x_max":1004,"o":"m 528 -14 q 272 53 382 -14 q 102 238 163 119 q 42 511 42 357 q 106 792 42 672 q 283 978 169 911 q 546 1044 397 1044 q 764 999 671 1044 q 913 885 857 954 q 986 740 969 815 q 988 703 993 711 q 967 692 983 694 l 729 656 q 708 663 713 656 q 701 683 704 669 q 675 755 694 722 q 622 808 656 788 q 539 829 589 829 q 450 801 488 829 q 392 705 413 772 q 372 519 372 638 q 394 326 372 394 q 457 230 417 257 q 550 203 497 203 q 603 209 579 203 q 645 228 626 215 q 677 258 664 240 q 700 300 690 276 l 704 313 q 692 336 713 336 l 561 336 q 540 342 547 336 q 533 367 533 349 l 533 500 q 563 524 533 524 l 951 524 q 991 512 978 524 q 1004 481 1004 500 l 1004 24 q 998 7 1004 14 q 981 0 992 0 l 928 0 q 905 6 915 0 q 883 26 894 13 l 828 107 q 822 111 825 111 q 813 104 818 111 q 753 53 788 81 q 664 6 718 25 q 528 -14 610 -14 l 528 -14 m 786 1325 q 804 1300 814 1325 q 741 1199 782 1239 q 647 1138 700 1158 q 532 1118 593 1118 q 415 1137 472 1118 q 316 1197 358 1156 q 257 1303 274 1238 q 259 1318 256 1311 q 272 1325 263 1325 l 379 1325 q 398 1321 392 1325 q 413 1306 404 1317 q 445 1273 426 1288 q 487 1250 464 1258 q 532 1242 510 1242 q 598 1260 564 1242 q 650 1307 632 1278 q 663 1322 657 1319 q 678 1325 669 1325 l 786 1325 z "},"Ǧ":{"ha":1057,"x_min":42,"x_max":1004,"o":"m 528 -14 q 272 53 382 -14 q 102 238 163 119 q 42 511 42 357 q 106 792 42 672 q 283 978 169 911 q 546 1044 397 1044 q 764 999 671 1044 q 913 885 857 954 q 986 740 969 815 q 988 703 993 711 q 967 692 983 694 l 729 656 q 708 663 713 656 q 701 683 704 669 q 675 755 694 722 q 622 808 656 788 q 539 829 589 829 q 450 801 488 829 q 392 705 413 772 q 372 519 372 638 q 394 326 372 394 q 457 230 417 257 q 550 203 497 203 q 603 209 579 203 q 645 228 626 215 q 677 258 664 240 q 700 300 690 276 l 704 313 q 692 336 713 336 l 561 336 q 540 342 547 336 q 533 367 533 349 l 533 500 q 563 524 533 524 l 951 524 q 991 512 978 524 q 1004 481 1004 500 l 1004 24 q 998 7 1004 14 q 981 0 992 0 l 928 0 q 905 6 915 0 q 883 26 894 13 l 828 107 q 822 111 825 111 q 813 104 818 111 q 753 53 788 81 q 664 6 718 25 q 528 -14 610 -14 l 528 -14 m 608 1314 q 624 1325 615 1324 q 646 1326 633 1326 l 792 1326 q 794 1301 818 1326 l 640 1125 q 625 1113 633 1118 q 601 1107 617 1107 l 469 1107 q 439 1113 450 1107 q 418 1128 428 1118 l 263 1301 q 253 1319 253 1313 q 267 1326 254 1326 l 404 1326 q 425 1326 418 1326 q 440 1314 432 1325 l 504 1238 q 529 1218 521 1217 q 551 1238 538 1219 l 608 1314 z "},"Ĝ":{"ha":1057,"x_min":42,"x_max":1004,"o":"m 528 -14 q 272 53 382 -14 q 102 238 163 119 q 42 511 42 357 q 106 792 42 672 q 283 978 169 911 q 546 1044 397 1044 q 764 999 671 1044 q 913 885 857 954 q 986 740 969 815 q 988 703 993 711 q 967 692 983 694 l 729 656 q 708 663 713 656 q 701 683 704 669 q 675 755 694 722 q 622 808 656 788 q 539 829 589 829 q 450 801 488 829 q 392 705 413 772 q 372 519 372 638 q 394 326 372 394 q 457 230 417 257 q 550 203 497 203 q 603 209 579 203 q 645 228 626 215 q 677 258 664 240 q 700 300 690 276 l 704 313 q 692 336 713 336 l 561 336 q 540 342 547 336 q 533 367 533 349 l 533 500 q 563 524 533 524 l 951 524 q 991 512 978 524 q 1004 481 1004 500 l 1004 24 q 998 7 1004 14 q 981 0 992 0 l 928 0 q 905 6 915 0 q 883 26 894 13 l 828 107 q 822 111 825 111 q 813 104 818 111 q 753 53 788 81 q 664 6 718 25 q 528 -14 610 -14 l 528 -14 m 608 1133 l 551 1208 q 530 1228 538 1228 q 504 1208 522 1228 l 440 1133 q 424 1122 431 1124 q 404 1121 418 1121 l 267 1121 q 253 1128 254 1121 q 263 1146 253 1135 l 418 1318 q 439 1334 428 1329 q 469 1339 450 1339 l 601 1339 q 625 1333 617 1339 q 640 1321 633 1328 l 794 1146 q 792 1121 818 1121 l 646 1121 q 624 1122 633 1121 q 608 1133 615 1124 z "},"Ģ":{"ha":1057,"x_min":42,"x_max":1004,"o":"m 528 -14 q 272 53 382 -14 q 102 238 163 119 q 42 511 42 357 q 106 792 42 672 q 283 978 169 911 q 546 1044 397 1044 q 764 999 671 1044 q 913 885 857 954 q 986 740 969 815 q 988 703 993 711 q 967 692 983 694 l 729 656 q 708 663 713 656 q 701 683 704 669 q 675 755 694 722 q 622 808 656 788 q 539 829 589 829 q 450 801 488 829 q 392 705 413 772 q 372 519 372 638 q 394 326 372 394 q 457 230 417 257 q 550 203 497 203 q 603 209 579 203 q 645 228 626 215 q 677 258 664 240 q 700 300 690 276 l 704 313 q 692 336 713 336 l 561 336 q 540 342 547 336 q 533 367 533 349 l 533 500 q 563 524 533 524 l 951 524 q 991 512 978 524 q 1004 481 1004 500 l 1004 24 q 998 7 1004 14 q 981 0 992 0 l 928 0 q 905 6 915 0 q 883 26 894 13 l 828 107 q 822 111 825 111 q 813 104 818 111 q 753 53 788 81 q 664 6 718 25 q 528 -14 610 -14 l 528 -14 m 468 -342 q 451 -332 457 -342 q 451 -314 446 -322 l 497 -251 q 504 -224 508 -236 q 485 -211 500 -211 l 472 -211 q 440 -181 440 -211 l 440 -96 q 465 -68 440 -68 l 596 -68 q 619 -90 619 -68 l 619 -211 q 617 -222 619 -217 q 614 -229 615 -226 l 539 -322 q 522 -337 531 -333 q 493 -342 513 -342 l 468 -342 z "},"Ġ":{"ha":1057,"x_min":42,"x_max":1004,"o":"m 528 -14 q 272 53 382 -14 q 102 238 163 119 q 42 511 42 357 q 106 792 42 672 q 283 978 169 911 q 546 1044 397 1044 q 764 999 671 1044 q 913 885 857 954 q 986 740 969 815 q 988 703 993 711 q 967 692 983 694 l 729 656 q 708 663 713 656 q 701 683 704 669 q 675 755 694 722 q 622 808 656 788 q 539 829 589 829 q 450 801 488 829 q 392 705 413 772 q 372 519 372 638 q 394 326 372 394 q 457 230 417 257 q 550 203 497 203 q 603 209 579 203 q 645 228 626 215 q 677 258 664 240 q 700 300 690 276 l 704 313 q 692 336 713 336 l 561 336 q 540 342 547 336 q 533 367 533 349 l 533 500 q 563 524 533 524 l 951 524 q 991 512 978 524 q 1004 481 1004 500 l 1004 24 q 998 7 1004 14 q 981 0 992 0 l 928 0 q 905 6 915 0 q 883 26 894 13 l 828 107 q 822 111 825 111 q 813 104 818 111 q 753 53 788 81 q 664 6 718 25 q 528 -14 610 -14 l 528 -14 m 669 1296 l 669 1132 q 658 1101 669 1111 q 624 1092 647 1092 l 428 1092 q 399 1101 407 1092 q 392 1128 392 1110 l 392 1293 q 418 1325 392 1325 l 644 1325 q 669 1296 669 1325 z "},"Ḡ":{"ha":1057,"x_min":42,"x_max":1004,"o":"m 528 -14 q 272 53 382 -14 q 102 238 163 119 q 42 511 42 357 q 106 792 42 672 q 283 978 169 911 q 546 1044 397 1044 q 764 999 671 1044 q 913 885 857 954 q 986 740 969 815 q 988 703 993 711 q 967 692 983 694 l 729 656 q 708 663 713 656 q 701 683 704 669 q 675 755 694 722 q 622 808 656 788 q 539 829 589 829 q 450 801 488 829 q 392 705 413 772 q 372 519 372 638 q 394 326 372 394 q 457 230 417 257 q 550 203 497 203 q 603 209 579 203 q 645 228 626 215 q 677 258 664 240 q 700 300 690 276 l 704 313 q 692 336 713 336 l 561 336 q 540 342 547 336 q 533 367 533 349 l 533 500 q 563 524 533 524 l 951 524 q 991 512 978 524 q 1004 481 1004 500 l 1004 24 q 998 7 1004 14 q 981 0 992 0 l 928 0 q 905 6 915 0 q 883 26 894 13 l 828 107 q 822 111 825 111 q 813 104 818 111 q 753 53 788 81 q 664 6 718 25 q 528 -14 610 -14 l 528 -14 m 815 1300 l 815 1188 q 775 1154 815 1154 l 275 1154 q 251 1162 257 1154 q 244 1185 244 1169 l 244 1297 q 267 1325 244 1325 l 793 1325 q 815 1300 815 1325 z "},"H":{"ha":1058,"x_min":72,"x_max":986,"o":"m 410 413 q 388 392 388 413 l 388 40 q 342 0 388 0 l 110 0 q 80 8 88 0 q 72 35 72 17 l 72 999 q 99 1031 72 1031 l 363 1031 q 388 1001 388 1031 l 388 679 q 413 651 388 651 l 646 651 q 671 679 671 651 l 671 1001 q 696 1031 671 1031 l 960 1031 q 986 999 986 1031 l 986 35 q 978 8 986 17 q 949 0 971 0 l 717 0 q 671 40 671 0 l 671 392 q 649 413 671 413 l 410 413 z "},"Ħ":{"ha":1110,"x_min":0,"x_max":1110,"o":"m 1110 804 q 1069 771 1110 771 l 31 771 q 6 778 13 771 q 0 801 0 786 l 0 886 q 22 914 0 914 l 1088 914 q 1110 889 1110 914 l 1110 804 m 444 413 q 422 392 422 413 l 422 40 q 376 0 422 0 l 144 0 q 115 8 122 0 q 107 35 107 17 l 107 999 q 133 1031 107 1031 l 397 1031 q 422 1001 422 1031 l 422 679 q 447 651 422 651 l 681 651 q 706 679 706 651 l 706 1001 q 731 1031 706 1031 l 994 1031 q 1021 999 1021 1031 l 1021 35 q 1013 8 1021 17 q 983 0 1006 0 l 751 0 q 706 40 706 0 l 706 392 q 683 413 706 413 l 444 413 z "},"Ḫ":{"ha":1058,"x_min":72,"x_max":986,"o":"m 410 413 q 388 392 388 413 l 388 40 q 342 0 388 0 l 110 0 q 80 8 88 0 q 72 35 72 17 l 72 999 q 99 1031 72 1031 l 363 1031 q 388 1001 388 1031 l 388 679 q 413 651 388 651 l 646 651 q 671 679 671 651 l 671 1001 q 696 1031 671 1031 l 960 1031 q 986 999 986 1031 l 986 35 q 978 8 986 17 q 949 0 971 0 l 717 0 q 671 40 671 0 l 671 392 q 649 413 671 413 l 410 413 m 779 -260 l 671 -260 q 656 -257 663 -260 q 643 -242 650 -254 q 591 -194 625 -212 q 525 -176 557 -176 q 480 -185 503 -176 q 438 -208 457 -193 q 406 -240 419 -222 q 391 -256 397 -251 q 372 -260 385 -260 l 265 -260 q 252 -253 256 -260 q 250 -237 249 -246 q 309 -131 267 -172 q 408 -72 351 -90 q 525 -53 465 -53 q 640 -73 586 -53 q 734 -133 693 -93 q 797 -235 775 -174 q 779 -260 807 -260 z "},"Ĥ":{"ha":1058,"x_min":72,"x_max":986,"o":"m 410 413 q 388 392 388 413 l 388 40 q 342 0 388 0 l 110 0 q 80 8 88 0 q 72 35 72 17 l 72 999 q 99 1031 72 1031 l 363 1031 q 388 1001 388 1031 l 388 679 q 413 651 388 651 l 646 651 q 671 679 671 651 l 671 1001 q 696 1031 671 1031 l 960 1031 q 986 999 986 1031 l 986 35 q 978 8 986 17 q 949 0 971 0 l 717 0 q 671 40 671 0 l 671 392 q 649 413 671 413 l 410 413 m 606 1133 l 549 1208 q 527 1228 535 1228 q 501 1208 519 1228 l 438 1133 q 422 1122 428 1124 q 401 1121 415 1121 l 264 1121 q 251 1128 251 1121 q 260 1146 250 1135 l 415 1318 q 436 1334 425 1329 q 467 1339 447 1339 l 599 1339 q 622 1333 614 1339 q 638 1321 631 1328 l 792 1146 q 789 1121 815 1121 l 643 1121 q 622 1122 631 1121 q 606 1133 613 1124 z "},"Ḥ":{"ha":1058,"x_min":72,"x_max":986,"o":"m 410 413 q 388 392 388 413 l 388 40 q 342 0 388 0 l 110 0 q 80 8 88 0 q 72 35 72 17 l 72 999 q 99 1031 72 1031 l 363 1031 q 388 1001 388 1031 l 388 679 q 413 651 388 651 l 646 651 q 671 679 671 651 l 671 1001 q 696 1031 671 1031 l 960 1031 q 986 999 986 1031 l 986 35 q 978 8 986 17 q 949 0 971 0 l 717 0 q 671 40 671 0 l 671 392 q 649 413 671 413 l 410 413 m 628 -76 l 628 -199 q 620 -222 628 -214 q 594 -229 613 -229 l 449 -229 q 428 -222 433 -229 q 422 -203 422 -215 l 422 -79 q 440 -54 422 -54 l 610 -54 q 628 -76 628 -54 z "},"I":{"ha":460,"x_min":72,"x_max":388,"o":"m 363 1031 q 388 1001 388 1031 l 388 40 q 376 9 388 18 q 342 0 365 0 l 110 0 q 80 8 88 0 q 72 35 72 17 l 72 999 q 99 1031 72 1031 l 363 1031 z "},"Ĳ":{"ha":1108,"x_min":72,"x_max":1043,"o":"m 363 1031 q 388 1001 388 1031 l 388 40 q 376 9 388 18 q 342 0 365 0 l 110 0 q 80 8 88 0 q 72 35 72 17 l 72 999 q 99 1031 72 1031 l 363 1031 m 1043 294 q 959 55 1043 124 q 713 -14 875 -14 q 628 -10 669 -14 q 540 3 588 -6 q 506 20 517 7 q 497 63 496 33 l 510 221 q 543 253 513 257 q 578 247 560 251 q 619 243 597 243 q 699 272 671 243 q 728 372 728 301 l 728 999 q 756 1031 728 1031 l 1018 1031 q 1043 1001 1043 1031 l 1043 294 l 1043 294 z "},"Í":{"ha":460,"x_min":17,"x_max":447,"o":"m 363 1031 q 388 1001 388 1031 l 388 40 q 376 9 388 18 q 342 0 365 0 l 110 0 q 80 8 88 0 q 72 35 72 17 l 72 999 q 99 1031 72 1031 l 363 1031 m 399 1317 l 436 1208 q 410 1164 447 1174 l 86 1086 q 60 1086 68 1082 q 46 1104 51 1090 l 25 1164 q 36 1197 17 1189 l 369 1333 q 399 1317 389 1342 z "},"Ĭ":{"ha":460,"x_min":-44,"x_max":514,"o":"m 363 1031 q 388 1001 388 1031 l 388 40 q 376 9 388 18 q 342 0 365 0 l 110 0 q 80 8 88 0 q 72 35 72 17 l 72 999 q 99 1031 72 1031 l 363 1031 m 486 1325 q 504 1300 514 1325 q 441 1199 482 1239 q 347 1138 400 1158 q 232 1118 293 1118 q 115 1137 172 1118 q 16 1197 58 1156 q -43 1303 -26 1238 q -41 1318 -44 1311 q -28 1325 -37 1325 l 79 1325 q 98 1321 92 1325 q 113 1306 104 1317 q 145 1273 126 1288 q 187 1250 164 1258 q 232 1242 210 1242 q 298 1260 264 1242 q 350 1307 332 1278 q 363 1322 357 1319 q 378 1325 369 1325 l 486 1325 z "},"Î":{"ha":460,"x_min":-47,"x_max":518,"o":"m 363 1031 q 388 1001 388 1031 l 388 40 q 376 9 388 18 q 342 0 365 0 l 110 0 q 80 8 88 0 q 72 35 72 17 l 72 999 q 99 1031 72 1031 l 363 1031 m 308 1133 l 251 1208 q 230 1228 238 1228 q 204 1208 222 1228 l 140 1133 q 124 1122 131 1124 q 104 1121 118 1121 l -33 1121 q -47 1128 -46 1121 q -37 1146 -47 1135 l 118 1318 q 139 1334 128 1329 q 169 1339 150 1339 l 301 1339 q 325 1333 317 1339 q 340 1321 333 1328 l 494 1146 q 492 1121 518 1121 l 346 1121 q 324 1122 333 1121 q 308 1133 315 1124 z "},"Ȉ":{"ha":460,"x_min":-117,"x_max":515,"o":"m 363 1031 q 388 1001 388 1031 l 388 40 q 376 9 388 18 q 342 0 365 0 l 110 0 q 80 8 88 0 q 72 35 72 17 l 72 999 q 99 1031 72 1031 l 363 1031 m -33 1326 q 0 1329 -18 1346 l 194 1164 q 190 1129 211 1150 l 144 1081 q 126 1070 135 1069 q 100 1081 117 1071 l -99 1192 q -116 1216 -117 1203 q -104 1243 -115 1229 l -33 1326 m 271 1326 q 304 1329 286 1346 l 499 1164 q 494 1129 515 1150 l 449 1081 q 430 1070 439 1069 q 404 1081 421 1071 l 206 1192 q 188 1216 188 1203 q 200 1243 189 1229 l 271 1326 z "},"Ï":{"ha":460,"x_min":-56,"x_max":515,"o":"m 363 1031 q 388 1001 388 1031 l 388 40 q 376 9 388 18 q 342 0 365 0 l 110 0 q 80 8 88 0 q 72 35 72 17 l 72 999 q 99 1031 72 1031 l 363 1031 m 182 1300 l 182 1160 q 172 1134 182 1142 q 142 1126 163 1126 l -25 1126 q -49 1134 -43 1126 q -56 1157 -56 1142 l -56 1297 q -33 1325 -56 1325 l 160 1325 q 182 1300 182 1325 m 515 1300 l 515 1160 q 506 1134 515 1142 q 475 1126 496 1126 l 308 1126 q 284 1134 290 1126 q 278 1157 278 1142 l 278 1297 q 300 1325 278 1325 l 493 1325 q 515 1300 515 1325 z "},"Ḯ":{"ha":460,"x_min":-56,"x_max":515,"o":"m 363 1031 q 388 1001 388 1031 l 388 40 q 376 9 388 18 q 342 0 365 0 l 110 0 q 80 8 88 0 q 72 35 72 17 l 72 999 q 99 1031 72 1031 l 363 1031 m 182 1300 l 182 1160 q 172 1134 182 1142 q 142 1126 163 1126 l -25 1126 q -49 1134 -43 1126 q -56 1157 -56 1142 l -56 1297 q -33 1325 -56 1325 l 160 1325 q 182 1300 182 1325 m 515 1300 l 515 1160 q 506 1134 515 1142 q 475 1126 496 1126 l 308 1126 q 284 1134 290 1126 q 278 1157 278 1142 l 278 1297 q 300 1325 278 1325 l 493 1325 q 515 1300 515 1325 m 399 1569 l 436 1461 q 410 1417 447 1426 l 86 1339 q 60 1339 68 1335 q 46 1357 51 1343 l 25 1417 q 36 1450 17 1442 l 369 1586 q 399 1569 389 1594 z "},"İ":{"ha":460,"x_min":72,"x_max":388,"o":"m 363 1031 q 388 1001 388 1031 l 388 40 q 376 9 388 18 q 342 0 365 0 l 110 0 q 80 8 88 0 q 72 35 72 17 l 72 999 q 99 1031 72 1031 l 363 1031 m 369 1296 l 369 1132 q 358 1101 369 1111 q 324 1092 347 1092 l 128 1092 q 99 1101 107 1092 q 92 1128 92 1110 l 92 1293 q 118 1325 92 1325 l 344 1325 q 369 1296 369 1325 z "},"Ị":{"ha":460,"x_min":72,"x_max":388,"o":"m 363 1031 q 388 1001 388 1031 l 388 40 q 376 9 388 18 q 342 0 365 0 l 110 0 q 80 8 88 0 q 72 35 72 17 l 72 999 q 99 1031 72 1031 l 363 1031 m 332 -76 l 332 -199 q 324 -222 332 -214 q 299 -229 317 -229 l 153 -229 q 132 -222 138 -229 q 126 -203 126 -215 l 126 -79 q 144 -54 126 -54 l 314 -54 q 332 -76 332 -54 z "},"Ì":{"ha":460,"x_min":15,"x_max":446,"o":"m 363 1031 q 388 1001 388 1031 l 388 40 q 376 9 388 18 q 342 0 365 0 l 110 0 q 80 8 88 0 q 72 35 72 17 l 72 999 q 99 1031 72 1031 l 363 1031 m 65 1321 q 94 1338 75 1346 l 426 1201 q 438 1168 446 1193 l 417 1108 q 403 1090 411 1094 q 376 1090 394 1086 l 53 1168 q 26 1213 15 1178 l 65 1321 z "},"Ỉ":{"ha":460,"x_min":61,"x_max":388,"o":"m 363 1031 q 388 1001 388 1031 l 388 40 q 376 9 388 18 q 342 0 365 0 l 110 0 q 80 8 88 0 q 72 35 72 17 l 72 999 q 99 1031 72 1031 l 363 1031 m 240 1133 q 213 1138 225 1122 l 174 1192 q 170 1206 168 1199 q 176 1217 172 1214 q 231 1260 214 1244 q 249 1299 249 1276 q 233 1322 249 1315 q 201 1328 217 1328 q 166 1322 183 1328 q 128 1306 149 1317 q 104 1315 114 1297 l 69 1381 q 79 1404 61 1397 q 144 1428 117 1418 q 203 1438 172 1438 q 313 1402 268 1438 q 358 1306 358 1367 q 324 1212 358 1253 q 240 1133 290 1171 z "},"Ȋ":{"ha":460,"x_min":-44,"x_max":514,"o":"m 363 1031 q 388 1001 388 1031 l 388 40 q 376 9 388 18 q 342 0 365 0 l 110 0 q 80 8 88 0 q 72 35 72 17 l 72 999 q 99 1031 72 1031 l 363 1031 m 486 1118 l 378 1118 q 363 1121 369 1118 q 350 1136 357 1124 q 298 1183 332 1165 q 232 1201 264 1201 q 187 1193 210 1201 q 145 1170 164 1185 q 113 1138 126 1156 q 98 1122 104 1126 q 79 1118 92 1118 l -28 1118 q -41 1125 -37 1118 q -43 1140 -44 1132 q 16 1247 -26 1207 q 115 1306 58 1288 q 232 1325 172 1325 q 347 1305 293 1325 q 441 1244 400 1285 q 504 1143 482 1204 q 486 1118 514 1118 z "},"Ī":{"ha":460,"x_min":-56,"x_max":515,"o":"m 363 1031 q 388 1001 388 1031 l 388 40 q 376 9 388 18 q 342 0 365 0 l 110 0 q 80 8 88 0 q 72 35 72 17 l 72 999 q 99 1031 72 1031 l 363 1031 m 515 1300 l 515 1188 q 475 1154 515 1154 l -25 1154 q -49 1162 -43 1154 q -56 1185 -56 1169 l -56 1297 q -33 1325 -56 1325 l 493 1325 q 515 1300 515 1325 z "},"Į":{"ha":460,"x_min":54,"x_max":388,"o":"m 363 1031 q 388 1001 388 1031 l 388 40 q 376 9 388 18 q 342 0 365 0 l 110 0 q 80 8 88 0 q 72 35 72 17 l 72 999 q 99 1031 72 1031 l 363 1031 m 54 -121 q 79 -53 54 -85 q 185 8 104 -21 l 374 8 q 271 -37 296 -17 q 246 -82 246 -58 q 256 -112 246 -103 q 285 -122 265 -122 q 326 -116 308 -122 q 363 -100 344 -110 q 388 -115 388 -87 l 388 -187 q 374 -212 388 -204 q 314 -232 356 -222 q 222 -242 272 -242 q 101 -212 147 -242 q 54 -121 54 -183 z "},"Ĩ":{"ha":460,"x_min":-36,"x_max":511,"o":"m 363 1031 q 388 1001 388 1031 l 388 40 q 376 9 388 18 q 342 0 365 0 l 110 0 q 80 8 88 0 q 72 35 72 17 l 72 999 q 99 1031 72 1031 l 363 1031 m 486 1182 q 427 1153 464 1167 q 347 1140 390 1140 q 270 1151 307 1140 q 198 1173 233 1163 q 122 1183 163 1183 q 72 1176 93 1183 q 24 1149 51 1168 q 5 1142 13 1140 q -8 1160 -3 1143 l -32 1235 q -35 1255 -35 1246 q -21 1278 -36 1264 q 36 1317 6 1300 q 115 1335 67 1335 q 200 1323 160 1335 q 277 1299 240 1311 q 346 1288 314 1288 q 407 1300 379 1288 q 453 1326 435 1313 q 474 1331 464 1333 q 486 1314 483 1329 l 506 1224 q 486 1182 511 1200 z "},"J":{"ha":649,"x_min":36,"x_max":583,"o":"m 583 294 q 499 55 583 124 q 253 -14 415 -14 q 169 -10 210 -14 q 81 3 128 -6 q 47 20 57 7 q 38 63 36 33 l 50 221 q 83 253 53 257 q 119 247 100 251 q 160 243 138 243 q 240 272 211 243 q 268 372 268 301 l 268 999 q 296 1031 268 1031 l 558 1031 q 583 1001 583 1031 l 583 294 l 583 294 z "},"Ĵ":{"ha":649,"x_min":36,"x_max":625,"o":"m 583 294 q 499 55 583 124 q 253 -14 415 -14 q 169 -10 210 -14 q 81 3 128 -6 q 47 20 57 7 q 38 63 36 33 l 50 221 q 83 253 53 257 q 119 247 100 251 q 160 243 138 243 q 240 272 211 243 q 268 372 268 301 l 268 999 q 296 1031 268 1031 l 558 1031 q 583 1001 583 1031 l 583 294 l 583 294 m 415 1133 l 358 1208 q 337 1228 344 1228 q 311 1208 329 1228 l 247 1133 q 231 1122 238 1124 q 211 1121 225 1121 l 74 1121 q 60 1128 61 1121 q 69 1146 60 1135 l 225 1318 q 246 1334 235 1329 q 276 1339 257 1339 l 408 1339 q 432 1333 424 1339 q 447 1321 440 1328 l 601 1146 q 599 1121 625 1121 l 453 1121 q 431 1122 440 1121 q 415 1133 422 1124 z "},"K":{"ha":1072,"x_min":72,"x_max":1043,"o":"m 1035 43 q 1040 13 1043 26 q 1015 0 1036 0 l 744 0 q 694 28 707 0 l 525 414 q 494 407 514 432 l 396 281 q 388 250 388 271 l 388 40 q 342 0 388 0 l 110 0 q 80 8 88 0 q 72 35 72 17 l 72 999 q 99 1031 72 1031 l 363 1031 q 388 1001 388 1031 l 388 650 q 394 633 388 633 q 408 643 400 633 l 664 1001 q 687 1024 675 1017 q 724 1031 699 1031 l 935 1031 q 968 1018 958 1031 q 964 990 978 1006 l 736 711 q 732 667 721 692 l 1035 43 l 1035 43 z "},"Ķ":{"ha":1072,"x_min":72,"x_max":1043,"o":"m 1035 43 q 1040 13 1043 26 q 1015 0 1036 0 l 744 0 q 694 28 707 0 l 525 414 q 494 407 514 432 l 396 281 q 388 250 388 271 l 388 40 q 342 0 388 0 l 110 0 q 80 8 88 0 q 72 35 72 17 l 72 999 q 99 1031 72 1031 l 363 1031 q 388 1001 388 1031 l 388 650 q 394 633 388 633 q 408 643 400 633 l 664 1001 q 687 1024 675 1017 q 724 1031 699 1031 l 935 1031 q 968 1018 958 1031 q 964 990 978 1006 l 736 711 q 732 667 721 692 l 1035 43 l 1035 43 m 453 -342 q 436 -332 442 -342 q 436 -314 431 -322 l 482 -251 q 489 -224 493 -236 q 469 -211 485 -211 l 457 -211 q 425 -181 425 -211 l 425 -96 q 450 -68 425 -68 l 581 -68 q 604 -90 604 -68 l 604 -211 q 602 -222 604 -217 q 599 -229 600 -226 l 524 -322 q 506 -337 515 -333 q 478 -342 497 -342 l 453 -342 z "},"L":{"ha":893,"x_min":72,"x_max":854,"o":"m 72 999 q 99 1031 72 1031 l 363 1031 q 388 1001 388 1031 l 388 247 q 404 228 388 228 l 822 228 q 854 201 854 228 l 854 31 q 846 9 854 18 q 819 0 838 0 l 110 0 q 80 8 88 0 q 72 35 72 17 l 72 999 l 72 999 z "},"Ǉ":{"ha":1542,"x_min":72,"x_max":1476,"o":"m 72 999 q 99 1031 72 1031 l 363 1031 q 388 1001 388 1031 l 388 247 q 404 228 388 228 l 822 228 q 854 201 854 228 l 854 31 q 846 9 854 18 q 819 0 838 0 l 110 0 q 80 8 88 0 q 72 35 72 17 l 72 999 l 72 999 m 1476 294 q 1392 55 1476 124 q 1146 -14 1308 -14 q 1062 -10 1103 -14 q 974 3 1021 -6 q 940 20 950 7 q 931 63 929 33 l 943 221 q 976 253 946 257 q 1012 247 993 251 q 1053 243 1031 243 q 1133 272 1104 243 q 1161 372 1161 301 l 1161 999 q 1189 1031 1161 1031 l 1451 1031 q 1476 1001 1476 1031 l 1476 294 l 1476 294 z "},"Ĺ":{"ha":893,"x_min":19,"x_max":854,"o":"m 72 999 q 99 1031 72 1031 l 363 1031 q 388 1001 388 1031 l 388 247 q 404 228 388 228 l 822 228 q 854 201 854 228 l 854 31 q 846 9 854 18 q 819 0 838 0 l 110 0 q 80 8 88 0 q 72 35 72 17 l 72 999 l 72 999 m 401 1317 l 439 1208 q 413 1164 450 1174 l 89 1086 q 63 1086 71 1082 q 49 1104 54 1090 l 28 1164 q 39 1197 19 1189 l 372 1333 q 401 1317 392 1342 z "},"Ľ":{"ha":893,"x_min":72,"x_max":854,"o":"m 72 999 q 99 1031 72 1031 l 363 1031 q 388 1001 388 1031 l 388 247 q 404 228 388 228 l 822 228 q 854 201 854 228 l 854 31 q 846 9 854 18 q 819 0 838 0 l 110 0 q 80 8 88 0 q 72 35 72 17 l 72 999 l 72 999 m 576 688 q 563 695 567 688 q 563 710 560 703 l 606 817 q 596 846 615 842 l 579 849 q 554 872 554 850 l 554 1008 q 574 1031 554 1031 l 708 1031 q 726 1013 726 1031 l 726 849 q 725 841 726 844 q 722 835 724 838 l 669 710 q 656 692 665 697 q 628 688 647 688 l 576 688 z "},"Ļ":{"ha":893,"x_min":72,"x_max":854,"o":"m 72 999 q 99 1031 72 1031 l 363 1031 q 388 1001 388 1031 l 388 247 q 404 228 388 228 l 822 228 q 854 201 854 228 l 854 31 q 846 9 854 18 q 819 0 838 0 l 110 0 q 80 8 88 0 q 72 35 72 17 l 72 999 l 72 999 m 374 -342 q 357 -332 363 -342 q 357 -314 351 -322 l 403 -251 q 410 -224 414 -236 q 390 -211 406 -211 l 378 -211 q 346 -181 346 -211 l 346 -96 q 371 -68 346 -68 l 501 -68 q 525 -90 525 -68 l 525 -211 q 523 -222 525 -217 q 519 -229 521 -226 l 444 -322 q 427 -337 436 -333 q 399 -342 418 -342 l 374 -342 z "},"Ŀ":{"ha":893,"x_min":72,"x_max":854,"o":"m 72 999 q 99 1031 72 1031 l 363 1031 q 388 1001 388 1031 l 388 247 q 404 228 388 228 l 822 228 q 854 201 854 228 l 854 31 q 846 9 854 18 q 819 0 838 0 l 110 0 q 80 8 88 0 q 72 35 72 17 l 72 999 l 72 999 m 793 490 q 753 454 793 454 l 568 454 q 535 485 535 454 l 535 675 q 558 703 535 703 l 771 703 q 793 678 793 703 l 793 490 z "},"Ḷ":{"ha":893,"x_min":72,"x_max":854,"o":"m 72 999 q 99 1031 72 1031 l 363 1031 q 388 1001 388 1031 l 388 247 q 404 228 388 228 l 822 228 q 854 201 854 228 l 854 31 q 846 9 854 18 q 819 0 838 0 l 110 0 q 80 8 88 0 q 72 35 72 17 l 72 999 l 72 999 m 539 -76 l 539 -199 q 531 -222 539 -214 q 506 -229 524 -229 l 360 -229 q 339 -222 344 -229 q 333 -203 333 -215 l 333 -79 q 351 -54 333 -54 l 521 -54 q 539 -76 539 -54 z "},"ǈ":{"ha":1286,"x_min":72,"x_max":1229,"o":"m 72 999 q 99 1031 72 1031 l 363 1031 q 388 1001 388 1031 l 388 247 q 404 228 388 228 l 822 228 q 854 201 854 228 l 854 31 q 846 9 854 18 q 819 0 838 0 l 110 0 q 80 8 88 0 q 72 35 72 17 l 72 999 l 72 999 m 1229 40 q 1158 -167 1229 -97 q 938 -236 1086 -236 q 861 -230 879 -236 q 843 -201 843 -224 l 842 -60 q 849 -37 842 -49 q 869 -22 856 -25 l 918 -14 q 942 3 932 -10 q 951 50 951 15 l 951 704 q 979 736 951 736 l 1204 736 q 1229 708 1229 736 l 1229 40 l 1229 40 m 1229 838 q 1185 797 1229 797 l 989 797 q 951 833 951 797 l 951 999 q 979 1031 951 1031 l 1204 1031 q 1229 1001 1229 1031 l 1229 838 z "},"Ḻ":{"ha":893,"x_min":72,"x_max":854,"o":"m 72 999 q 99 1031 72 1031 l 363 1031 q 388 1001 388 1031 l 388 247 q 404 228 388 228 l 822 228 q 854 201 854 228 l 854 31 q 846 9 854 18 q 819 0 838 0 l 110 0 q 80 8 88 0 q 72 35 72 17 l 72 999 l 72 999 m 688 -83 l 688 -211 q 642 -250 688 -250 l 221 -250 q 192 -242 200 -250 q 185 -215 185 -233 l 185 -87 q 211 -56 185 -56 l 663 -56 q 688 -83 688 -56 z "},"Ł":{"ha":893,"x_min":-12,"x_max":854,"o":"m 610 585 q 582 551 610 560 l 24 393 q -5 394 3 388 q -12 418 -12 400 l -12 585 q -6 607 -12 600 q 14 617 1 614 l 576 767 q 610 742 610 776 l 610 585 m 72 999 q 99 1031 72 1031 l 363 1031 q 388 1001 388 1031 l 388 247 q 404 228 388 228 l 822 228 q 854 201 854 228 l 854 31 q 846 9 854 18 q 819 0 838 0 l 110 0 q 80 8 88 0 q 72 35 72 17 l 72 999 l 72 999 z "},"M":{"ha":1357,"x_min":72,"x_max":1285,"o":"m 108 0 q 72 39 72 0 l 72 999 q 101 1031 72 1031 l 490 1031 q 516 1026 508 1031 q 529 1006 524 1021 l 674 564 q 683 553 678 553 q 692 564 689 554 l 821 990 q 858 1031 832 1031 l 1260 1031 q 1285 1001 1285 1031 l 1285 40 q 1240 0 1285 0 l 1006 0 q 977 8 985 0 q 969 35 969 17 l 969 658 q 963 669 969 669 q 953 657 957 669 l 753 25 q 719 0 743 0 l 574 0 q 540 25 549 0 l 340 646 q 329 660 335 663 q 324 644 324 658 l 324 31 q 318 6 324 13 q 293 0 313 0 l 108 0 l 108 0 z "},"Ṃ":{"ha":1357,"x_min":72,"x_max":1285,"o":"m 108 0 q 72 39 72 0 l 72 999 q 101 1031 72 1031 l 490 1031 q 516 1026 508 1031 q 529 1006 524 1021 l 674 564 q 683 553 678 553 q 692 564 689 554 l 821 990 q 858 1031 832 1031 l 1260 1031 q 1285 1001 1285 1031 l 1285 40 q 1240 0 1285 0 l 1006 0 q 977 8 985 0 q 969 35 969 17 l 969 658 q 963 669 969 669 q 953 657 957 669 l 753 25 q 719 0 743 0 l 574 0 q 540 25 549 0 l 340 646 q 329 660 335 663 q 324 644 324 658 l 324 31 q 318 6 324 13 q 293 0 313 0 l 108 0 l 108 0 m 753 -76 l 753 -199 q 745 -222 753 -214 q 719 -229 738 -229 l 574 -229 q 553 -222 558 -229 q 547 -203 547 -215 l 547 -79 q 565 -54 547 -54 l 735 -54 q 753 -76 753 -54 z "},"N":{"ha":1057,"x_min":72,"x_max":985,"o":"m 964 1031 q 985 1007 985 1031 l 985 25 q 976 7 985 14 q 953 0 967 0 l 763 0 q 744 3 751 0 q 725 21 736 7 l 343 539 q 333 544 338 546 q 329 536 329 543 l 329 31 q 296 0 331 0 l 107 0 q 72 28 72 0 l 72 999 q 103 1031 72 1031 l 329 1031 q 356 1026 347 1031 q 376 1006 365 1021 l 710 542 q 726 530 719 529 q 732 547 732 531 l 732 1001 q 763 1031 732 1031 l 964 1031 z "},"Ǌ":{"ha":1706,"x_min":72,"x_max":1640,"o":"m 964 1031 q 985 1007 985 1031 l 985 25 q 976 7 985 14 q 953 0 967 0 l 763 0 q 744 3 751 0 q 725 21 736 7 l 343 539 q 333 544 338 546 q 329 536 329 543 l 329 31 q 296 0 331 0 l 107 0 q 72 28 72 0 l 72 999 q 103 1031 72 1031 l 329 1031 q 356 1026 347 1031 q 376 1006 365 1021 l 710 542 q 726 530 719 529 q 732 547 732 531 l 732 1001 q 763 1031 732 1031 l 964 1031 m 1640 294 q 1556 55 1640 124 q 1310 -14 1472 -14 q 1226 -10 1267 -14 q 1138 3 1185 -6 q 1103 20 1114 7 q 1094 63 1093 33 l 1107 221 q 1140 253 1110 257 q 1176 247 1157 251 q 1217 243 1194 243 q 1297 272 1268 243 q 1325 372 1325 301 l 1325 999 q 1353 1031 1325 1031 l 1615 1031 q 1640 1001 1640 1031 l 1640 294 l 1640 294 z "},"Ń":{"ha":1057,"x_min":72,"x_max":985,"o":"m 964 1031 q 985 1007 985 1031 l 985 25 q 976 7 985 14 q 953 0 967 0 l 763 0 q 744 3 751 0 q 725 21 736 7 l 343 539 q 333 544 338 546 q 329 536 329 543 l 329 31 q 296 0 331 0 l 107 0 q 72 28 72 0 l 72 999 q 103 1031 72 1031 l 329 1031 q 356 1026 347 1031 q 376 1006 365 1021 l 710 542 q 726 530 719 529 q 732 547 732 531 l 732 1001 q 763 1031 732 1031 l 964 1031 m 697 1317 l 735 1208 q 708 1164 746 1174 l 385 1086 q 358 1086 367 1082 q 344 1104 350 1090 l 324 1164 q 335 1197 315 1189 l 668 1333 q 697 1317 688 1342 z "},"Ň":{"ha":1057,"x_min":72,"x_max":985,"o":"m 964 1031 q 985 1007 985 1031 l 985 25 q 976 7 985 14 q 953 0 967 0 l 763 0 q 744 3 751 0 q 725 21 736 7 l 343 539 q 333 544 338 546 q 329 536 329 543 l 329 31 q 296 0 331 0 l 107 0 q 72 28 72 0 l 72 999 q 103 1031 72 1031 l 329 1031 q 356 1026 347 1031 q 376 1006 365 1021 l 710 542 q 726 530 719 529 q 732 547 732 531 l 732 1001 q 763 1031 732 1031 l 964 1031 m 607 1314 q 623 1325 614 1324 q 644 1326 632 1326 l 790 1326 q 793 1301 817 1326 l 639 1125 q 624 1113 632 1118 q 600 1107 615 1107 l 468 1107 q 438 1113 449 1107 q 417 1128 426 1118 l 261 1301 q 252 1319 251 1313 q 265 1326 253 1326 l 403 1326 q 424 1326 417 1326 q 439 1314 431 1325 l 503 1238 q 528 1218 519 1217 q 550 1238 536 1219 l 607 1314 z "},"Ņ":{"ha":1057,"x_min":72,"x_max":985,"o":"m 964 1031 q 985 1007 985 1031 l 985 25 q 976 7 985 14 q 953 0 967 0 l 763 0 q 744 3 751 0 q 725 21 736 7 l 343 539 q 333 544 338 546 q 329 536 329 543 l 329 31 q 296 0 331 0 l 107 0 q 72 28 72 0 l 72 999 q 103 1031 72 1031 l 329 1031 q 356 1026 347 1031 q 376 1006 365 1021 l 710 542 q 726 530 719 529 q 732 547 732 531 l 732 1001 q 763 1031 732 1031 l 964 1031 m 467 -342 q 450 -332 456 -342 q 450 -314 444 -322 l 496 -251 q 503 -224 507 -236 q 483 -211 499 -211 l 471 -211 q 439 -181 439 -211 l 439 -96 q 464 -68 439 -68 l 594 -68 q 618 -90 618 -68 l 618 -211 q 616 -222 618 -217 q 613 -229 614 -226 l 538 -322 q 520 -337 529 -333 q 492 -342 511 -342 l 467 -342 z "},"Ṅ":{"ha":1057,"x_min":72,"x_max":985,"o":"m 964 1031 q 985 1007 985 1031 l 985 25 q 976 7 985 14 q 953 0 967 0 l 763 0 q 744 3 751 0 q 725 21 736 7 l 343 539 q 333 544 338 546 q 329 536 329 543 l 329 31 q 296 0 331 0 l 107 0 q 72 28 72 0 l 72 999 q 103 1031 72 1031 l 329 1031 q 356 1026 347 1031 q 376 1006 365 1021 l 710 542 q 726 530 719 529 q 732 547 732 531 l 732 1001 q 763 1031 732 1031 l 964 1031 m 668 1296 l 668 1132 q 657 1101 668 1111 q 622 1092 646 1092 l 426 1092 q 398 1101 406 1092 q 390 1128 390 1110 l 390 1293 q 417 1325 390 1325 l 643 1325 q 668 1296 668 1325 z "},"Ṇ":{"ha":1057,"x_min":72,"x_max":985,"o":"m 964 1031 q 985 1007 985 1031 l 985 25 q 976 7 985 14 q 953 0 967 0 l 763 0 q 744 3 751 0 q 725 21 736 7 l 343 539 q 333 544 338 546 q 329 536 329 543 l 329 31 q 296 0 331 0 l 107 0 q 72 28 72 0 l 72 999 q 103 1031 72 1031 l 329 1031 q 356 1026 347 1031 q 376 1006 365 1021 l 710 542 q 726 530 719 529 q 732 547 732 531 l 732 1001 q 763 1031 732 1031 l 964 1031 m 632 -76 l 632 -199 q 624 -222 632 -214 q 599 -229 617 -229 l 453 -229 q 432 -222 438 -229 q 426 -203 426 -215 l 426 -79 q 444 -54 426 -54 l 614 -54 q 632 -76 632 -54 z "},"ǋ":{"ha":1450,"x_min":72,"x_max":1393,"o":"m 964 1031 q 985 1007 985 1031 l 985 25 q 976 7 985 14 q 953 0 967 0 l 763 0 q 744 3 751 0 q 725 21 736 7 l 343 539 q 333 544 338 546 q 329 536 329 543 l 329 31 q 296 0 331 0 l 107 0 q 72 28 72 0 l 72 999 q 103 1031 72 1031 l 329 1031 q 356 1026 347 1031 q 376 1006 365 1021 l 710 542 q 726 530 719 529 q 732 547 732 531 l 732 1001 q 763 1031 732 1031 l 964 1031 m 1393 40 q 1322 -167 1393 -97 q 1101 -236 1250 -236 q 1025 -230 1043 -236 q 1007 -201 1007 -224 l 1006 -60 q 1013 -37 1006 -49 q 1033 -22 1019 -25 l 1082 -14 q 1106 3 1096 -10 q 1115 50 1115 15 l 1115 704 q 1143 736 1115 736 l 1368 736 q 1393 708 1393 736 l 1393 40 l 1393 40 m 1393 838 q 1349 797 1393 797 l 1153 797 q 1115 833 1115 797 l 1115 999 q 1143 1031 1115 1031 l 1368 1031 q 1393 1001 1393 1031 l 1393 838 z "},"Ṉ":{"ha":1057,"x_min":72,"x_max":985,"o":"m 964 1031 q 985 1007 985 1031 l 985 25 q 976 7 985 14 q 953 0 967 0 l 763 0 q 744 3 751 0 q 725 21 736 7 l 343 539 q 333 544 338 546 q 329 536 329 543 l 329 31 q 296 0 331 0 l 107 0 q 72 28 72 0 l 72 999 q 103 1031 72 1031 l 329 1031 q 356 1026 347 1031 q 376 1006 365 1021 l 710 542 q 726 530 719 529 q 732 547 732 531 l 732 1001 q 763 1031 732 1031 l 964 1031 m 781 -83 l 781 -211 q 735 -250 781 -250 l 314 -250 q 285 -242 293 -250 q 278 -215 278 -233 l 278 -87 q 304 -56 278 -56 l 756 -56 q 781 -83 781 -56 z "},"Ñ":{"ha":1057,"x_min":72,"x_max":985,"o":"m 964 1031 q 985 1007 985 1031 l 985 25 q 976 7 985 14 q 953 0 967 0 l 763 0 q 744 3 751 0 q 725 21 736 7 l 343 539 q 333 544 338 546 q 329 536 329 543 l 329 31 q 296 0 331 0 l 107 0 q 72 28 72 0 l 72 999 q 103 1031 72 1031 l 329 1031 q 356 1026 347 1031 q 376 1006 365 1021 l 710 542 q 726 530 719 529 q 732 547 732 531 l 732 1001 q 763 1031 732 1031 l 964 1031 m 785 1182 q 726 1153 763 1167 q 646 1140 689 1140 q 569 1151 606 1140 q 497 1173 532 1163 q 421 1183 461 1183 q 371 1176 392 1183 q 322 1149 350 1168 q 303 1142 311 1140 q 290 1160 296 1143 l 267 1235 q 263 1255 264 1246 q 278 1278 263 1264 q 335 1317 304 1300 q 414 1335 365 1335 q 499 1323 458 1335 q 576 1299 539 1311 q 644 1288 613 1288 q 706 1300 678 1288 q 751 1326 733 1313 q 772 1331 763 1333 q 785 1314 782 1329 l 804 1224 q 785 1182 810 1200 z "},"Ŋ":{"ha":1057,"x_min":72,"x_max":985,"o":"m 964 1031 q 985 1007 985 1031 l 985 65 q 902 -173 985 -103 q 661 -243 819 -243 q 573 -239 618 -243 q 481 -226 528 -235 q 447 -209 457 -222 q 438 -167 436 -196 l 449 -40 q 482 -8 451 -4 q 535 -14 499 -10 q 594 -18 572 -18 q 679 6 656 -18 q 707 86 703 29 l 707 99 l 343 539 q 333 544 338 546 q 329 536 329 543 l 329 31 q 296 0 331 0 l 107 0 q 72 28 72 0 l 72 999 q 103 1031 72 1031 l 329 1031 q 356 1026 347 1031 q 376 1006 364 1021 l 710 597 q 726 585 719 585 q 732 603 732 586 l 732 1001 q 763 1031 732 1031 l 964 1031 l 964 1031 z "},"O":{"ha":1083,"x_min":43,"x_max":1040,"o":"m 543 -14 q 278 51 390 -14 q 104 234 165 115 q 43 513 43 353 q 106 793 43 674 q 281 978 168 913 q 543 1044 393 1044 q 805 978 693 1044 q 978 793 917 913 q 1040 513 1040 674 q 979 235 1040 353 q 806 51 918 117 q 543 -14 694 -14 l 543 -14 m 543 203 q 672 272 633 203 q 710 508 710 342 q 671 756 710 681 q 543 831 632 831 q 413 756 453 831 q 374 508 374 681 q 412 272 374 342 q 543 203 450 203 l 543 203 z "},"Ó":{"ha":1083,"x_min":43,"x_max":1040,"o":"m 543 -14 q 278 51 390 -14 q 104 234 165 115 q 43 513 43 353 q 106 793 43 674 q 281 978 168 913 q 543 1044 393 1044 q 805 978 693 1044 q 978 793 917 913 q 1040 513 1040 674 q 979 235 1040 353 q 806 51 918 117 q 543 -14 694 -14 l 543 -14 m 543 203 q 672 272 633 203 q 710 508 710 342 q 671 756 710 681 q 543 831 632 831 q 413 756 453 831 q 374 508 374 681 q 412 272 374 342 q 543 203 450 203 l 543 203 m 710 1317 l 747 1208 q 721 1164 758 1174 l 397 1086 q 371 1086 379 1082 q 357 1104 363 1090 l 336 1164 q 347 1197 328 1189 l 681 1333 q 710 1317 700 1342 z "},"Ŏ":{"ha":1083,"x_min":43,"x_max":1040,"o":"m 543 -14 q 278 51 390 -14 q 104 234 165 115 q 43 513 43 353 q 106 793 43 674 q 281 978 168 913 q 543 1044 393 1044 q 805 978 693 1044 q 978 793 917 913 q 1040 513 1040 674 q 979 235 1040 353 q 806 51 918 117 q 543 -14 694 -14 l 543 -14 m 543 203 q 672 272 633 203 q 710 508 710 342 q 671 756 710 681 q 543 831 632 831 q 413 756 453 831 q 374 508 374 681 q 412 272 374 342 q 543 203 450 203 l 543 203 m 797 1325 q 815 1300 825 1325 q 752 1199 793 1239 q 658 1138 711 1158 q 543 1118 604 1118 q 426 1137 483 1118 q 327 1197 369 1156 q 268 1303 285 1238 q 270 1318 267 1311 q 283 1325 274 1325 l 390 1325 q 409 1321 403 1325 q 424 1306 415 1317 q 456 1273 438 1288 q 498 1250 475 1258 q 543 1242 521 1242 q 609 1260 575 1242 q 661 1307 643 1278 q 674 1322 668 1319 q 689 1325 681 1325 l 797 1325 z "},"Ô":{"ha":1083,"x_min":43,"x_max":1040,"o":"m 543 -14 q 278 51 390 -14 q 104 234 165 115 q 43 513 43 353 q 106 793 43 674 q 281 978 168 913 q 543 1044 393 1044 q 805 978 693 1044 q 978 793 917 913 q 1040 513 1040 674 q 979 235 1040 353 q 806 51 918 117 q 543 -14 694 -14 l 543 -14 m 543 203 q 672 272 633 203 q 710 508 710 342 q 671 756 710 681 q 543 831 632 831 q 413 756 453 831 q 374 508 374 681 q 412 272 374 342 q 543 203 450 203 l 543 203 m 619 1133 l 563 1208 q 541 1228 549 1228 q 515 1208 533 1228 l 451 1133 q 435 1122 442 1124 q 415 1121 429 1121 l 278 1121 q 265 1128 265 1121 q 274 1146 264 1135 l 429 1318 q 450 1334 439 1329 q 481 1339 461 1339 l 613 1339 q 636 1333 628 1339 q 651 1321 644 1328 l 806 1146 q 803 1121 829 1121 l 657 1121 q 635 1122 644 1121 q 619 1133 626 1124 z "},"Ố":{"ha":1083,"x_min":43,"x_max":1040,"o":"m 543 -14 q 278 51 390 -14 q 104 234 165 115 q 43 513 43 353 q 106 793 43 674 q 281 978 168 913 q 543 1044 393 1044 q 805 978 693 1044 q 978 793 917 913 q 1040 513 1040 674 q 979 235 1040 353 q 806 51 918 117 q 543 -14 694 -14 l 543 -14 m 543 203 q 672 272 633 203 q 710 508 710 342 q 671 756 710 681 q 543 831 632 831 q 413 756 453 831 q 374 508 374 681 q 412 272 374 342 q 543 203 450 203 l 543 203 m 619 1133 l 563 1208 q 541 1228 549 1228 q 515 1208 533 1228 l 451 1133 q 435 1122 442 1124 q 415 1121 429 1121 l 278 1121 q 265 1128 265 1121 q 274 1146 264 1135 l 429 1318 q 450 1334 439 1329 q 481 1339 461 1339 l 613 1339 q 636 1333 628 1339 q 651 1321 644 1328 l 806 1146 q 803 1121 829 1121 l 657 1121 q 635 1122 644 1121 q 619 1133 626 1124 m 708 1576 l 746 1468 q 719 1424 757 1433 l 396 1346 q 369 1346 378 1342 q 356 1364 361 1350 l 335 1424 q 346 1457 326 1449 l 679 1593 q 708 1576 699 1601 z "},"Ộ":{"ha":1083,"x_min":43,"x_max":1040,"o":"m 543 -14 q 278 51 390 -14 q 104 234 165 115 q 43 513 43 353 q 106 793 43 674 q 281 978 168 913 q 543 1044 393 1044 q 805 978 693 1044 q 978 793 917 913 q 1040 513 1040 674 q 979 235 1040 353 q 806 51 918 117 q 543 -14 694 -14 l 543 -14 m 543 203 q 672 272 633 203 q 710 508 710 342 q 671 756 710 681 q 543 831 632 831 q 413 756 453 831 q 374 508 374 681 q 412 272 374 342 q 543 203 450 203 l 543 203 m 647 -76 l 647 -199 q 640 -222 647 -214 q 614 -229 632 -229 l 468 -229 q 447 -222 453 -229 q 442 -203 442 -215 l 442 -79 q 460 -54 442 -54 l 629 -54 q 647 -76 647 -54 m 619 1133 l 563 1208 q 541 1228 549 1228 q 515 1208 533 1228 l 451 1133 q 435 1122 442 1124 q 415 1121 429 1121 l 278 1121 q 265 1128 265 1121 q 274 1146 264 1135 l 429 1318 q 450 1334 439 1329 q 481 1339 461 1339 l 613 1339 q 636 1333 628 1339 q 651 1321 644 1328 l 806 1146 q 803 1121 829 1121 l 657 1121 q 635 1122 644 1121 q 619 1133 626 1124 z "},"Ồ":{"ha":1083,"x_min":43,"x_max":1040,"o":"m 543 -14 q 278 51 390 -14 q 104 234 165 115 q 43 513 43 353 q 106 793 43 674 q 281 978 168 913 q 543 1044 393 1044 q 805 978 693 1044 q 978 793 917 913 q 1040 513 1040 674 q 979 235 1040 353 q 806 51 918 117 q 543 -14 694 -14 l 543 -14 m 543 203 q 672 272 633 203 q 710 508 710 342 q 671 756 710 681 q 543 831 632 831 q 413 756 453 831 q 374 508 374 681 q 412 272 374 342 q 543 203 450 203 l 543 203 m 619 1133 l 563 1208 q 541 1228 549 1228 q 515 1208 533 1228 l 451 1133 q 435 1122 442 1124 q 415 1121 429 1121 l 278 1121 q 265 1128 265 1121 q 274 1146 264 1135 l 429 1318 q 450 1334 439 1329 q 481 1339 461 1339 l 613 1339 q 636 1333 628 1339 q 651 1321 644 1328 l 806 1146 q 803 1121 829 1121 l 657 1121 q 635 1122 644 1121 q 619 1133 626 1124 m 375 1581 q 404 1597 385 1606 l 736 1461 q 747 1428 756 1453 l 726 1368 q 713 1350 721 1354 q 686 1350 704 1346 l 363 1428 q 336 1472 325 1438 l 375 1581 z "},"Ổ":{"ha":1083,"x_min":43,"x_max":1040,"o":"m 543 -14 q 278 51 390 -14 q 104 234 165 115 q 43 513 43 353 q 106 793 43 674 q 281 978 168 913 q 543 1044 393 1044 q 805 978 693 1044 q 978 793 917 913 q 1040 513 1040 674 q 979 235 1040 353 q 806 51 918 117 q 543 -14 694 -14 l 543 -14 m 543 203 q 672 272 633 203 q 710 508 710 342 q 671 756 710 681 q 543 831 632 831 q 413 756 453 831 q 374 508 374 681 q 412 272 374 342 q 543 203 450 203 l 543 203 m 619 1133 l 563 1208 q 541 1228 549 1228 q 515 1208 533 1228 l 451 1133 q 435 1122 442 1124 q 415 1121 429 1121 l 278 1121 q 265 1128 265 1121 q 274 1146 264 1135 l 429 1318 q 450 1334 439 1329 q 481 1339 461 1339 l 613 1339 q 636 1333 628 1339 q 651 1321 644 1328 l 806 1146 q 803 1121 829 1121 l 657 1121 q 635 1122 644 1121 q 619 1133 626 1124 m 857 1272 q 829 1276 842 1261 l 790 1331 q 787 1345 785 1338 q 793 1356 789 1353 q 848 1399 831 1383 q 865 1438 865 1415 q 849 1460 865 1454 q 818 1467 833 1467 q 783 1461 800 1467 q 744 1444 765 1456 q 721 1454 731 1436 l 686 1519 q 696 1543 678 1536 q 761 1567 733 1557 q 819 1576 789 1576 q 930 1541 885 1576 q 975 1444 975 1506 q 941 1351 975 1392 q 857 1272 907 1310 z "},"Ỗ":{"ha":1083,"x_min":43,"x_max":1040,"o":"m 543 -14 q 278 51 390 -14 q 104 234 165 115 q 43 513 43 353 q 106 793 43 674 q 281 978 168 913 q 543 1044 393 1044 q 805 978 693 1044 q 978 793 917 913 q 1040 513 1040 674 q 979 235 1040 353 q 806 51 918 117 q 543 -14 694 -14 l 543 -14 m 543 203 q 672 272 633 203 q 710 508 710 342 q 671 756 710 681 q 543 831 632 831 q 413 756 453 831 q 374 508 374 681 q 412 272 374 342 q 543 203 450 203 l 543 203 m 619 1133 l 563 1208 q 541 1228 549 1228 q 515 1208 533 1228 l 451 1133 q 435 1122 442 1124 q 415 1121 429 1121 l 278 1121 q 265 1128 265 1121 q 274 1146 264 1135 l 429 1318 q 450 1334 439 1329 q 481 1339 461 1339 l 613 1339 q 636 1333 628 1339 q 651 1321 644 1328 l 806 1146 q 803 1121 829 1121 l 657 1121 q 635 1122 644 1121 q 619 1133 626 1124 m 796 1442 q 737 1413 774 1426 q 657 1400 700 1400 q 580 1411 617 1400 q 508 1433 543 1422 q 432 1443 472 1443 q 382 1435 403 1443 q 333 1408 361 1428 q 315 1401 322 1400 q 301 1419 307 1403 l 278 1494 q 274 1515 275 1506 q 289 1538 274 1524 q 346 1577 315 1560 q 425 1594 376 1594 q 510 1583 469 1594 q 587 1559 550 1571 q 656 1547 624 1547 q 717 1560 689 1547 q 763 1586 744 1572 q 783 1591 774 1593 q 796 1574 793 1589 l 815 1483 q 796 1442 821 1460 z "},"Ȍ":{"ha":1083,"x_min":43,"x_max":1040,"o":"m 543 -14 q 278 51 390 -14 q 104 234 165 115 q 43 513 43 353 q 106 793 43 674 q 281 978 168 913 q 543 1044 393 1044 q 805 978 693 1044 q 978 793 917 913 q 1040 513 1040 674 q 979 235 1040 353 q 806 51 918 117 q 543 -14 694 -14 l 543 -14 m 543 203 q 672 272 633 203 q 710 508 710 342 q 671 756 710 681 q 543 831 632 831 q 413 756 453 831 q 374 508 374 681 q 412 272 374 342 q 543 203 450 203 l 543 203 m 278 1326 q 311 1329 293 1346 l 506 1164 q 501 1129 522 1150 l 456 1081 q 437 1070 446 1069 q 411 1081 428 1071 l 213 1192 q 195 1216 194 1203 q 207 1243 196 1229 l 278 1326 m 582 1326 q 615 1329 597 1346 l 810 1164 q 806 1129 826 1150 l 760 1081 q 741 1070 750 1069 q 715 1081 732 1071 l 517 1192 q 499 1216 499 1203 q 511 1243 500 1229 l 582 1326 z "},"Ö":{"ha":1083,"x_min":43,"x_max":1040,"o":"m 543 -14 q 278 51 390 -14 q 104 234 165 115 q 43 513 43 353 q 106 793 43 674 q 281 978 168 913 q 543 1044 393 1044 q 805 978 693 1044 q 978 793 917 913 q 1040 513 1040 674 q 979 235 1040 353 q 806 51 918 117 q 543 -14 694 -14 l 543 -14 m 543 203 q 672 272 633 203 q 710 508 710 342 q 671 756 710 681 q 543 831 632 831 q 413 756 453 831 q 374 508 374 681 q 412 272 374 342 q 543 203 450 203 l 543 203 m 493 1300 l 493 1160 q 483 1134 493 1142 q 453 1126 474 1126 l 286 1126 q 262 1134 268 1126 q 256 1157 256 1142 l 256 1297 q 278 1325 256 1325 l 471 1325 q 493 1300 493 1325 m 826 1300 l 826 1160 q 817 1134 826 1142 q 786 1126 807 1126 l 619 1126 q 595 1134 601 1126 q 589 1157 589 1142 l 589 1297 q 611 1325 589 1325 l 804 1325 q 826 1300 826 1325 z "},"Ȫ":{"ha":1083,"x_min":43,"x_max":1040,"o":"m 543 -14 q 278 51 390 -14 q 104 234 165 115 q 43 513 43 353 q 106 793 43 674 q 281 978 168 913 q 543 1044 393 1044 q 805 978 693 1044 q 978 793 917 913 q 1040 513 1040 674 q 979 235 1040 353 q 806 51 918 117 q 543 -14 694 -14 l 543 -14 m 543 203 q 672 272 633 203 q 710 508 710 342 q 671 756 710 681 q 543 831 632 831 q 413 756 453 831 q 374 508 374 681 q 412 272 374 342 q 543 203 450 203 l 543 203 m 493 1300 l 493 1160 q 483 1134 493 1142 q 453 1126 474 1126 l 286 1126 q 262 1134 268 1126 q 256 1157 256 1142 l 256 1297 q 278 1325 256 1325 l 471 1325 q 493 1300 493 1325 m 826 1300 l 826 1160 q 817 1134 826 1142 q 786 1126 807 1126 l 619 1126 q 595 1134 601 1126 q 589 1157 589 1142 l 589 1297 q 611 1325 589 1325 l 804 1325 q 826 1300 826 1325 m 826 1553 l 826 1440 q 786 1407 826 1407 l 286 1407 q 262 1415 268 1407 q 256 1438 256 1422 l 256 1550 q 278 1578 256 1578 l 804 1578 q 826 1553 826 1578 z "},"Ȱ":{"ha":1083,"x_min":43,"x_max":1040,"o":"m 543 -14 q 278 51 390 -14 q 104 234 165 115 q 43 513 43 353 q 106 793 43 674 q 281 978 168 913 q 543 1044 393 1044 q 805 978 693 1044 q 978 793 917 913 q 1040 513 1040 674 q 979 235 1040 353 q 806 51 918 117 q 543 -14 694 -14 l 543 -14 m 543 203 q 672 272 633 203 q 710 508 710 342 q 671 756 710 681 q 543 831 632 831 q 413 756 453 831 q 374 508 374 681 q 412 272 374 342 q 543 203 450 203 l 543 203 m 681 1296 l 681 1132 q 669 1101 681 1111 q 635 1092 658 1092 l 439 1092 q 410 1101 418 1092 q 403 1128 403 1110 l 403 1293 q 429 1325 403 1325 l 656 1325 q 681 1296 681 1325 m 826 1517 l 826 1404 q 786 1371 826 1371 l 286 1371 q 262 1378 268 1371 q 256 1401 256 1386 l 256 1514 q 278 1542 256 1542 l 804 1542 q 826 1517 826 1542 z "},"Ọ":{"ha":1083,"x_min":43,"x_max":1040,"o":"m 543 -14 q 278 51 390 -14 q 104 234 165 115 q 43 513 43 353 q 106 793 43 674 q 281 978 168 913 q 543 1044 393 1044 q 805 978 693 1044 q 978 793 917 913 q 1040 513 1040 674 q 979 235 1040 353 q 806 51 918 117 q 543 -14 694 -14 l 543 -14 m 543 203 q 672 272 633 203 q 710 508 710 342 q 671 756 710 681 q 543 831 632 831 q 413 756 453 831 q 374 508 374 681 q 412 272 374 342 q 543 203 450 203 l 543 203 m 647 -76 l 647 -199 q 640 -222 647 -214 q 614 -229 632 -229 l 468 -229 q 447 -222 453 -229 q 442 -203 442 -215 l 442 -79 q 460 -54 442 -54 l 629 -54 q 647 -76 647 -54 z "},"Ò":{"ha":1083,"x_min":43,"x_max":1040,"o":"m 543 -14 q 278 51 390 -14 q 104 234 165 115 q 43 513 43 353 q 106 793 43 674 q 281 978 168 913 q 543 1044 393 1044 q 805 978 693 1044 q 978 793 917 913 q 1040 513 1040 674 q 979 235 1040 353 q 806 51 918 117 q 543 -14 694 -14 l 543 -14 m 543 203 q 672 272 633 203 q 710 508 710 342 q 671 756 710 681 q 543 831 632 831 q 413 756 453 831 q 374 508 374 681 q 412 272 374 342 q 543 203 450 203 l 543 203 m 376 1321 q 406 1338 386 1346 l 738 1201 q 749 1168 757 1193 l 728 1108 q 714 1090 722 1094 q 688 1090 706 1086 l 364 1168 q 338 1213 326 1178 l 376 1321 z "},"Ỏ":{"ha":1083,"x_min":43,"x_max":1040,"o":"m 543 -14 q 278 51 390 -14 q 104 234 165 115 q 43 513 43 353 q 106 793 43 674 q 281 978 168 913 q 543 1044 393 1044 q 805 978 693 1044 q 978 793 917 913 q 1040 513 1040 674 q 979 235 1040 353 q 806 51 918 117 q 543 -14 694 -14 l 543 -14 m 543 203 q 672 272 633 203 q 710 508 710 342 q 671 756 710 681 q 543 831 632 831 q 413 756 453 831 q 374 508 374 681 q 412 272 374 342 q 543 203 450 203 l 543 203 m 551 1133 q 524 1138 536 1122 l 485 1192 q 481 1206 479 1199 q 488 1217 483 1214 q 542 1260 525 1244 q 560 1299 560 1276 q 544 1322 560 1315 q 513 1328 528 1328 q 477 1322 494 1328 q 439 1306 460 1317 q 415 1315 425 1297 l 381 1381 q 390 1404 372 1397 q 456 1428 428 1418 q 514 1438 483 1438 q 624 1402 579 1438 q 669 1306 669 1367 q 635 1212 669 1253 q 551 1133 601 1171 z "},"Ơ":{"ha":1083,"x_min":43,"x_max":1040,"o":"m 543 -14 q 278 51 390 -14 q 104 234 165 115 q 43 513 43 353 q 106 793 43 674 q 281 978 168 913 q 543 1044 393 1044 q 805 978 693 1044 q 978 793 917 913 q 1040 513 1040 674 q 979 235 1040 353 q 806 51 918 117 q 543 -14 694 -14 l 543 -14 m 543 203 q 672 272 633 203 q 710 508 710 342 q 671 756 710 681 q 543 831 632 831 q 413 756 453 831 q 374 508 374 681 q 412 272 374 342 q 543 203 450 203 l 543 203 m 935 1113 q 954 1099 950 1113 q 951 1069 958 1085 q 876 976 922 1013 q 775 922 831 939 q 661 906 719 906 l 665 1029 q 740 1044 701 1029 q 800 1094 778 1058 q 817 1109 807 1106 q 835 1113 826 1113 l 935 1113 z "},"Ớ":{"ha":1083,"x_min":43,"x_max":1040,"o":"m 543 -14 q 278 51 390 -14 q 104 234 165 115 q 43 513 43 353 q 106 793 43 674 q 281 978 168 913 q 543 1044 393 1044 q 805 978 693 1044 q 978 793 917 913 q 1040 513 1040 674 q 979 235 1040 353 q 806 51 918 117 q 543 -14 694 -14 l 543 -14 m 543 203 q 672 272 633 203 q 710 508 710 342 q 671 756 710 681 q 543 831 632 831 q 413 756 453 831 q 374 508 374 681 q 412 272 374 342 q 543 203 450 203 l 543 203 m 935 1113 q 954 1099 950 1113 q 951 1069 958 1085 q 876 976 922 1013 q 775 922 831 939 q 661 906 719 906 l 665 1029 q 740 1044 701 1029 q 800 1094 778 1058 q 817 1109 807 1106 q 835 1113 826 1113 l 935 1113 m 710 1317 l 747 1208 q 721 1164 758 1174 l 397 1086 q 371 1086 379 1082 q 357 1104 363 1090 l 336 1164 q 347 1197 328 1189 l 681 1333 q 710 1317 700 1342 z "},"Ợ":{"ha":1083,"x_min":43,"x_max":1040,"o":"m 543 -14 q 278 51 390 -14 q 104 234 165 115 q 43 513 43 353 q 106 793 43 674 q 281 978 168 913 q 543 1044 393 1044 q 805 978 693 1044 q 978 793 917 913 q 1040 513 1040 674 q 979 235 1040 353 q 806 51 918 117 q 543 -14 694 -14 l 543 -14 m 543 203 q 672 272 633 203 q 710 508 710 342 q 671 756 710 681 q 543 831 632 831 q 413 756 453 831 q 374 508 374 681 q 412 272 374 342 q 543 203 450 203 l 543 203 m 935 1113 q 954 1099 950 1113 q 951 1069 958 1085 q 876 976 922 1013 q 775 922 831 939 q 661 906 719 906 l 665 1029 q 740 1044 701 1029 q 800 1094 778 1058 q 817 1109 807 1106 q 835 1113 826 1113 l 935 1113 m 647 -76 l 647 -199 q 640 -222 647 -214 q 614 -229 632 -229 l 468 -229 q 447 -222 453 -229 q 442 -203 442 -215 l 442 -79 q 460 -54 442 -54 l 629 -54 q 647 -76 647 -54 z "},"Ờ":{"ha":1083,"x_min":43,"x_max":1040,"o":"m 543 -14 q 278 51 390 -14 q 104 234 165 115 q 43 513 43 353 q 106 793 43 674 q 281 978 168 913 q 543 1044 393 1044 q 805 978 693 1044 q 978 793 917 913 q 1040 513 1040 674 q 979 235 1040 353 q 806 51 918 117 q 543 -14 694 -14 l 543 -14 m 543 203 q 672 272 633 203 q 710 508 710 342 q 671 756 710 681 q 543 831 632 831 q 413 756 453 831 q 374 508 374 681 q 412 272 374 342 q 543 203 450 203 l 543 203 m 935 1113 q 954 1099 950 1113 q 951 1069 958 1085 q 876 976 922 1013 q 775 922 831 939 q 661 906 719 906 l 665 1029 q 740 1044 701 1029 q 800 1094 778 1058 q 817 1109 807 1106 q 835 1113 826 1113 l 935 1113 m 376 1321 q 406 1338 386 1346 l 738 1201 q 749 1168 757 1193 l 728 1108 q 714 1090 722 1094 q 688 1090 706 1086 l 364 1168 q 338 1213 326 1178 l 376 1321 z "},"Ở":{"ha":1083,"x_min":43,"x_max":1040,"o":"m 543 -14 q 278 51 390 -14 q 104 234 165 115 q 43 513 43 353 q 106 793 43 674 q 281 978 168 913 q 543 1044 393 1044 q 805 978 693 1044 q 978 793 917 913 q 1040 513 1040 674 q 979 235 1040 353 q 806 51 918 117 q 543 -14 694 -14 l 543 -14 m 543 203 q 672 272 633 203 q 710 508 710 342 q 671 756 710 681 q 543 831 632 831 q 413 756 453 831 q 374 508 374 681 q 412 272 374 342 q 543 203 450 203 l 543 203 m 935 1113 q 954 1099 950 1113 q 951 1069 958 1085 q 876 976 922 1013 q 775 922 831 939 q 661 906 719 906 l 665 1029 q 740 1044 701 1029 q 800 1094 778 1058 q 817 1109 807 1106 q 835 1113 826 1113 l 935 1113 m 551 1133 q 524 1138 536 1122 l 485 1192 q 481 1206 479 1199 q 488 1217 483 1214 q 542 1260 525 1244 q 560 1299 560 1276 q 544 1322 560 1315 q 513 1328 528 1328 q 477 1322 494 1328 q 439 1306 460 1317 q 415 1315 425 1297 l 381 1381 q 390 1404 372 1397 q 456 1428 428 1418 q 514 1438 483 1438 q 624 1402 579 1438 q 669 1306 669 1367 q 635 1212 669 1253 q 551 1133 601 1171 z "},"Ỡ":{"ha":1083,"x_min":43,"x_max":1040,"o":"m 543 -14 q 278 51 390 -14 q 104 234 165 115 q 43 513 43 353 q 106 793 43 674 q 281 978 168 913 q 543 1044 393 1044 q 805 978 693 1044 q 978 793 917 913 q 1040 513 1040 674 q 979 235 1040 353 q 806 51 918 117 q 543 -14 694 -14 l 543 -14 m 543 203 q 672 272 633 203 q 710 508 710 342 q 671 756 710 681 q 543 831 632 831 q 413 756 453 831 q 374 508 374 681 q 412 272 374 342 q 543 203 450 203 l 543 203 m 935 1113 q 954 1099 950 1113 q 951 1069 958 1085 q 876 976 922 1013 q 775 922 831 939 q 661 906 719 906 l 665 1029 q 740 1044 701 1029 q 800 1094 778 1058 q 817 1109 807 1106 q 835 1113 826 1113 l 935 1113 m 797 1182 q 738 1153 775 1167 q 658 1140 701 1140 q 581 1151 618 1140 q 509 1173 544 1163 q 433 1183 474 1183 q 383 1176 404 1183 q 335 1149 363 1168 q 316 1142 324 1140 q 303 1160 308 1143 l 279 1235 q 276 1255 276 1246 q 290 1278 275 1264 q 347 1317 317 1300 q 426 1335 378 1335 q 511 1323 471 1335 q 588 1299 551 1311 q 657 1288 625 1288 q 718 1300 690 1288 q 764 1326 746 1313 q 785 1331 775 1333 q 797 1314 794 1329 l 817 1224 q 797 1182 822 1200 z "},"Ő":{"ha":1083,"x_min":43,"x_max":1040,"o":"m 543 -14 q 278 51 390 -14 q 104 234 165 115 q 43 513 43 353 q 106 793 43 674 q 281 978 168 913 q 543 1044 393 1044 q 805 978 693 1044 q 978 793 917 913 q 1040 513 1040 674 q 979 235 1040 353 q 806 51 918 117 q 543 -14 694 -14 l 543 -14 m 543 203 q 672 272 633 203 q 710 508 710 342 q 671 756 710 681 q 543 831 632 831 q 413 756 453 831 q 374 508 374 681 q 412 272 374 342 q 543 203 450 203 l 543 203 m 465 1326 l 535 1243 q 547 1216 546 1229 q 529 1192 549 1203 l 331 1081 q 306 1070 314 1071 q 286 1081 297 1069 l 240 1129 q 236 1164 219 1150 l 432 1329 q 465 1326 450 1346 m 769 1326 l 839 1243 q 851 1216 850 1229 q 833 1192 853 1203 l 635 1081 q 610 1070 618 1071 q 590 1081 601 1069 l 544 1129 q 540 1164 524 1150 l 736 1329 q 769 1326 754 1346 z "},"Ȏ":{"ha":1083,"x_min":43,"x_max":1040,"o":"m 543 -14 q 278 51 390 -14 q 104 234 165 115 q 43 513 43 353 q 106 793 43 674 q 281 978 168 913 q 543 1044 393 1044 q 805 978 693 1044 q 978 793 917 913 q 1040 513 1040 674 q 979 235 1040 353 q 806 51 918 117 q 543 -14 694 -14 l 543 -14 m 543 203 q 672 272 633 203 q 710 508 710 342 q 671 756 710 681 q 543 831 632 831 q 413 756 453 831 q 374 508 374 681 q 412 272 374 342 q 543 203 450 203 l 543 203 m 797 1118 l 689 1118 q 674 1121 681 1118 q 661 1136 668 1124 q 609 1183 643 1165 q 543 1201 575 1201 q 498 1193 521 1201 q 456 1170 475 1185 q 424 1138 438 1156 q 409 1122 415 1126 q 390 1118 403 1118 l 283 1118 q 270 1125 274 1118 q 268 1140 267 1132 q 327 1247 285 1207 q 426 1306 369 1288 q 543 1325 483 1325 q 658 1305 604 1325 q 752 1244 711 1285 q 815 1143 793 1204 q 797 1118 825 1118 z "},"Ō":{"ha":1083,"x_min":43,"x_max":1040,"o":"m 543 -14 q 278 51 390 -14 q 104 234 165 115 q 43 513 43 353 q 106 793 43 674 q 281 978 168 913 q 543 1044 393 1044 q 805 978 693 1044 q 978 793 917 913 q 1040 513 1040 674 q 979 235 1040 353 q 806 51 918 117 q 543 -14 694 -14 l 543 -14 m 543 203 q 672 272 633 203 q 710 508 710 342 q 671 756 710 681 q 543 831 632 831 q 413 756 453 831 q 374 508 374 681 q 412 272 374 342 q 543 203 450 203 l 543 203 m 826 1300 l 826 1188 q 786 1154 826 1154 l 286 1154 q 262 1162 268 1154 q 256 1185 256 1169 l 256 1297 q 278 1325 256 1325 l 804 1325 q 826 1300 826 1325 z "},"Ṓ":{"ha":1083,"x_min":43,"x_max":1040,"o":"m 543 -14 q 278 51 390 -14 q 104 234 165 115 q 43 513 43 353 q 106 793 43 674 q 281 978 168 913 q 543 1044 393 1044 q 805 978 693 1044 q 978 793 917 913 q 1040 513 1040 674 q 979 235 1040 353 q 806 51 918 117 q 543 -14 694 -14 l 543 -14 m 543 203 q 672 272 633 203 q 710 508 710 342 q 671 756 710 681 q 543 831 632 831 q 413 756 453 831 q 374 508 374 681 q 412 272 374 342 q 543 203 450 203 l 543 203 m 826 1300 l 826 1188 q 786 1154 826 1154 l 286 1154 q 262 1162 268 1154 q 256 1185 256 1169 l 256 1297 q 278 1325 256 1325 l 804 1325 q 826 1300 826 1325 m 710 1583 l 747 1475 q 721 1431 758 1440 l 397 1353 q 371 1353 379 1349 q 357 1371 363 1357 l 336 1431 q 347 1464 328 1456 l 681 1600 q 710 1583 700 1608 z "},"Ṑ":{"ha":1083,"x_min":43,"x_max":1040,"o":"m 543 -14 q 278 51 390 -14 q 104 234 165 115 q 43 513 43 353 q 106 793 43 674 q 281 978 168 913 q 543 1044 393 1044 q 805 978 693 1044 q 978 793 917 913 q 1040 513 1040 674 q 979 235 1040 353 q 806 51 918 117 q 543 -14 694 -14 l 543 -14 m 543 203 q 672 272 633 203 q 710 508 710 342 q 671 756 710 681 q 543 831 632 831 q 413 756 453 831 q 374 508 374 681 q 412 272 374 342 q 543 203 450 203 l 543 203 m 826 1300 l 826 1188 q 786 1154 826 1154 l 286 1154 q 262 1162 268 1154 q 256 1185 256 1169 l 256 1297 q 278 1325 256 1325 l 804 1325 q 826 1300 826 1325 m 376 1588 q 406 1604 386 1613 l 738 1468 q 749 1435 757 1460 l 728 1375 q 714 1357 722 1361 q 688 1357 706 1353 l 364 1435 q 338 1479 326 1444 l 376 1588 z "},"Ǫ":{"ha":1083,"x_min":43,"x_max":1040,"o":"m 543 -14 q 278 51 390 -14 q 104 234 165 115 q 43 513 43 353 q 106 793 43 674 q 281 978 168 913 q 543 1044 393 1044 q 805 978 693 1044 q 978 793 917 913 q 1040 513 1040 674 q 979 235 1040 353 q 806 51 918 117 q 543 -14 694 -14 l 543 -14 m 543 203 q 672 272 633 203 q 710 508 710 342 q 671 756 710 681 q 543 831 632 831 q 413 756 453 831 q 374 508 374 681 q 412 272 374 342 q 543 203 450 203 l 543 203 m 382 -121 q 407 -53 382 -85 q 513 8 432 -21 l 701 8 q 599 -37 624 -17 q 574 -82 574 -58 q 583 -112 574 -103 q 613 -122 593 -122 q 654 -116 636 -122 q 690 -100 672 -110 q 715 -115 715 -87 l 715 -187 q 701 -212 715 -204 q 642 -232 683 -222 q 550 -242 600 -242 q 428 -212 475 -242 q 382 -121 382 -183 z "},"Ø":{"ha":1092,"x_min":7,"x_max":1097,"o":"m 1078 953 q 1076 915 1097 933 l 971 813 q 1026 676 1007 751 q 1044 513 1044 600 q 983 235 1044 353 q 810 51 922 117 q 547 -14 699 -14 q 371 13 451 -14 q 228 88 290 39 l 149 10 q 119 -6 133 -6 q 89 10 106 -7 l 35 65 q 29 117 7 94 l 122 208 q 67 347 86 269 q 47 513 47 424 q 110 793 47 674 q 285 978 172 913 q 547 1044 397 1044 q 726 1017 644 1044 q 869 936 807 989 l 960 1024 q 1003 1031 985 1049 l 1078 953 l 1078 953 m 378 508 q 378 483 378 496 q 379 457 378 471 l 678 749 q 547 831 640 831 q 417 756 457 831 q 378 508 378 681 l 378 508 m 714 508 q 714 535 714 522 q 713 561 714 547 l 417 271 q 547 203 454 203 q 676 272 638 203 q 714 508 714 342 l 714 508 z "},"Ǿ":{"ha":1092,"x_min":7,"x_max":1097,"o":"m 1078 953 q 1076 915 1097 933 l 971 813 q 1026 676 1007 751 q 1044 513 1044 600 q 983 235 1044 353 q 810 51 922 117 q 547 -14 699 -14 q 371 13 451 -14 q 228 88 290 39 l 149 10 q 119 -6 133 -6 q 89 10 106 -7 l 35 65 q 29 117 7 94 l 122 208 q 67 347 86 269 q 47 513 47 424 q 110 793 47 674 q 285 978 172 913 q 547 1044 397 1044 q 726 1017 644 1044 q 869 936 807 989 l 960 1024 q 1003 1031 985 1049 l 1078 953 l 1078 953 m 378 508 q 378 483 378 496 q 379 457 378 471 l 678 749 q 547 831 640 831 q 417 756 457 831 q 378 508 378 681 l 378 508 m 714 508 q 714 535 714 522 q 713 561 714 547 l 417 271 q 547 203 454 203 q 676 272 638 203 q 714 508 714 342 l 714 508 m 714 1317 l 751 1208 q 725 1164 763 1174 l 401 1086 q 375 1086 383 1082 q 361 1104 367 1090 l 340 1164 q 351 1197 332 1189 l 685 1333 q 714 1317 704 1342 z "},"Õ":{"ha":1083,"x_min":43,"x_max":1040,"o":"m 543 -14 q 278 51 390 -14 q 104 234 165 115 q 43 513 43 353 q 106 793 43 674 q 281 978 168 913 q 543 1044 393 1044 q 805 978 693 1044 q 978 793 917 913 q 1040 513 1040 674 q 979 235 1040 353 q 806 51 918 117 q 543 -14 694 -14 l 543 -14 m 543 203 q 672 272 633 203 q 710 508 710 342 q 671 756 710 681 q 543 831 632 831 q 413 756 453 831 q 374 508 374 681 q 412 272 374 342 q 543 203 450 203 l 543 203 m 797 1182 q 738 1153 775 1167 q 658 1140 701 1140 q 581 1151 618 1140 q 509 1173 544 1163 q 433 1183 474 1183 q 383 1176 404 1183 q 335 1149 363 1168 q 316 1142 324 1140 q 303 1160 308 1143 l 279 1235 q 276 1255 276 1246 q 290 1278 275 1264 q 347 1317 317 1300 q 426 1335 378 1335 q 511 1323 471 1335 q 588 1299 551 1311 q 657 1288 625 1288 q 718 1300 690 1288 q 764 1326 746 1313 q 785 1331 775 1333 q 797 1314 794 1329 l 817 1224 q 797 1182 822 1200 z "},"Ṍ":{"ha":1083,"x_min":43,"x_max":1040,"o":"m 543 -14 q 278 51 390 -14 q 104 234 165 115 q 43 513 43 353 q 106 793 43 674 q 281 978 168 913 q 543 1044 393 1044 q 805 978 693 1044 q 978 793 917 913 q 1040 513 1040 674 q 979 235 1040 353 q 806 51 918 117 q 543 -14 694 -14 l 543 -14 m 543 203 q 672 272 633 203 q 710 508 710 342 q 671 756 710 681 q 543 831 632 831 q 413 756 453 831 q 374 508 374 681 q 412 272 374 342 q 543 203 450 203 l 543 203 m 797 1182 q 738 1153 775 1167 q 658 1140 701 1140 q 581 1151 618 1140 q 509 1173 544 1163 q 433 1183 474 1183 q 383 1176 404 1183 q 335 1149 363 1168 q 316 1142 324 1140 q 303 1160 308 1143 l 279 1235 q 276 1255 276 1246 q 290 1278 275 1264 q 347 1317 317 1300 q 426 1335 378 1335 q 511 1323 471 1335 q 588 1299 551 1311 q 657 1288 625 1288 q 718 1300 690 1288 q 764 1326 746 1313 q 785 1331 775 1333 q 797 1314 794 1329 l 817 1224 q 797 1182 822 1200 m 688 1610 l 725 1501 q 699 1457 736 1467 l 375 1379 q 349 1379 357 1375 q 335 1397 340 1383 l 314 1457 q 325 1490 306 1482 l 658 1626 q 688 1610 678 1635 z "},"Ṏ":{"ha":1083,"x_min":43,"x_max":1040,"o":"m 543 -14 q 278 51 390 -14 q 104 234 165 115 q 43 513 43 353 q 106 793 43 674 q 281 978 168 913 q 543 1044 393 1044 q 805 978 693 1044 q 978 793 917 913 q 1040 513 1040 674 q 979 235 1040 353 q 806 51 918 117 q 543 -14 694 -14 l 543 -14 m 543 203 q 672 272 633 203 q 710 508 710 342 q 671 756 710 681 q 543 831 632 831 q 413 756 453 831 q 374 508 374 681 q 412 272 374 342 q 543 203 450 203 l 543 203 m 797 1182 q 738 1153 775 1167 q 658 1140 701 1140 q 581 1151 618 1140 q 509 1173 544 1163 q 433 1183 474 1183 q 383 1176 404 1183 q 335 1149 363 1168 q 316 1142 324 1140 q 303 1160 308 1143 l 279 1235 q 276 1255 276 1246 q 290 1278 275 1264 q 347 1317 317 1300 q 426 1335 378 1335 q 511 1323 471 1335 q 588 1299 551 1311 q 657 1288 625 1288 q 718 1300 690 1288 q 764 1326 746 1313 q 785 1331 775 1333 q 797 1314 794 1329 l 817 1224 q 797 1182 822 1200 m 471 1593 l 471 1453 q 461 1427 471 1435 q 431 1419 451 1419 l 264 1419 q 240 1427 246 1419 q 233 1450 233 1435 l 233 1590 q 256 1618 233 1618 l 449 1618 q 471 1593 471 1618 m 804 1593 l 804 1453 q 794 1427 804 1435 q 764 1419 785 1419 l 597 1419 q 573 1427 579 1419 q 567 1450 567 1435 l 567 1590 q 589 1618 567 1618 l 782 1618 q 804 1593 804 1618 z "},"Ȭ":{"ha":1083,"x_min":43,"x_max":1040,"o":"m 543 -14 q 278 51 390 -14 q 104 234 165 115 q 43 513 43 353 q 106 793 43 674 q 281 978 168 913 q 543 1044 393 1044 q 805 978 693 1044 q 978 793 917 913 q 1040 513 1040 674 q 979 235 1040 353 q 806 51 918 117 q 543 -14 694 -14 l 543 -14 m 543 203 q 672 272 633 203 q 710 508 710 342 q 671 756 710 681 q 543 831 632 831 q 413 756 453 831 q 374 508 374 681 q 412 272 374 342 q 543 203 450 203 l 543 203 m 797 1182 q 738 1153 775 1167 q 658 1140 701 1140 q 581 1151 618 1140 q 509 1173 544 1163 q 433 1183 474 1183 q 383 1176 404 1183 q 335 1149 363 1168 q 316 1142 324 1140 q 303 1160 308 1143 l 279 1235 q 276 1255 276 1246 q 290 1278 275 1264 q 347 1317 317 1300 q 426 1335 378 1335 q 511 1323 471 1335 q 588 1299 551 1311 q 657 1288 625 1288 q 718 1300 690 1288 q 764 1326 746 1313 q 785 1331 775 1333 q 797 1314 794 1329 l 817 1224 q 797 1182 822 1200 m 804 1593 l 804 1481 q 764 1447 804 1447 l 264 1447 q 240 1455 246 1447 q 233 1478 233 1463 l 233 1590 q 256 1618 233 1618 l 782 1618 q 804 1593 804 1618 z "},"Œ":{"ha":1569,"x_min":43,"x_max":1524,"o":"m 1493 228 q 1524 201 1524 228 l 1524 31 q 1516 9 1524 18 q 1490 0 1508 0 l 725 0 q 711 11 711 0 l 711 36 q 625 0 681 14 q 504 -14 569 -14 q 265 51 369 -14 q 102 233 161 115 q 43 511 43 351 q 104 793 43 674 q 274 978 165 913 q 525 1044 382 1044 q 631 1034 581 1044 q 711 1000 681 1024 l 711 1021 q 725 1031 711 1031 l 1485 1031 q 1510 1001 1510 1031 l 1510 840 q 1474 803 1510 803 l 1057 803 q 1025 776 1025 803 l 1025 658 q 1050 629 1025 629 l 1300 629 q 1329 601 1329 629 l 1329 429 q 1324 413 1329 419 q 1304 406 1318 406 l 1047 406 q 1025 386 1025 406 l 1025 247 q 1042 228 1025 228 l 1493 228 l 1493 228 m 542 203 q 672 268 633 203 q 710 481 710 333 l 710 542 q 692 712 710 649 q 638 803 675 775 q 543 831 601 831 q 413 755 453 831 q 374 508 374 679 q 412 272 374 342 q 542 203 450 203 l 542 203 z "},"P":{"ha":1015,"x_min":72,"x_max":976,"o":"m 976 696 q 928 522 976 594 q 794 409 879 449 q 594 369 708 369 l 404 369 q 388 354 388 369 l 388 40 q 342 0 388 0 l 108 0 q 80 8 88 0 q 72 35 72 17 l 72 999 q 99 1031 72 1031 l 558 1031 q 767 994 672 1031 q 919 883 863 957 q 976 696 976 808 l 976 696 m 654 700 q 639 758 654 733 q 597 795 624 782 q 539 808 571 808 l 419 808 q 388 779 388 808 l 388 622 q 411 592 388 592 l 547 592 q 626 624 597 592 q 654 700 654 656 l 654 700 z "},"Þ":{"ha":1033,"x_min":72,"x_max":994,"o":"m 994 517 q 946 346 994 418 q 812 235 897 274 q 613 197 726 197 l 404 197 q 388 182 388 197 l 388 40 q 342 0 388 0 l 108 0 q 80 8 88 0 q 72 35 72 17 l 72 999 q 99 1031 72 1031 l 363 1031 q 388 1001 388 1031 l 388 861 q 401 844 388 844 l 576 844 q 785 808 690 844 q 938 699 881 772 q 994 517 994 626 l 994 517 m 672 521 q 639 595 672 568 q 557 622 606 622 l 419 622 q 388 593 388 622 l 388 450 q 411 419 388 419 l 565 419 q 644 449 615 419 q 672 521 672 479 l 672 521 z "},"Q":{"ha":1086,"x_min":43,"x_max":1042,"o":"m 43 513 q 106 793 43 674 q 281 978 168 913 q 543 1044 393 1044 q 806 978 693 1044 q 980 793 918 913 q 1042 513 1042 674 q 1003 288 1042 388 q 896 119 965 189 q 893 108 893 117 q 912 83 893 97 q 960 57 931 68 q 1018 42 989 46 q 1038 33 1033 40 q 1042 18 1042 25 l 1042 -135 q 1028 -169 1042 -161 q 981 -178 1014 -178 q 799 -134 876 -178 q 663 -14 722 -90 q 642 -8 657 -6 q 594 -12 617 -11 q 543 -14 571 -14 q 278 51 390 -14 q 104 234 165 115 q 43 513 43 353 l 43 513 m 374 510 q 412 272 374 342 q 543 203 450 203 q 673 272 635 203 q 711 510 711 342 q 672 756 711 682 q 543 831 633 831 q 413 756 453 831 q 374 510 374 682 l 374 510 z "},"R":{"ha":1026,"x_min":72,"x_max":986,"o":"m 974 44 q 973 13 981 26 q 949 0 965 0 l 679 0 q 642 29 650 0 l 511 388 q 468 410 503 410 l 404 410 q 391 403 394 410 q 388 394 388 397 l 388 40 q 342 0 388 0 l 108 0 q 80 8 88 0 q 72 35 72 17 l 72 999 q 99 1031 72 1031 l 563 1031 q 875 953 764 1031 q 986 736 986 876 q 963 615 986 671 q 898 520 939 560 q 804 460 857 481 q 799 433 790 454 l 974 44 l 974 44 m 550 617 q 631 644 603 617 q 660 717 660 672 q 624 797 660 769 q 542 825 589 825 l 419 825 q 388 797 388 825 l 388 646 q 411 617 388 617 l 550 617 l 550 617 z "},"Ŕ":{"ha":1026,"x_min":72,"x_max":986,"o":"m 974 44 q 973 13 981 26 q 949 0 965 0 l 679 0 q 642 29 650 0 l 511 388 q 468 410 503 410 l 404 410 q 391 403 394 410 q 388 394 388 397 l 388 40 q 342 0 388 0 l 108 0 q 80 8 88 0 q 72 35 72 17 l 72 999 q 99 1031 72 1031 l 563 1031 q 875 953 764 1031 q 986 736 986 876 q 963 615 986 671 q 898 520 939 560 q 804 460 857 481 q 799 433 790 454 l 974 44 l 974 44 m 550 617 q 631 644 603 617 q 660 717 660 672 q 624 797 660 769 q 542 825 589 825 l 419 825 q 388 797 388 825 l 388 646 q 411 617 388 617 l 550 617 l 550 617 m 665 1317 l 703 1208 q 676 1164 714 1174 l 353 1086 q 326 1086 335 1082 q 313 1104 318 1090 l 292 1164 q 303 1197 283 1189 l 636 1333 q 665 1317 656 1342 z "},"Ř":{"ha":1026,"x_min":72,"x_max":986,"o":"m 974 44 q 973 13 981 26 q 949 0 965 0 l 679 0 q 642 29 650 0 l 511 388 q 468 410 503 410 l 404 410 q 391 403 394 410 q 388 394 388 397 l 388 40 q 342 0 388 0 l 108 0 q 80 8 88 0 q 72 35 72 17 l 72 999 q 99 1031 72 1031 l 563 1031 q 875 953 764 1031 q 986 736 986 876 q 963 615 986 671 q 898 520 939 560 q 804 460 857 481 q 799 433 790 454 l 974 44 l 974 44 m 550 617 q 631 644 603 617 q 660 717 660 672 q 624 797 660 769 q 542 825 589 825 l 419 825 q 388 797 388 825 l 388 646 q 411 617 388 617 l 550 617 l 550 617 m 575 1314 q 591 1325 582 1324 q 613 1326 600 1326 l 758 1326 q 761 1301 785 1326 l 607 1125 q 592 1113 600 1118 q 568 1107 583 1107 l 436 1107 q 406 1113 417 1107 q 385 1128 394 1118 l 229 1301 q 220 1319 219 1313 q 233 1326 221 1326 l 371 1326 q 392 1326 385 1326 q 407 1314 399 1325 l 471 1238 q 496 1218 488 1217 q 518 1238 504 1219 l 575 1314 z "},"Ŗ":{"ha":1026,"x_min":72,"x_max":986,"o":"m 974 44 q 973 13 981 26 q 949 0 965 0 l 679 0 q 642 29 650 0 l 511 388 q 468 410 503 410 l 404 410 q 391 403 394 410 q 388 394 388 397 l 388 40 q 342 0 388 0 l 108 0 q 80 8 88 0 q 72 35 72 17 l 72 999 q 99 1031 72 1031 l 563 1031 q 875 953 764 1031 q 986 736 986 876 q 963 615 986 671 q 898 520 939 560 q 804 460 857 481 q 799 433 790 454 l 974 44 l 974 44 m 550 617 q 631 644 603 617 q 660 717 660 672 q 624 797 660 769 q 542 825 589 825 l 419 825 q 388 797 388 825 l 388 646 q 411 617 388 617 l 550 617 l 550 617 m 449 -342 q 432 -332 438 -342 q 432 -314 426 -322 l 478 -251 q 485 -224 489 -236 q 465 -211 481 -211 l 453 -211 q 421 -181 421 -211 l 421 -96 q 446 -68 421 -68 l 576 -68 q 600 -90 600 -68 l 600 -211 q 598 -222 600 -217 q 594 -229 596 -226 l 519 -322 q 502 -337 511 -333 q 474 -342 493 -342 l 449 -342 z "},"Ȑ":{"ha":1026,"x_min":72,"x_max":986,"o":"m 974 44 q 973 13 981 26 q 949 0 965 0 l 679 0 q 642 29 650 0 l 511 388 q 468 410 503 410 l 404 410 q 391 403 394 410 q 388 394 388 397 l 388 40 q 342 0 388 0 l 108 0 q 80 8 88 0 q 72 35 72 17 l 72 999 q 99 1031 72 1031 l 563 1031 q 875 953 764 1031 q 986 736 986 876 q 963 615 986 671 q 898 520 939 560 q 804 460 857 481 q 799 433 790 454 l 974 44 l 974 44 m 550 617 q 631 644 603 617 q 660 717 660 672 q 624 797 660 769 q 542 825 589 825 l 419 825 q 388 797 388 825 l 388 646 q 411 617 388 617 l 550 617 l 550 617 m 233 1326 q 267 1329 249 1346 l 461 1164 q 457 1129 478 1150 l 411 1081 q 392 1070 401 1069 q 367 1081 383 1071 l 168 1192 q 151 1216 150 1203 q 163 1243 151 1229 l 233 1326 m 538 1326 q 571 1329 553 1346 l 765 1164 q 761 1129 782 1150 l 715 1081 q 697 1070 706 1069 q 671 1081 688 1071 l 472 1192 q 455 1216 454 1203 q 467 1243 456 1229 l 538 1326 z "},"Ṛ":{"ha":1026,"x_min":72,"x_max":986,"o":"m 974 44 q 973 13 981 26 q 949 0 965 0 l 679 0 q 642 29 650 0 l 511 388 q 468 410 503 410 l 404 410 q 391 403 394 410 q 388 394 388 397 l 388 40 q 342 0 388 0 l 108 0 q 80 8 88 0 q 72 35 72 17 l 72 999 q 99 1031 72 1031 l 563 1031 q 875 953 764 1031 q 986 736 986 876 q 963 615 986 671 q 898 520 939 560 q 804 460 857 481 q 799 433 790 454 l 974 44 l 974 44 m 550 617 q 631 644 603 617 q 660 717 660 672 q 624 797 660 769 q 542 825 589 825 l 419 825 q 388 797 388 825 l 388 646 q 411 617 388 617 l 550 617 l 550 617 m 614 -76 l 614 -199 q 606 -222 614 -214 q 581 -229 599 -229 l 435 -229 q 414 -222 419 -229 q 408 -203 408 -215 l 408 -79 q 426 -54 408 -54 l 596 -54 q 614 -76 614 -54 z "},"Ȓ":{"ha":1026,"x_min":72,"x_max":986,"o":"m 974 44 q 973 13 981 26 q 949 0 965 0 l 679 0 q 642 29 650 0 l 511 388 q 468 410 503 410 l 404 410 q 391 403 394 410 q 388 394 388 397 l 388 40 q 342 0 388 0 l 108 0 q 80 8 88 0 q 72 35 72 17 l 72 999 q 99 1031 72 1031 l 563 1031 q 875 953 764 1031 q 986 736 986 876 q 963 615 986 671 q 898 520 939 560 q 804 460 857 481 q 799 433 790 454 l 974 44 l 974 44 m 550 617 q 631 644 603 617 q 660 717 660 672 q 624 797 660 769 q 542 825 589 825 l 419 825 q 388 797 388 825 l 388 646 q 411 617 388 617 l 550 617 l 550 617 m 753 1118 l 644 1118 q 630 1121 636 1118 q 617 1136 624 1124 q 565 1183 599 1165 q 499 1201 531 1201 q 453 1193 476 1201 q 412 1170 431 1185 q 379 1138 393 1156 q 365 1122 371 1126 q 346 1118 358 1118 l 239 1118 q 226 1125 229 1118 q 224 1140 222 1132 q 283 1247 240 1207 q 382 1306 325 1288 q 499 1325 439 1325 q 613 1305 560 1325 q 708 1244 667 1285 q 771 1143 749 1204 q 753 1118 781 1118 z "},"Ṟ":{"ha":1026,"x_min":72,"x_max":986,"o":"m 974 44 q 973 13 981 26 q 949 0 965 0 l 679 0 q 642 29 650 0 l 511 388 q 468 410 503 410 l 404 410 q 391 403 394 410 q 388 394 388 397 l 388 40 q 342 0 388 0 l 108 0 q 80 8 88 0 q 72 35 72 17 l 72 999 q 99 1031 72 1031 l 563 1031 q 875 953 764 1031 q 986 736 986 876 q 963 615 986 671 q 898 520 939 560 q 804 460 857 481 q 799 433 790 454 l 974 44 l 974 44 m 550 617 q 631 644 603 617 q 660 717 660 672 q 624 797 660 769 q 542 825 589 825 l 419 825 q 388 797 388 825 l 388 646 q 411 617 388 617 l 550 617 l 550 617 m 763 -83 l 763 -211 q 717 -250 763 -250 l 296 -250 q 267 -242 275 -250 q 260 -215 260 -233 l 260 -87 q 286 -56 260 -56 l 738 -56 q 763 -83 763 -56 z "},"S":{"ha":974,"x_min":31,"x_max":936,"o":"m 686 754 q 624 806 661 782 q 504 829 586 829 q 394 807 426 829 q 363 758 363 785 q 370 733 363 746 q 397 708 378 719 q 451 688 417 696 l 682 628 q 874 514 813 596 q 936 325 936 432 q 882 146 936 222 q 728 28 828 69 q 492 -14 629 -14 q 299 9 390 -14 q 140 74 208 32 q 39 169 72 115 q 32 194 31 185 q 47 215 33 204 l 190 314 q 222 324 210 326 q 243 311 235 322 q 304 247 274 272 q 374 211 335 222 q 468 200 414 200 q 590 221 544 200 q 636 281 636 242 q 626 312 636 297 q 598 338 617 326 q 549 356 579 349 l 338 407 q 193 473 254 428 q 99 581 132 518 q 65 715 65 643 q 117 881 65 806 q 266 1000 169 956 q 493 1044 363 1044 q 652 1026 576 1044 q 788 974 728 1007 q 879 894 847 940 q 890 874 886 885 q 879 853 893 864 l 728 743 q 710 738 718 736 q 686 754 701 740 l 686 754 z "},"Ś":{"ha":974,"x_min":31,"x_max":936,"o":"m 686 754 q 624 806 661 782 q 504 829 586 829 q 394 807 426 829 q 363 758 363 785 q 370 733 363 746 q 397 708 378 719 q 451 688 417 696 l 682 628 q 874 514 813 596 q 936 325 936 432 q 882 146 936 222 q 728 28 828 69 q 492 -14 629 -14 q 299 9 390 -14 q 140 74 208 32 q 39 169 72 115 q 32 194 31 185 q 47 215 33 204 l 190 314 q 222 324 210 326 q 243 311 235 322 q 304 247 274 272 q 374 211 335 222 q 468 200 414 200 q 590 221 544 200 q 636 281 636 242 q 626 312 636 297 q 598 338 617 326 q 549 356 579 349 l 338 407 q 193 473 254 428 q 99 581 132 518 q 65 715 65 643 q 117 881 65 806 q 266 1000 169 956 q 493 1044 363 1044 q 652 1026 576 1044 q 788 974 728 1007 q 879 894 847 940 q 890 874 886 885 q 879 853 893 864 l 728 743 q 710 738 718 736 q 686 754 701 740 l 686 754 m 661 1317 l 699 1208 q 672 1164 710 1174 l 349 1086 q 322 1086 331 1082 q 308 1104 314 1090 l 288 1164 q 299 1197 279 1189 l 632 1333 q 661 1317 651 1342 z "},"Ṥ":{"ha":974,"x_min":31,"x_max":936,"o":"m 686 754 q 624 806 661 782 q 504 829 586 829 q 394 807 426 829 q 363 758 363 785 q 370 733 363 746 q 397 708 378 719 q 451 688 417 696 l 682 628 q 874 514 813 596 q 936 325 936 432 q 882 146 936 222 q 728 28 828 69 q 492 -14 629 -14 q 299 9 390 -14 q 140 74 208 32 q 39 169 72 115 q 32 194 31 185 q 47 215 33 204 l 190 314 q 222 324 210 326 q 243 311 235 322 q 304 247 274 272 q 374 211 335 222 q 468 200 414 200 q 590 221 544 200 q 636 281 636 242 q 626 312 636 297 q 598 338 617 326 q 549 356 579 349 l 338 407 q 193 473 254 428 q 99 581 132 518 q 65 715 65 643 q 117 881 65 806 q 266 1000 169 956 q 493 1044 363 1044 q 652 1026 576 1044 q 788 974 728 1007 q 879 894 847 940 q 890 874 886 885 q 879 853 893 864 l 728 743 q 710 738 718 736 q 686 754 701 740 l 686 754 m 661 1317 l 699 1208 q 672 1164 710 1174 l 349 1086 q 322 1086 331 1082 q 308 1104 314 1090 l 288 1164 q 299 1197 279 1189 l 632 1333 q 661 1317 651 1342 m 632 1558 l 632 1394 q 621 1364 632 1374 q 586 1354 610 1354 l 390 1354 q 362 1363 369 1354 q 354 1390 354 1372 l 354 1556 q 381 1588 354 1588 l 607 1588 q 632 1558 632 1588 z "},"Š":{"ha":974,"x_min":31,"x_max":936,"o":"m 686 754 q 624 806 661 782 q 504 829 586 829 q 394 807 426 829 q 363 758 363 785 q 370 733 363 746 q 397 708 378 719 q 451 688 417 696 l 682 628 q 874 514 813 596 q 936 325 936 432 q 882 146 936 222 q 728 28 828 69 q 492 -14 629 -14 q 299 9 390 -14 q 140 74 208 32 q 39 169 72 115 q 32 194 31 185 q 47 215 33 204 l 190 314 q 222 324 210 326 q 243 311 235 322 q 304 247 274 272 q 374 211 335 222 q 468 200 414 200 q 590 221 544 200 q 636 281 636 242 q 626 312 636 297 q 598 338 617 326 q 549 356 579 349 l 338 407 q 193 473 254 428 q 99 581 132 518 q 65 715 65 643 q 117 881 65 806 q 266 1000 169 956 q 493 1044 363 1044 q 652 1026 576 1044 q 788 974 728 1007 q 879 894 847 940 q 890 874 886 885 q 879 853 893 864 l 728 743 q 710 738 718 736 q 686 754 701 740 l 686 754 m 571 1314 q 587 1325 578 1324 q 608 1326 596 1326 l 754 1326 q 757 1301 781 1326 l 603 1125 q 588 1113 596 1118 q 564 1107 579 1107 l 432 1107 q 401 1113 413 1107 q 381 1128 390 1118 l 225 1301 q 216 1319 215 1313 q 229 1326 217 1326 l 367 1326 q 388 1326 381 1326 q 403 1314 394 1325 l 467 1238 q 492 1218 483 1217 q 514 1238 500 1219 l 571 1314 z "},"Ṧ":{"ha":974,"x_min":31,"x_max":936,"o":"m 686 754 q 624 806 661 782 q 504 829 586 829 q 394 807 426 829 q 363 758 363 785 q 370 733 363 746 q 397 708 378 719 q 451 688 417 696 l 682 628 q 874 514 813 596 q 936 325 936 432 q 882 146 936 222 q 728 28 828 69 q 492 -14 629 -14 q 299 9 390 -14 q 140 74 208 32 q 39 169 72 115 q 32 194 31 185 q 47 215 33 204 l 190 314 q 222 324 210 326 q 243 311 235 322 q 304 247 274 272 q 374 211 335 222 q 468 200 414 200 q 590 221 544 200 q 636 281 636 242 q 626 312 636 297 q 598 338 617 326 q 549 356 579 349 l 338 407 q 193 473 254 428 q 99 581 132 518 q 65 715 65 643 q 117 881 65 806 q 266 1000 169 956 q 493 1044 363 1044 q 652 1026 576 1044 q 788 974 728 1007 q 879 894 847 940 q 890 874 886 885 q 879 853 893 864 l 728 743 q 710 738 718 736 q 686 754 701 740 l 686 754 m 571 1314 q 587 1325 578 1324 q 608 1326 596 1326 l 754 1326 q 757 1301 781 1326 l 603 1125 q 588 1113 596 1118 q 564 1107 579 1107 l 432 1107 q 401 1113 413 1107 q 381 1128 390 1118 l 225 1301 q 216 1319 215 1313 q 229 1326 217 1326 l 367 1326 q 388 1326 381 1326 q 403 1314 394 1325 l 467 1238 q 492 1218 483 1217 q 514 1238 500 1219 l 571 1314 m 631 1578 l 631 1414 q 619 1383 631 1393 q 585 1374 608 1374 l 389 1374 q 360 1383 368 1374 q 353 1410 353 1392 l 353 1575 q 379 1607 353 1607 l 606 1607 q 631 1578 631 1607 z "},"Ş":{"ha":974,"x_min":31,"x_max":936,"o":"m 686 754 q 624 806 661 782 q 504 829 586 829 q 394 807 426 829 q 363 758 363 785 q 370 733 363 746 q 397 708 378 719 q 451 688 417 696 l 682 628 q 874 514 813 596 q 936 325 936 432 q 882 146 936 222 q 728 28 828 69 q 492 -14 629 -14 q 299 9 390 -14 q 140 74 208 32 q 39 169 72 115 q 32 194 31 185 q 47 215 33 204 l 190 314 q 222 324 210 326 q 243 311 235 322 q 304 247 274 272 q 374 211 335 222 q 468 200 414 200 q 590 221 544 200 q 636 281 636 242 q 626 312 636 297 q 598 338 617 326 q 549 356 579 349 l 338 407 q 193 473 254 428 q 99 581 132 518 q 65 715 65 643 q 117 881 65 806 q 266 1000 169 956 q 493 1044 363 1044 q 652 1026 576 1044 q 788 974 728 1007 q 879 894 847 940 q 890 874 886 885 q 879 853 893 864 l 728 743 q 710 738 718 736 q 686 754 701 740 l 686 754 m 685 -190 q 659 -255 685 -228 q 592 -297 633 -282 q 500 -312 550 -312 q 408 -305 454 -312 q 324 -278 363 -297 q 315 -256 310 -268 l 339 -199 q 356 -192 343 -187 q 408 -214 379 -204 q 465 -224 438 -224 q 513 -214 494 -224 q 531 -186 531 -204 q 503 -147 531 -161 q 404 -132 476 -132 q 390 -129 394 -132 q 390 -115 385 -126 l 443 7 l 556 7 l 529 -61 q 538 -74 524 -74 q 624 -92 592 -74 q 671 -137 657 -110 q 685 -190 685 -164 z "},"Ŝ":{"ha":974,"x_min":31,"x_max":936,"o":"m 686 754 q 624 806 661 782 q 504 829 586 829 q 394 807 426 829 q 363 758 363 785 q 370 733 363 746 q 397 708 378 719 q 451 688 417 696 l 682 628 q 874 514 813 596 q 936 325 936 432 q 882 146 936 222 q 728 28 828 69 q 492 -14 629 -14 q 299 9 390 -14 q 140 74 208 32 q 39 169 72 115 q 32 194 31 185 q 47 215 33 204 l 190 314 q 222 324 210 326 q 243 311 235 322 q 304 247 274 272 q 374 211 335 222 q 468 200 414 200 q 590 221 544 200 q 636 281 636 242 q 626 312 636 297 q 598 338 617 326 q 549 356 579 349 l 338 407 q 193 473 254 428 q 99 581 132 518 q 65 715 65 643 q 117 881 65 806 q 266 1000 169 956 q 493 1044 363 1044 q 652 1026 576 1044 q 788 974 728 1007 q 879 894 847 940 q 890 874 886 885 q 879 853 893 864 l 728 743 q 710 738 718 736 q 686 754 701 740 l 686 754 m 571 1133 l 514 1208 q 492 1228 500 1228 q 467 1208 485 1228 l 403 1133 q 387 1122 393 1124 q 367 1121 381 1121 l 229 1121 q 216 1128 217 1121 q 225 1146 215 1135 l 381 1318 q 401 1334 390 1329 q 432 1339 413 1339 l 564 1339 q 588 1333 579 1339 q 603 1321 596 1328 l 757 1146 q 754 1121 781 1121 l 608 1121 q 587 1122 596 1121 q 571 1133 578 1124 z "},"Ș":{"ha":974,"x_min":31,"x_max":936,"o":"m 686 754 q 624 806 661 782 q 504 829 586 829 q 394 807 426 829 q 363 758 363 785 q 370 733 363 746 q 397 708 378 719 q 451 688 417 696 l 682 628 q 874 514 813 596 q 936 325 936 432 q 882 146 936 222 q 728 28 828 69 q 492 -14 629 -14 q 299 9 390 -14 q 140 74 208 32 q 39 169 72 115 q 32 194 31 185 q 47 215 33 204 l 190 314 q 222 324 210 326 q 243 311 235 322 q 304 247 274 272 q 374 211 335 222 q 468 200 414 200 q 590 221 544 200 q 636 281 636 242 q 626 312 636 297 q 598 338 617 326 q 549 356 579 349 l 338 407 q 193 473 254 428 q 99 581 132 518 q 65 715 65 643 q 117 881 65 806 q 266 1000 169 956 q 493 1044 363 1044 q 652 1026 576 1044 q 788 974 728 1007 q 879 894 847 940 q 890 874 886 885 q 879 853 893 864 l 728 743 q 710 738 718 736 q 686 754 701 740 l 686 754 m 431 -342 q 414 -332 419 -342 q 414 -314 408 -322 l 460 -251 q 467 -224 471 -236 q 447 -211 463 -211 l 435 -211 q 403 -181 403 -211 l 403 -96 q 428 -68 403 -68 l 558 -68 q 582 -90 582 -68 l 582 -211 q 580 -222 582 -217 q 576 -229 578 -226 l 501 -322 q 484 -337 493 -333 q 456 -342 475 -342 l 431 -342 z "},"Ṡ":{"ha":974,"x_min":31,"x_max":936,"o":"m 686 754 q 624 806 661 782 q 504 829 586 829 q 394 807 426 829 q 363 758 363 785 q 370 733 363 746 q 397 708 378 719 q 451 688 417 696 l 682 628 q 874 514 813 596 q 936 325 936 432 q 882 146 936 222 q 728 28 828 69 q 492 -14 629 -14 q 299 9 390 -14 q 140 74 208 32 q 39 169 72 115 q 32 194 31 185 q 47 215 33 204 l 190 314 q 222 324 210 326 q 243 311 235 322 q 304 247 274 272 q 374 211 335 222 q 468 200 414 200 q 590 221 544 200 q 636 281 636 242 q 626 312 636 297 q 598 338 617 326 q 549 356 579 349 l 338 407 q 193 473 254 428 q 99 581 132 518 q 65 715 65 643 q 117 881 65 806 q 266 1000 169 956 q 493 1044 363 1044 q 652 1026 576 1044 q 788 974 728 1007 q 879 894 847 940 q 890 874 886 885 q 879 853 893 864 l 728 743 q 710 738 718 736 q 686 754 701 740 l 686 754 m 632 1296 l 632 1132 q 621 1101 632 1111 q 586 1092 610 1092 l 390 1092 q 362 1101 369 1092 q 354 1128 354 1110 l 354 1293 q 381 1325 354 1325 l 607 1325 q 632 1296 632 1325 z "},"Ṣ":{"ha":974,"x_min":31,"x_max":936,"o":"m 686 754 q 624 806 661 782 q 504 829 586 829 q 394 807 426 829 q 363 758 363 785 q 370 733 363 746 q 397 708 378 719 q 451 688 417 696 l 682 628 q 874 514 813 596 q 936 325 936 432 q 882 146 936 222 q 728 28 828 69 q 492 -14 629 -14 q 299 9 390 -14 q 140 74 208 32 q 39 169 72 115 q 32 194 31 185 q 47 215 33 204 l 190 314 q 222 324 210 326 q 243 311 235 322 q 304 247 274 272 q 374 211 335 222 q 468 200 414 200 q 590 221 544 200 q 636 281 636 242 q 626 312 636 297 q 598 338 617 326 q 549 356 579 349 l 338 407 q 193 473 254 428 q 99 581 132 518 q 65 715 65 643 q 117 881 65 806 q 266 1000 169 956 q 493 1044 363 1044 q 652 1026 576 1044 q 788 974 728 1007 q 879 894 847 940 q 890 874 886 885 q 879 853 893 864 l 728 743 q 710 738 718 736 q 686 754 701 740 l 686 754 m 596 -76 l 596 -199 q 588 -222 596 -214 q 563 -229 581 -229 l 417 -229 q 396 -222 401 -229 q 390 -203 390 -215 l 390 -79 q 408 -54 390 -54 l 578 -54 q 596 -76 596 -54 z "},"Ṩ":{"ha":974,"x_min":31,"x_max":936,"o":"m 686 754 q 624 806 661 782 q 504 829 586 829 q 394 807 426 829 q 363 758 363 785 q 370 733 363 746 q 397 708 378 719 q 451 688 417 696 l 682 628 q 874 514 813 596 q 936 325 936 432 q 882 146 936 222 q 728 28 828 69 q 492 -14 629 -14 q 299 9 390 -14 q 140 74 208 32 q 39 169 72 115 q 32 194 31 185 q 47 215 33 204 l 190 314 q 222 324 210 326 q 243 311 235 322 q 304 247 274 272 q 374 211 335 222 q 468 200 414 200 q 590 221 544 200 q 636 281 636 242 q 626 312 636 297 q 598 338 617 326 q 549 356 579 349 l 338 407 q 193 473 254 428 q 99 581 132 518 q 65 715 65 643 q 117 881 65 806 q 266 1000 169 956 q 493 1044 363 1044 q 652 1026 576 1044 q 788 974 728 1007 q 879 894 847 940 q 890 874 886 885 q 879 853 893 864 l 728 743 q 710 738 718 736 q 686 754 701 740 l 686 754 m 596 -76 l 596 -199 q 588 -222 596 -214 q 563 -229 581 -229 l 417 -229 q 396 -222 401 -229 q 390 -203 390 -215 l 390 -79 q 408 -54 390 -54 l 578 -54 q 596 -76 596 -54 m 632 1296 l 632 1132 q 621 1101 632 1111 q 586 1092 610 1092 l 390 1092 q 362 1101 369 1092 q 354 1128 354 1110 l 354 1293 q 381 1325 354 1325 l 607 1325 q 632 1296 632 1325 z "},"ẞ":{"ha":1057,"x_min":72,"x_max":1017,"o":"m 636 -14 q 511 -4 565 -14 q 432 28 457 6 q 419 53 419 39 q 425 81 419 67 l 472 213 q 488 228 478 226 q 508 225 499 231 q 547 210 528 215 q 586 204 567 206 q 625 203 606 203 q 695 233 669 203 q 721 315 721 264 q 692 388 721 358 q 615 418 664 418 l 540 418 q 511 442 511 418 l 511 608 q 517 629 511 624 l 629 769 q 615 792 647 792 l 382 792 q 360 771 360 792 l 360 40 q 314 0 360 0 l 110 0 q 80 8 88 0 q 72 35 72 17 l 72 999 q 99 1031 72 1031 l 944 1031 q 971 1004 971 1031 l 971 863 q 966 835 971 847 q 947 806 961 822 l 699 511 l 656 626 q 871 574 792 615 q 983 468 950 533 q 1017 321 1017 403 q 972 135 1017 210 q 842 23 928 60 q 636 -14 757 -14 z "},"T":{"ha":978,"x_min":39,"x_max":939,"o":"m 39 999 q 47 1022 39 1013 q 74 1031 56 1031 l 904 1031 q 931 1022 922 1031 q 939 999 939 1013 l 939 833 q 908 807 939 807 l 663 807 q 646 793 646 807 l 646 31 q 619 0 646 0 l 356 0 q 331 28 331 0 l 331 788 q 315 807 331 807 l 71 807 q 39 833 39 807 l 39 999 z "},"Ŧ":{"ha":978,"x_min":39,"x_max":939,"o":"m 769 429 q 724 390 769 390 l 197 390 q 169 399 176 390 q 161 425 161 407 l 161 554 q 188 586 161 586 l 744 586 q 769 558 769 586 l 769 429 m 39 999 q 47 1022 39 1013 q 74 1031 56 1031 l 904 1031 q 931 1022 922 1031 q 939 999 939 1013 l 939 833 q 908 807 939 807 l 663 807 q 646 793 646 807 l 646 31 q 619 0 646 0 l 356 0 q 331 28 331 0 l 331 788 q 315 807 331 807 l 71 807 q 39 833 39 807 l 39 999 z "},"Ť":{"ha":978,"x_min":39,"x_max":939,"o":"m 39 999 q 47 1022 39 1013 q 74 1031 56 1031 l 904 1031 q 931 1022 922 1031 q 939 999 939 1013 l 939 833 q 908 807 939 807 l 663 807 q 646 793 646 807 l 646 31 q 619 0 646 0 l 356 0 q 331 28 331 0 l 331 788 q 315 807 331 807 l 71 807 q 39 833 39 807 l 39 999 m 567 1314 q 583 1325 574 1324 q 604 1326 592 1326 l 750 1326 q 753 1301 776 1326 l 599 1125 q 583 1113 592 1118 q 560 1107 575 1107 l 428 1107 q 397 1113 408 1107 q 376 1128 386 1118 l 221 1301 q 212 1319 211 1313 q 225 1326 213 1326 l 363 1326 q 383 1326 376 1326 q 399 1314 390 1325 l 463 1238 q 488 1218 479 1217 q 510 1238 496 1219 l 567 1314 z "},"Ţ":{"ha":978,"x_min":39,"x_max":939,"o":"m 39 999 q 47 1022 39 1013 q 74 1031 56 1031 l 904 1031 q 931 1022 922 1031 q 939 999 939 1013 l 939 833 q 908 807 939 807 l 663 807 q 646 793 646 807 l 646 31 q 619 0 646 0 l 356 0 q 331 28 331 0 l 331 788 q 315 807 331 807 l 71 807 q 39 833 39 807 l 39 999 m 681 -190 q 655 -255 681 -228 q 588 -297 629 -282 q 496 -312 546 -312 q 404 -305 450 -312 q 319 -278 358 -297 q 311 -256 306 -268 l 335 -199 q 351 -192 339 -187 q 404 -214 375 -204 q 461 -224 433 -224 q 508 -214 490 -224 q 526 -186 526 -204 q 499 -147 526 -161 q 400 -132 472 -132 q 385 -129 390 -132 q 386 -115 381 -126 l 439 7 l 551 7 l 525 -61 q 533 -74 519 -74 q 620 -92 588 -74 q 667 -137 653 -110 q 681 -190 681 -164 z "},"Ț":{"ha":978,"x_min":39,"x_max":939,"o":"m 39 999 q 47 1022 39 1013 q 74 1031 56 1031 l 904 1031 q 931 1022 922 1031 q 939 999 939 1013 l 939 833 q 908 807 939 807 l 663 807 q 646 793 646 807 l 646 31 q 619 0 646 0 l 356 0 q 331 28 331 0 l 331 788 q 315 807 331 807 l 71 807 q 39 833 39 807 l 39 999 m 426 -342 q 410 -332 415 -342 q 410 -314 404 -322 l 456 -251 q 463 -224 467 -236 q 443 -211 458 -211 l 431 -211 q 399 -181 399 -211 l 399 -96 q 424 -68 399 -68 l 554 -68 q 578 -90 578 -68 l 578 -211 q 576 -222 578 -217 q 572 -229 574 -226 l 497 -322 q 480 -337 489 -333 q 451 -342 471 -342 l 426 -342 z "},"Ṭ":{"ha":978,"x_min":39,"x_max":939,"o":"m 39 999 q 47 1022 39 1013 q 74 1031 56 1031 l 904 1031 q 931 1022 922 1031 q 939 999 939 1013 l 939 833 q 908 807 939 807 l 663 807 q 646 793 646 807 l 646 31 q 619 0 646 0 l 356 0 q 331 28 331 0 l 331 788 q 315 807 331 807 l 71 807 q 39 833 39 807 l 39 999 m 592 -76 l 592 -199 q 584 -222 592 -214 q 558 -229 576 -229 l 413 -229 q 392 -222 397 -229 q 386 -203 386 -215 l 386 -79 q 404 -54 386 -54 l 574 -54 q 592 -76 592 -54 z "},"Ṯ":{"ha":978,"x_min":39,"x_max":939,"o":"m 39 999 q 47 1022 39 1013 q 74 1031 56 1031 l 904 1031 q 931 1022 922 1031 q 939 999 939 1013 l 939 833 q 908 807 939 807 l 663 807 q 646 793 646 807 l 646 31 q 619 0 646 0 l 356 0 q 331 28 331 0 l 331 788 q 315 807 331 807 l 71 807 q 39 833 39 807 l 39 999 m 740 -83 l 740 -211 q 694 -250 740 -250 l 274 -250 q 245 -242 253 -250 q 238 -215 238 -233 l 238 -87 q 264 -56 238 -56 l 715 -56 q 740 -83 740 -56 z "},"U":{"ha":1011,"x_min":61,"x_max":950,"o":"m 950 407 q 894 155 950 247 q 739 24 839 63 q 506 -14 639 -14 q 242 38 339 -14 q 103 190 144 89 q 61 435 61 290 l 61 999 q 88 1031 61 1031 l 351 1031 q 376 1001 376 1031 l 376 401 q 417 251 376 296 q 529 207 458 207 q 609 224 572 207 q 668 285 646 242 q 690 406 690 329 l 690 999 q 717 1031 690 1031 l 925 1031 q 950 1001 950 1031 l 950 407 l 950 407 z "},"Ú":{"ha":1011,"x_min":61,"x_max":950,"o":"m 950 407 q 894 155 950 247 q 739 24 839 63 q 506 -14 639 -14 q 242 38 339 -14 q 103 190 144 89 q 61 435 61 290 l 61 999 q 88 1031 61 1031 l 351 1031 q 376 1001 376 1031 l 376 401 q 417 251 376 296 q 529 207 458 207 q 609 224 572 207 q 668 285 646 242 q 690 406 690 329 l 690 999 q 717 1031 690 1031 l 925 1031 q 950 1001 950 1031 l 950 407 l 950 407 m 697 1317 l 735 1208 q 708 1164 746 1174 l 385 1086 q 358 1086 367 1082 q 344 1104 350 1090 l 324 1164 q 335 1197 315 1189 l 668 1333 q 697 1317 688 1342 z "},"Ŭ":{"ha":1011,"x_min":61,"x_max":950,"o":"m 950 407 q 894 155 950 247 q 739 24 839 63 q 506 -14 639 -14 q 242 38 339 -14 q 103 190 144 89 q 61 435 61 290 l 61 999 q 88 1031 61 1031 l 351 1031 q 376 1001 376 1031 l 376 401 q 417 251 376 296 q 529 207 458 207 q 609 224 572 207 q 668 285 646 242 q 690 406 690 329 l 690 999 q 717 1031 690 1031 l 925 1031 q 950 1001 950 1031 l 950 407 l 950 407 m 785 1325 q 803 1300 813 1325 q 740 1199 781 1239 q 645 1138 699 1158 q 531 1118 592 1118 q 414 1137 471 1118 q 315 1197 357 1156 q 256 1303 272 1238 q 258 1318 254 1311 q 271 1325 261 1325 l 378 1325 q 397 1321 390 1325 q 411 1306 403 1317 q 444 1273 425 1288 q 485 1250 463 1258 q 531 1242 508 1242 q 597 1260 563 1242 q 649 1307 631 1278 q 662 1322 656 1319 q 676 1325 668 1325 l 785 1325 z "},"Û":{"ha":1011,"x_min":61,"x_max":950,"o":"m 950 407 q 894 155 950 247 q 739 24 839 63 q 506 -14 639 -14 q 242 38 339 -14 q 103 190 144 89 q 61 435 61 290 l 61 999 q 88 1031 61 1031 l 351 1031 q 376 1001 376 1031 l 376 401 q 417 251 376 296 q 529 207 458 207 q 609 224 572 207 q 668 285 646 242 q 690 406 690 329 l 690 999 q 717 1031 690 1031 l 925 1031 q 950 1001 950 1031 l 950 407 l 950 407 m 607 1133 l 550 1208 q 528 1228 536 1228 q 503 1208 521 1228 l 439 1133 q 423 1122 429 1124 q 403 1121 417 1121 l 265 1121 q 252 1128 253 1121 q 261 1146 251 1135 l 417 1318 q 438 1334 426 1329 q 468 1339 449 1339 l 600 1339 q 624 1333 615 1339 q 639 1321 632 1328 l 793 1146 q 790 1121 817 1121 l 644 1121 q 623 1122 632 1121 q 607 1133 614 1124 z "},"Ȕ":{"ha":1011,"x_min":61,"x_max":950,"o":"m 950 407 q 894 155 950 247 q 739 24 839 63 q 506 -14 639 -14 q 242 38 339 -14 q 103 190 144 89 q 61 435 61 290 l 61 999 q 88 1031 61 1031 l 351 1031 q 376 1001 376 1031 l 376 401 q 417 251 376 296 q 529 207 458 207 q 609 224 572 207 q 668 285 646 242 q 690 406 690 329 l 690 999 q 717 1031 690 1031 l 925 1031 q 950 1001 950 1031 l 950 407 l 950 407 m 265 1326 q 299 1329 281 1346 l 493 1164 q 489 1129 510 1150 l 443 1081 q 424 1070 433 1069 q 399 1081 415 1071 l 200 1192 q 183 1216 182 1203 q 194 1243 183 1229 l 265 1326 m 569 1326 q 603 1329 585 1346 l 797 1164 q 793 1129 814 1150 l 747 1081 q 728 1070 738 1069 q 703 1081 719 1071 l 504 1192 q 487 1216 486 1203 q 499 1243 488 1229 l 569 1326 z "},"Ü":{"ha":1011,"x_min":61,"x_max":950,"o":"m 950 407 q 894 155 950 247 q 739 24 839 63 q 506 -14 639 -14 q 242 38 339 -14 q 103 190 144 89 q 61 435 61 290 l 61 999 q 88 1031 61 1031 l 351 1031 q 376 1001 376 1031 l 376 401 q 417 251 376 296 q 529 207 458 207 q 609 224 572 207 q 668 285 646 242 q 690 406 690 329 l 690 999 q 717 1031 690 1031 l 925 1031 q 950 1001 950 1031 l 950 407 l 950 407 m 481 1300 l 481 1160 q 471 1134 481 1142 q 440 1126 461 1126 l 274 1126 q 249 1134 256 1126 q 243 1157 243 1142 l 243 1297 q 265 1325 243 1325 l 458 1325 q 481 1300 481 1325 m 814 1300 l 814 1160 q 804 1134 814 1142 q 774 1126 794 1126 l 607 1126 q 583 1134 589 1126 q 576 1157 576 1142 l 576 1297 q 599 1325 576 1325 l 792 1325 q 814 1300 814 1325 z "},"Ụ":{"ha":1011,"x_min":61,"x_max":950,"o":"m 950 407 q 894 155 950 247 q 739 24 839 63 q 506 -14 639 -14 q 242 38 339 -14 q 103 190 144 89 q 61 435 61 290 l 61 999 q 88 1031 61 1031 l 351 1031 q 376 1001 376 1031 l 376 401 q 417 251 376 296 q 529 207 458 207 q 609 224 572 207 q 668 285 646 242 q 690 406 690 329 l 690 999 q 717 1031 690 1031 l 925 1031 q 950 1001 950 1031 l 950 407 l 950 407 m 608 -76 l 608 -199 q 601 -222 608 -214 q 575 -229 593 -229 l 429 -229 q 408 -222 414 -229 q 403 -203 403 -215 l 403 -79 q 421 -54 403 -54 l 590 -54 q 608 -76 608 -54 z "},"Ù":{"ha":1011,"x_min":61,"x_max":950,"o":"m 950 407 q 894 155 950 247 q 739 24 839 63 q 506 -14 639 -14 q 242 38 339 -14 q 103 190 144 89 q 61 435 61 290 l 61 999 q 88 1031 61 1031 l 351 1031 q 376 1001 376 1031 l 376 401 q 417 251 376 296 q 529 207 458 207 q 609 224 572 207 q 668 285 646 242 q 690 406 690 329 l 690 999 q 717 1031 690 1031 l 925 1031 q 950 1001 950 1031 l 950 407 l 950 407 m 364 1321 q 393 1338 374 1346 l 725 1201 q 736 1168 744 1193 l 715 1108 q 701 1090 710 1094 q 675 1090 693 1086 l 351 1168 q 325 1213 314 1178 l 364 1321 z "},"Ủ":{"ha":1011,"x_min":61,"x_max":950,"o":"m 950 407 q 894 155 950 247 q 739 24 839 63 q 506 -14 639 -14 q 242 38 339 -14 q 103 190 144 89 q 61 435 61 290 l 61 999 q 88 1031 61 1031 l 351 1031 q 376 1001 376 1031 l 376 401 q 417 251 376 296 q 529 207 458 207 q 609 224 572 207 q 668 285 646 242 q 690 406 690 329 l 690 999 q 717 1031 690 1031 l 925 1031 q 950 1001 950 1031 l 950 407 l 950 407 m 539 1133 q 511 1138 524 1122 l 472 1192 q 469 1206 467 1199 q 475 1217 471 1214 q 530 1260 513 1244 q 547 1299 547 1276 q 531 1322 547 1315 q 500 1328 515 1328 q 465 1322 482 1328 q 426 1306 447 1317 q 403 1315 413 1297 l 368 1381 q 378 1404 360 1397 q 443 1428 415 1418 q 501 1438 471 1438 q 612 1402 567 1438 q 657 1306 657 1367 q 623 1212 657 1253 q 539 1133 589 1171 z "},"Ư":{"ha":1011,"x_min":61,"x_max":1133,"o":"m 950 407 q 894 155 950 247 q 739 24 839 63 q 506 -14 639 -14 q 242 38 339 -14 q 103 190 144 89 q 61 435 61 290 l 61 999 q 88 1031 61 1031 l 351 1031 q 376 1001 376 1031 l 376 401 q 417 251 376 296 q 529 207 458 207 q 609 224 572 207 q 668 285 646 242 q 690 406 690 329 l 690 999 q 717 1031 690 1031 l 925 1031 q 950 1001 950 1031 l 950 407 l 950 407 m 1110 1113 q 1129 1099 1125 1113 q 1126 1069 1133 1085 q 1051 976 1097 1013 q 950 922 1006 939 q 836 906 894 906 l 840 1029 q 915 1044 876 1029 q 975 1094 953 1058 q 992 1109 982 1106 q 1010 1113 1001 1113 l 1110 1113 z "},"Ứ":{"ha":1011,"x_min":61,"x_max":1133,"o":"m 950 407 q 894 155 950 247 q 739 24 839 63 q 506 -14 639 -14 q 242 38 339 -14 q 103 190 144 89 q 61 435 61 290 l 61 999 q 88 1031 61 1031 l 351 1031 q 376 1001 376 1031 l 376 401 q 417 251 376 296 q 529 207 458 207 q 609 224 572 207 q 668 285 646 242 q 690 406 690 329 l 690 999 q 717 1031 690 1031 l 925 1031 q 950 1001 950 1031 l 950 407 l 950 407 m 1110 1113 q 1129 1099 1125 1113 q 1126 1069 1133 1085 q 1051 976 1097 1013 q 950 922 1006 939 q 836 906 894 906 l 840 1029 q 915 1044 876 1029 q 975 1094 953 1058 q 992 1109 982 1106 q 1010 1113 1001 1113 l 1110 1113 m 697 1317 l 735 1208 q 708 1164 746 1174 l 385 1086 q 358 1086 367 1082 q 344 1104 350 1090 l 324 1164 q 335 1197 315 1189 l 668 1333 q 697 1317 688 1342 z "},"Ự":{"ha":1011,"x_min":61,"x_max":1133,"o":"m 950 407 q 894 155 950 247 q 739 24 839 63 q 506 -14 639 -14 q 242 38 339 -14 q 103 190 144 89 q 61 435 61 290 l 61 999 q 88 1031 61 1031 l 351 1031 q 376 1001 376 1031 l 376 401 q 417 251 376 296 q 529 207 458 207 q 609 224 572 207 q 668 285 646 242 q 690 406 690 329 l 690 999 q 717 1031 690 1031 l 925 1031 q 950 1001 950 1031 l 950 407 l 950 407 m 1110 1113 q 1129 1099 1125 1113 q 1126 1069 1133 1085 q 1051 976 1097 1013 q 950 922 1006 939 q 836 906 894 906 l 840 1029 q 915 1044 876 1029 q 975 1094 953 1058 q 992 1109 982 1106 q 1010 1113 1001 1113 l 1110 1113 m 608 -76 l 608 -199 q 601 -222 608 -214 q 575 -229 593 -229 l 429 -229 q 408 -222 414 -229 q 403 -203 403 -215 l 403 -79 q 421 -54 403 -54 l 590 -54 q 608 -76 608 -54 z "},"Ừ":{"ha":1011,"x_min":61,"x_max":1133,"o":"m 950 407 q 894 155 950 247 q 739 24 839 63 q 506 -14 639 -14 q 242 38 339 -14 q 103 190 144 89 q 61 435 61 290 l 61 999 q 88 1031 61 1031 l 351 1031 q 376 1001 376 1031 l 376 401 q 417 251 376 296 q 529 207 458 207 q 609 224 572 207 q 668 285 646 242 q 690 406 690 329 l 690 999 q 717 1031 690 1031 l 925 1031 q 950 1001 950 1031 l 950 407 l 950 407 m 1110 1113 q 1129 1099 1125 1113 q 1126 1069 1133 1085 q 1051 976 1097 1013 q 950 922 1006 939 q 836 906 894 906 l 840 1029 q 915 1044 876 1029 q 975 1094 953 1058 q 992 1109 982 1106 q 1010 1113 1001 1113 l 1110 1113 m 364 1321 q 393 1338 374 1346 l 725 1201 q 736 1168 744 1193 l 715 1108 q 701 1090 710 1094 q 675 1090 693 1086 l 351 1168 q 325 1213 314 1178 l 364 1321 z "},"Ử":{"ha":1011,"x_min":61,"x_max":1133,"o":"m 950 407 q 894 155 950 247 q 739 24 839 63 q 506 -14 639 -14 q 242 38 339 -14 q 103 190 144 89 q 61 435 61 290 l 61 999 q 88 1031 61 1031 l 351 1031 q 376 1001 376 1031 l 376 401 q 417 251 376 296 q 529 207 458 207 q 609 224 572 207 q 668 285 646 242 q 690 406 690 329 l 690 999 q 717 1031 690 1031 l 925 1031 q 950 1001 950 1031 l 950 407 l 950 407 m 1110 1113 q 1129 1099 1125 1113 q 1126 1069 1133 1085 q 1051 976 1097 1013 q 950 922 1006 939 q 836 906 894 906 l 840 1029 q 915 1044 876 1029 q 975 1094 953 1058 q 992 1109 982 1106 q 1010 1113 1001 1113 l 1110 1113 m 539 1133 q 511 1138 524 1122 l 472 1192 q 469 1206 467 1199 q 475 1217 471 1214 q 530 1260 513 1244 q 547 1299 547 1276 q 531 1322 547 1315 q 500 1328 515 1328 q 465 1322 482 1328 q 426 1306 447 1317 q 403 1315 413 1297 l 368 1381 q 378 1404 360 1397 q 443 1428 415 1418 q 501 1438 471 1438 q 612 1402 567 1438 q 657 1306 657 1367 q 623 1212 657 1253 q 539 1133 589 1171 z "},"Ữ":{"ha":1011,"x_min":61,"x_max":1133,"o":"m 950 407 q 894 155 950 247 q 739 24 839 63 q 506 -14 639 -14 q 242 38 339 -14 q 103 190 144 89 q 61 435 61 290 l 61 999 q 88 1031 61 1031 l 351 1031 q 376 1001 376 1031 l 376 401 q 417 251 376 296 q 529 207 458 207 q 609 224 572 207 q 668 285 646 242 q 690 406 690 329 l 690 999 q 717 1031 690 1031 l 925 1031 q 950 1001 950 1031 l 950 407 l 950 407 m 1110 1113 q 1129 1099 1125 1113 q 1126 1069 1133 1085 q 1051 976 1097 1013 q 950 922 1006 939 q 836 906 894 906 l 840 1029 q 915 1044 876 1029 q 975 1094 953 1058 q 992 1109 982 1106 q 1010 1113 1001 1113 l 1110 1113 m 785 1182 q 726 1153 763 1167 q 646 1140 689 1140 q 569 1151 606 1140 q 497 1173 532 1163 q 421 1183 461 1183 q 371 1176 392 1183 q 322 1149 350 1168 q 303 1142 311 1140 q 290 1160 296 1143 l 267 1235 q 263 1255 264 1246 q 278 1278 263 1264 q 335 1317 304 1300 q 414 1335 365 1335 q 499 1323 458 1335 q 576 1299 539 1311 q 644 1288 613 1288 q 706 1300 678 1288 q 751 1326 733 1313 q 772 1331 763 1333 q 785 1314 782 1329 l 804 1224 q 785 1182 810 1200 z "},"Ű":{"ha":1011,"x_min":61,"x_max":950,"o":"m 950 407 q 894 155 950 247 q 739 24 839 63 q 506 -14 639 -14 q 242 38 339 -14 q 103 190 144 89 q 61 435 61 290 l 61 999 q 88 1031 61 1031 l 351 1031 q 376 1001 376 1031 l 376 401 q 417 251 376 296 q 529 207 458 207 q 609 224 572 207 q 668 285 646 242 q 690 406 690 329 l 690 999 q 717 1031 690 1031 l 925 1031 q 950 1001 950 1031 l 950 407 l 950 407 m 453 1326 l 522 1243 q 535 1216 533 1229 q 517 1192 536 1203 l 318 1081 q 293 1070 301 1071 q 274 1081 285 1069 l 228 1129 q 224 1164 207 1150 l 419 1329 q 453 1326 438 1346 m 757 1326 l 826 1243 q 839 1216 838 1229 q 821 1192 840 1203 l 622 1081 q 597 1070 606 1071 q 578 1081 589 1069 l 532 1129 q 528 1164 511 1150 l 724 1329 q 757 1326 742 1346 z "},"Ȗ":{"ha":1011,"x_min":61,"x_max":950,"o":"m 950 407 q 894 155 950 247 q 739 24 839 63 q 506 -14 639 -14 q 242 38 339 -14 q 103 190 144 89 q 61 435 61 290 l 61 999 q 88 1031 61 1031 l 351 1031 q 376 1001 376 1031 l 376 401 q 417 251 376 296 q 529 207 458 207 q 609 224 572 207 q 668 285 646 242 q 690 406 690 329 l 690 999 q 717 1031 690 1031 l 925 1031 q 950 1001 950 1031 l 950 407 l 950 407 m 785 1118 l 676 1118 q 662 1121 668 1118 q 649 1136 656 1124 q 597 1183 631 1165 q 531 1201 563 1201 q 485 1193 508 1201 q 444 1170 463 1185 q 411 1138 425 1156 q 397 1122 403 1126 q 378 1118 390 1118 l 271 1118 q 258 1125 261 1118 q 256 1140 254 1132 q 315 1247 272 1207 q 414 1306 357 1288 q 531 1325 471 1325 q 645 1305 592 1325 q 740 1244 699 1285 q 803 1143 781 1204 q 785 1118 813 1118 z "},"Ū":{"ha":1011,"x_min":61,"x_max":950,"o":"m 950 407 q 894 155 950 247 q 739 24 839 63 q 506 -14 639 -14 q 242 38 339 -14 q 103 190 144 89 q 61 435 61 290 l 61 999 q 88 1031 61 1031 l 351 1031 q 376 1001 376 1031 l 376 401 q 417 251 376 296 q 529 207 458 207 q 609 224 572 207 q 668 285 646 242 q 690 406 690 329 l 690 999 q 717 1031 690 1031 l 925 1031 q 950 1001 950 1031 l 950 407 l 950 407 m 814 1300 l 814 1188 q 774 1154 814 1154 l 274 1154 q 249 1162 256 1154 q 243 1185 243 1169 l 243 1297 q 265 1325 243 1325 l 792 1325 q 814 1300 814 1325 z "},"Ṻ":{"ha":1011,"x_min":61,"x_max":950,"o":"m 950 407 q 894 155 950 247 q 739 24 839 63 q 506 -14 639 -14 q 242 38 339 -14 q 103 190 144 89 q 61 435 61 290 l 61 999 q 88 1031 61 1031 l 351 1031 q 376 1001 376 1031 l 376 401 q 417 251 376 296 q 529 207 458 207 q 609 224 572 207 q 668 285 646 242 q 690 406 690 329 l 690 999 q 717 1031 690 1031 l 925 1031 q 950 1001 950 1031 l 950 407 l 950 407 m 814 1300 l 814 1188 q 774 1154 814 1154 l 274 1154 q 249 1162 256 1154 q 243 1185 243 1169 l 243 1297 q 265 1325 243 1325 l 792 1325 q 814 1300 814 1325 m 481 1567 l 481 1426 q 471 1401 481 1408 q 440 1393 461 1393 l 274 1393 q 249 1401 256 1393 q 243 1424 243 1408 l 243 1564 q 265 1592 243 1592 l 458 1592 q 481 1567 481 1592 m 814 1567 l 814 1426 q 804 1401 814 1408 q 774 1393 794 1393 l 607 1393 q 583 1401 589 1393 q 576 1424 576 1408 l 576 1564 q 599 1592 576 1592 l 792 1592 q 814 1567 814 1592 z "},"Ų":{"ha":1011,"x_min":61,"x_max":950,"o":"m 950 407 q 894 155 950 247 q 739 24 839 63 q 506 -14 639 -14 q 242 38 339 -14 q 103 190 144 89 q 61 435 61 290 l 61 999 q 88 1031 61 1031 l 351 1031 q 376 1001 376 1031 l 376 401 q 417 251 376 296 q 529 207 458 207 q 609 224 572 207 q 668 285 646 242 q 690 406 690 329 l 690 999 q 717 1031 690 1031 l 925 1031 q 950 1001 950 1031 l 950 407 l 950 407 m 372 -121 q 397 -53 372 -85 q 503 8 422 -21 l 692 8 q 589 -37 614 -17 q 564 -82 564 -58 q 574 -112 564 -103 q 603 -122 583 -122 q 644 -116 626 -122 q 681 -100 663 -110 q 706 -115 706 -87 l 706 -187 q 692 -212 706 -204 q 632 -232 674 -222 q 540 -242 590 -242 q 419 -212 465 -242 q 372 -121 372 -183 z "},"Ů":{"ha":1011,"x_min":61,"x_max":950,"o":"m 950 407 q 894 155 950 247 q 739 24 839 63 q 506 -14 639 -14 q 242 38 339 -14 q 103 190 144 89 q 61 435 61 290 l 61 999 q 88 1031 61 1031 l 351 1031 q 376 1001 376 1031 l 376 401 q 417 251 376 296 q 529 207 458 207 q 609 224 572 207 q 668 285 646 242 q 690 406 690 329 l 690 999 q 717 1031 690 1031 l 925 1031 q 950 1001 950 1031 l 950 407 l 950 407 m 692 1238 q 644 1122 692 1169 q 529 1075 597 1075 q 414 1123 461 1075 q 367 1240 367 1171 q 389 1320 367 1285 q 448 1376 411 1356 q 529 1397 485 1397 q 612 1376 575 1397 q 670 1318 649 1354 q 692 1238 692 1282 m 594 1236 q 575 1283 594 1264 q 528 1301 556 1301 q 481 1283 501 1301 q 460 1236 460 1264 q 481 1189 460 1210 q 528 1168 501 1168 q 575 1189 556 1168 q 594 1236 594 1210 z "},"Ũ":{"ha":1011,"x_min":61,"x_max":950,"o":"m 950 407 q 894 155 950 247 q 739 24 839 63 q 506 -14 639 -14 q 242 38 339 -14 q 103 190 144 89 q 61 435 61 290 l 61 999 q 88 1031 61 1031 l 351 1031 q 376 1001 376 1031 l 376 401 q 417 251 376 296 q 529 207 458 207 q 609 224 572 207 q 668 285 646 242 q 690 406 690 329 l 690 999 q 717 1031 690 1031 l 925 1031 q 950 1001 950 1031 l 950 407 l 950 407 m 785 1182 q 726 1153 763 1167 q 646 1140 689 1140 q 569 1151 606 1140 q 497 1173 532 1163 q 421 1183 461 1183 q 371 1176 392 1183 q 322 1149 350 1168 q 303 1142 311 1140 q 290 1160 296 1143 l 267 1235 q 263 1255 264 1246 q 278 1278 263 1264 q 335 1317 304 1300 q 414 1335 365 1335 q 499 1323 458 1335 q 576 1299 539 1311 q 644 1288 613 1288 q 706 1300 678 1288 q 751 1326 733 1313 q 772 1331 763 1333 q 785 1314 782 1329 l 804 1224 q 785 1182 810 1200 z "},"Ṹ":{"ha":1011,"x_min":61,"x_max":950,"o":"m 950 407 q 894 155 950 247 q 739 24 839 63 q 506 -14 639 -14 q 242 38 339 -14 q 103 190 144 89 q 61 435 61 290 l 61 999 q 88 1031 61 1031 l 351 1031 q 376 1001 376 1031 l 376 401 q 417 251 376 296 q 529 207 458 207 q 609 224 572 207 q 668 285 646 242 q 690 406 690 329 l 690 999 q 717 1031 690 1031 l 925 1031 q 950 1001 950 1031 l 950 407 l 950 407 m 785 1182 q 726 1153 763 1167 q 646 1140 689 1140 q 569 1151 606 1140 q 497 1173 532 1163 q 421 1183 461 1183 q 371 1176 392 1183 q 322 1149 350 1168 q 303 1142 311 1140 q 290 1160 296 1143 l 267 1235 q 263 1255 264 1246 q 278 1278 263 1264 q 335 1317 304 1300 q 414 1335 365 1335 q 499 1323 458 1335 q 576 1299 539 1311 q 644 1288 613 1288 q 706 1300 678 1288 q 751 1326 733 1313 q 772 1331 763 1333 q 785 1314 782 1329 l 804 1224 q 785 1182 810 1200 m 675 1610 l 713 1501 q 686 1457 724 1467 l 363 1379 q 336 1379 344 1375 q 322 1397 328 1383 l 301 1457 q 313 1490 293 1482 l 646 1626 q 675 1610 665 1635 z "},"V":{"ha":1043,"x_min":31,"x_max":1014,"o":"m 982 1031 q 1006 1018 999 1031 q 1008 990 1014 1006 l 686 35 q 635 0 676 0 l 410 0 q 358 35 368 0 l 36 990 q 38 1018 31 1006 q 63 1031 46 1031 l 331 1031 q 365 1001 357 1031 l 551 392 q 565 393 558 371 l 739 1001 q 775 1031 746 1031 l 982 1031 l 982 1031 z "},"W":{"ha":1540,"x_min":32,"x_max":1510,"o":"m 1461 1031 q 1499 1015 1489 1031 q 1503 975 1510 999 l 1221 35 q 1171 0 1208 0 l 979 0 q 929 35 939 0 l 785 524 q 775 541 781 540 q 763 521 769 542 l 619 35 q 569 0 610 0 l 371 0 q 321 35 333 0 l 38 975 q 42 1015 32 999 q 79 1031 53 1031 l 308 1031 q 340 1023 331 1031 q 353 1001 349 1015 l 500 486 q 509 470 504 471 q 517 481 514 469 l 663 1001 q 675 1023 665 1015 q 707 1031 685 1031 l 901 1031 q 933 1023 924 1031 q 946 1001 942 1015 l 1099 474 q 1107 464 1101 465 q 1114 471 1113 463 l 1256 1001 q 1268 1023 1258 1015 q 1300 1031 1278 1031 l 1461 1031 l 1461 1031 z "},"Ẃ":{"ha":1540,"x_min":32,"x_max":1510,"o":"m 1461 1031 q 1499 1015 1489 1031 q 1503 975 1510 999 l 1221 35 q 1171 0 1208 0 l 979 0 q 929 35 939 0 l 785 524 q 775 541 781 540 q 763 521 769 542 l 619 35 q 569 0 610 0 l 371 0 q 321 35 333 0 l 38 975 q 42 1015 32 999 q 79 1031 53 1031 l 308 1031 q 340 1023 331 1031 q 353 1001 349 1015 l 500 486 q 509 470 504 471 q 517 481 514 469 l 663 1001 q 675 1023 665 1015 q 707 1031 685 1031 l 901 1031 q 933 1023 924 1031 q 946 1001 942 1015 l 1099 474 q 1107 464 1101 465 q 1114 471 1113 463 l 1256 1001 q 1268 1023 1258 1015 q 1300 1031 1278 1031 l 1461 1031 l 1461 1031 m 940 1317 l 978 1208 q 951 1164 989 1174 l 628 1086 q 601 1086 610 1082 q 588 1104 593 1090 l 567 1164 q 578 1197 558 1189 l 911 1333 q 940 1317 931 1342 z "},"Ŵ":{"ha":1540,"x_min":32,"x_max":1510,"o":"m 1461 1031 q 1499 1015 1489 1031 q 1503 975 1510 999 l 1221 35 q 1171 0 1208 0 l 979 0 q 929 35 939 0 l 785 524 q 775 541 781 540 q 763 521 769 542 l 619 35 q 569 0 610 0 l 371 0 q 321 35 333 0 l 38 975 q 42 1015 32 999 q 79 1031 53 1031 l 308 1031 q 340 1023 331 1031 q 353 1001 349 1015 l 500 486 q 509 470 504 471 q 517 481 514 469 l 663 1001 q 675 1023 665 1015 q 707 1031 685 1031 l 901 1031 q 933 1023 924 1031 q 946 1001 942 1015 l 1099 474 q 1107 464 1101 465 q 1114 471 1113 463 l 1256 1001 q 1268 1023 1258 1015 q 1300 1031 1278 1031 l 1461 1031 l 1461 1031 m 850 1133 l 793 1208 q 772 1228 779 1228 q 746 1208 764 1228 l 682 1133 q 666 1122 672 1124 q 646 1121 660 1121 l 508 1121 q 495 1128 496 1121 q 504 1146 494 1135 l 660 1318 q 681 1334 669 1329 q 711 1339 692 1339 l 843 1339 q 867 1333 858 1339 q 882 1321 875 1328 l 1036 1146 q 1033 1121 1060 1121 l 888 1121 q 866 1122 875 1121 q 850 1133 857 1124 z "},"Ẅ":{"ha":1540,"x_min":32,"x_max":1510,"o":"m 1461 1031 q 1499 1015 1489 1031 q 1503 975 1510 999 l 1221 35 q 1171 0 1208 0 l 979 0 q 929 35 939 0 l 785 524 q 775 541 781 540 q 763 521 769 542 l 619 35 q 569 0 610 0 l 371 0 q 321 35 333 0 l 38 975 q 42 1015 32 999 q 79 1031 53 1031 l 308 1031 q 340 1023 331 1031 q 353 1001 349 1015 l 500 486 q 509 470 504 471 q 517 481 514 469 l 663 1001 q 675 1023 665 1015 q 707 1031 685 1031 l 901 1031 q 933 1023 924 1031 q 946 1001 942 1015 l 1099 474 q 1107 464 1101 465 q 1114 471 1113 463 l 1256 1001 q 1268 1023 1258 1015 q 1300 1031 1278 1031 l 1461 1031 l 1461 1031 m 724 1300 l 724 1160 q 714 1134 724 1142 q 683 1126 704 1126 l 517 1126 q 492 1134 499 1126 q 486 1157 486 1142 l 486 1297 q 508 1325 486 1325 l 701 1325 q 724 1300 724 1325 m 1057 1300 l 1057 1160 q 1047 1134 1057 1142 q 1017 1126 1038 1126 l 850 1126 q 826 1134 832 1126 q 819 1157 819 1142 l 819 1297 q 842 1325 819 1325 l 1035 1325 q 1057 1300 1057 1325 z "},"Ẁ":{"ha":1540,"x_min":32,"x_max":1510,"o":"m 1461 1031 q 1499 1015 1489 1031 q 1503 975 1510 999 l 1221 35 q 1171 0 1208 0 l 979 0 q 929 35 939 0 l 785 524 q 775 541 781 540 q 763 521 769 542 l 619 35 q 569 0 610 0 l 371 0 q 321 35 333 0 l 38 975 q 42 1015 32 999 q 79 1031 53 1031 l 308 1031 q 340 1023 331 1031 q 353 1001 349 1015 l 500 486 q 509 470 504 471 q 517 481 514 469 l 663 1001 q 675 1023 665 1015 q 707 1031 685 1031 l 901 1031 q 933 1023 924 1031 q 946 1001 942 1015 l 1099 474 q 1107 464 1101 465 q 1114 471 1113 463 l 1256 1001 q 1268 1023 1258 1015 q 1300 1031 1278 1031 l 1461 1031 l 1461 1031 m 607 1321 q 636 1338 617 1346 l 968 1201 q 979 1168 988 1193 l 958 1108 q 944 1090 953 1094 q 918 1090 936 1086 l 594 1168 q 568 1213 557 1178 l 607 1321 z "},"X":{"ha":1050,"x_min":28,"x_max":1025,"o":"m 999 71 q 1017 15 1025 31 q 979 0 1008 0 l 729 0 q 671 28 686 0 l 518 289 q 499 309 507 308 q 479 290 490 310 l 329 28 q 306 6 321 13 q 269 0 290 0 l 72 0 q 35 15 43 0 q 54 71 28 29 l 328 494 q 338 519 339 510 q 328 544 338 529 l 47 982 q 42 1014 38 997 q 69 1031 46 1031 l 332 1031 q 367 1024 356 1031 q 388 1001 379 1017 l 514 778 q 530 767 521 767 q 544 778 539 767 l 671 1001 q 691 1024 679 1017 q 725 1031 703 1031 l 940 1031 q 967 1015 965 1031 q 958 985 969 1000 l 696 582 q 688 558 686 568 q 699 532 689 547 l 999 71 l 999 71 z "},"Y":{"ha":1075,"x_min":29,"x_max":1046,"o":"m 1018 1031 q 1041 1022 1036 1031 q 1038 999 1046 1013 l 713 474 q 701 443 703 460 q 699 382 699 426 l 699 40 q 653 0 699 0 l 419 0 q 391 8 399 0 q 383 35 383 17 l 383 400 q 378 434 383 422 q 364 461 374 446 l 39 992 q 35 1019 29 1008 q 64 1031 42 1031 l 343 1031 q 372 1024 364 1031 q 390 1001 381 1018 l 561 693 q 573 680 568 681 q 585 692 578 679 l 753 1001 q 771 1025 761 1019 q 800 1031 781 1031 l 1018 1031 l 1018 1031 z "},"Ý":{"ha":1075,"x_min":29,"x_max":1046,"o":"m 1018 1031 q 1041 1022 1036 1031 q 1038 999 1046 1013 l 713 474 q 701 443 703 460 q 699 382 699 426 l 699 40 q 653 0 699 0 l 419 0 q 391 8 399 0 q 383 35 383 17 l 383 400 q 378 434 383 422 q 364 461 374 446 l 39 992 q 35 1019 29 1008 q 64 1031 42 1031 l 343 1031 q 372 1024 364 1031 q 390 1001 381 1018 l 561 693 q 573 680 568 681 q 585 692 578 679 l 753 1001 q 771 1025 761 1019 q 800 1031 781 1031 l 1018 1031 l 1018 1031 m 728 1317 l 765 1208 q 739 1164 776 1174 l 415 1086 q 389 1086 397 1082 q 375 1104 381 1090 l 354 1164 q 365 1197 346 1189 l 699 1333 q 728 1317 718 1342 z "},"Ŷ":{"ha":1075,"x_min":29,"x_max":1046,"o":"m 1018 1031 q 1041 1022 1036 1031 q 1038 999 1046 1013 l 713 474 q 701 443 703 460 q 699 382 699 426 l 699 40 q 653 0 699 0 l 419 0 q 391 8 399 0 q 383 35 383 17 l 383 400 q 378 434 383 422 q 364 461 374 446 l 39 992 q 35 1019 29 1008 q 64 1031 42 1031 l 343 1031 q 372 1024 364 1031 q 390 1001 381 1018 l 561 693 q 573 680 568 681 q 585 692 578 679 l 753 1001 q 771 1025 761 1019 q 800 1031 781 1031 l 1018 1031 l 1018 1031 m 638 1133 l 581 1208 q 559 1228 567 1228 q 533 1208 551 1228 l 469 1133 q 453 1122 460 1124 q 433 1121 447 1121 l 296 1121 q 283 1128 283 1121 q 292 1146 282 1135 l 447 1318 q 468 1334 457 1329 q 499 1339 479 1339 l 631 1339 q 654 1333 646 1339 q 669 1321 663 1328 l 824 1146 q 821 1121 847 1121 l 675 1121 q 653 1122 663 1121 q 638 1133 644 1124 z "},"Ÿ":{"ha":1075,"x_min":29,"x_max":1046,"o":"m 1018 1031 q 1041 1022 1036 1031 q 1038 999 1046 1013 l 713 474 q 701 443 703 460 q 699 382 699 426 l 699 40 q 653 0 699 0 l 419 0 q 391 8 399 0 q 383 35 383 17 l 383 400 q 378 434 383 422 q 364 461 374 446 l 39 992 q 35 1019 29 1008 q 64 1031 42 1031 l 343 1031 q 372 1024 364 1031 q 390 1001 381 1018 l 561 693 q 573 680 568 681 q 585 692 578 679 l 753 1001 q 771 1025 761 1019 q 800 1031 781 1031 l 1018 1031 l 1018 1031 m 511 1300 l 511 1160 q 501 1134 511 1142 q 471 1126 492 1126 l 304 1126 q 280 1134 286 1126 q 274 1157 274 1142 l 274 1297 q 296 1325 274 1325 l 489 1325 q 511 1300 511 1325 m 844 1300 l 844 1160 q 835 1134 844 1142 q 804 1126 825 1126 l 638 1126 q 613 1134 619 1126 q 607 1157 607 1142 l 607 1297 q 629 1325 607 1325 l 822 1325 q 844 1300 844 1325 z "},"Ẏ":{"ha":1075,"x_min":29,"x_max":1046,"o":"m 1018 1031 q 1041 1022 1036 1031 q 1038 999 1046 1013 l 713 474 q 701 443 703 460 q 699 382 699 426 l 699 40 q 653 0 699 0 l 419 0 q 391 8 399 0 q 383 35 383 17 l 383 400 q 378 434 383 422 q 364 461 374 446 l 39 992 q 35 1019 29 1008 q 64 1031 42 1031 l 343 1031 q 372 1024 364 1031 q 390 1001 381 1018 l 561 693 q 573 680 568 681 q 585 692 578 679 l 753 1001 q 771 1025 761 1019 q 800 1031 781 1031 l 1018 1031 l 1018 1031 m 699 1296 l 699 1132 q 688 1101 699 1111 q 653 1092 676 1092 l 457 1092 q 428 1101 436 1092 q 421 1128 421 1110 l 421 1293 q 447 1325 421 1325 l 674 1325 q 699 1296 699 1325 z "},"Ỵ":{"ha":1075,"x_min":29,"x_max":1046,"o":"m 1018 1031 q 1041 1022 1036 1031 q 1038 999 1046 1013 l 713 474 q 701 443 703 460 q 699 382 699 426 l 699 40 q 653 0 699 0 l 419 0 q 391 8 399 0 q 383 35 383 17 l 383 400 q 378 434 383 422 q 364 461 374 446 l 39 992 q 35 1019 29 1008 q 64 1031 42 1031 l 343 1031 q 372 1024 364 1031 q 390 1001 381 1018 l 561 693 q 573 680 568 681 q 585 692 578 679 l 753 1001 q 771 1025 761 1019 q 800 1031 781 1031 l 1018 1031 l 1018 1031 m 640 -76 l 640 -199 q 633 -222 640 -214 q 607 -229 625 -229 l 461 -229 q 440 -222 446 -229 q 435 -203 435 -215 l 435 -79 q 453 -54 435 -54 l 622 -54 q 640 -76 640 -54 z "},"Ỳ":{"ha":1075,"x_min":29,"x_max":1046,"o":"m 1018 1031 q 1041 1022 1036 1031 q 1038 999 1046 1013 l 713 474 q 701 443 703 460 q 699 382 699 426 l 699 40 q 653 0 699 0 l 419 0 q 391 8 399 0 q 383 35 383 17 l 383 400 q 378 434 383 422 q 364 461 374 446 l 39 992 q 35 1019 29 1008 q 64 1031 42 1031 l 343 1031 q 372 1024 364 1031 q 390 1001 381 1018 l 561 693 q 573 680 568 681 q 585 692 578 679 l 753 1001 q 771 1025 761 1019 q 800 1031 781 1031 l 1018 1031 l 1018 1031 m 394 1321 q 424 1338 404 1346 l 756 1201 q 767 1168 775 1193 l 746 1108 q 732 1090 740 1094 q 706 1090 724 1086 l 382 1168 q 356 1213 344 1178 l 394 1321 z "},"Ỷ":{"ha":1075,"x_min":29,"x_max":1046,"o":"m 1018 1031 q 1041 1022 1036 1031 q 1038 999 1046 1013 l 713 474 q 701 443 703 460 q 699 382 699 426 l 699 40 q 653 0 699 0 l 419 0 q 391 8 399 0 q 383 35 383 17 l 383 400 q 378 434 383 422 q 364 461 374 446 l 39 992 q 35 1019 29 1008 q 64 1031 42 1031 l 343 1031 q 372 1024 364 1031 q 390 1001 381 1018 l 561 693 q 573 680 568 681 q 585 692 578 679 l 753 1001 q 771 1025 761 1019 q 800 1031 781 1031 l 1018 1031 l 1018 1031 m 569 1133 q 542 1138 554 1122 l 503 1192 q 499 1206 497 1199 q 506 1217 501 1214 q 560 1260 543 1244 q 578 1299 578 1276 q 562 1322 578 1315 q 531 1328 546 1328 q 495 1322 513 1328 q 457 1306 478 1317 q 433 1315 443 1297 l 399 1381 q 408 1404 390 1397 q 474 1428 446 1418 q 532 1438 501 1438 q 642 1402 597 1438 q 688 1306 688 1367 q 653 1212 688 1253 q 569 1133 619 1171 z "},"Ȳ":{"ha":1075,"x_min":29,"x_max":1046,"o":"m 1018 1031 q 1041 1022 1036 1031 q 1038 999 1046 1013 l 713 474 q 701 443 703 460 q 699 382 699 426 l 699 40 q 653 0 699 0 l 419 0 q 391 8 399 0 q 383 35 383 17 l 383 400 q 378 434 383 422 q 364 461 374 446 l 39 992 q 35 1019 29 1008 q 64 1031 42 1031 l 343 1031 q 372 1024 364 1031 q 390 1001 381 1018 l 561 693 q 573 680 568 681 q 585 692 578 679 l 753 1001 q 771 1025 761 1019 q 800 1031 781 1031 l 1018 1031 l 1018 1031 m 844 1300 l 844 1188 q 804 1154 844 1154 l 304 1154 q 280 1162 286 1154 q 274 1185 274 1169 l 274 1297 q 296 1325 274 1325 l 822 1325 q 844 1300 844 1325 z "},"Ỹ":{"ha":1075,"x_min":29,"x_max":1046,"o":"m 1018 1031 q 1041 1022 1036 1031 q 1038 999 1046 1013 l 713 474 q 701 443 703 460 q 699 382 699 426 l 699 40 q 653 0 699 0 l 419 0 q 391 8 399 0 q 383 35 383 17 l 383 400 q 378 434 383 422 q 364 461 374 446 l 39 992 q 35 1019 29 1008 q 64 1031 42 1031 l 343 1031 q 372 1024 364 1031 q 390 1001 381 1018 l 561 693 q 573 680 568 681 q 585 692 578 679 l 753 1001 q 771 1025 761 1019 q 800 1031 781 1031 l 1018 1031 l 1018 1031 m 815 1182 q 756 1153 793 1167 q 676 1140 719 1140 q 599 1151 636 1140 q 527 1173 563 1163 q 451 1183 492 1183 q 401 1176 422 1183 q 353 1149 381 1168 q 334 1142 342 1140 q 321 1160 326 1143 l 297 1235 q 294 1255 294 1246 q 308 1278 293 1264 q 365 1317 335 1300 q 444 1335 396 1335 q 529 1323 489 1335 q 606 1299 569 1311 q 675 1288 643 1288 q 736 1300 708 1288 q 782 1326 764 1313 q 803 1331 793 1333 q 815 1314 813 1329 l 835 1224 q 815 1182 840 1200 z "},"Z":{"ha":992,"x_min":36,"x_max":949,"o":"m 72 0 q 44 7 51 0 q 36 35 36 14 l 36 97 q 41 130 36 119 q 65 168 46 140 l 493 779 q 481 801 507 801 l 113 801 q 88 809 94 801 q 82 835 82 817 l 82 1001 q 107 1031 82 1031 l 922 1031 q 949 1003 949 1031 l 949 932 q 944 906 949 917 q 925 875 939 894 l 481 250 q 481 235 474 239 q 497 231 488 231 l 910 231 q 940 204 940 231 l 940 31 q 933 9 940 18 q 907 0 925 0 l 72 0 l 72 0 z "},"Ź":{"ha":992,"x_min":36,"x_max":949,"o":"m 72 0 q 44 7 51 0 q 36 35 36 14 l 36 97 q 41 130 36 119 q 65 168 46 140 l 493 779 q 481 801 507 801 l 113 801 q 88 809 94 801 q 82 835 82 817 l 82 1001 q 107 1031 82 1031 l 922 1031 q 949 1003 949 1031 l 949 932 q 944 906 949 917 q 925 875 939 894 l 481 250 q 481 235 474 239 q 497 231 488 231 l 910 231 q 940 204 940 231 l 940 31 q 933 9 940 18 q 907 0 925 0 l 72 0 l 72 0 m 683 1317 l 721 1208 q 694 1164 732 1174 l 371 1086 q 344 1086 353 1082 q 331 1104 336 1090 l 310 1164 q 321 1197 301 1189 l 654 1333 q 683 1317 674 1342 z "},"Ž":{"ha":992,"x_min":36,"x_max":949,"o":"m 72 0 q 44 7 51 0 q 36 35 36 14 l 36 97 q 41 130 36 119 q 65 168 46 140 l 493 779 q 481 801 507 801 l 113 801 q 88 809 94 801 q 82 835 82 817 l 82 1001 q 107 1031 82 1031 l 922 1031 q 949 1003 949 1031 l 949 932 q 944 906 949 917 q 925 875 939 894 l 481 250 q 481 235 474 239 q 497 231 488 231 l 910 231 q 940 204 940 231 l 940 31 q 933 9 940 18 q 907 0 925 0 l 72 0 l 72 0 m 593 1314 q 609 1325 600 1324 q 631 1326 618 1326 l 776 1326 q 779 1301 803 1326 l 625 1125 q 610 1113 618 1118 q 586 1107 601 1107 l 454 1107 q 424 1113 435 1107 q 403 1128 413 1118 l 247 1301 q 238 1319 238 1313 q 251 1326 239 1326 l 389 1326 q 410 1326 403 1326 q 425 1314 417 1325 l 489 1238 q 514 1218 506 1217 q 536 1238 522 1219 l 593 1314 z "},"Ż":{"ha":992,"x_min":36,"x_max":949,"o":"m 72 0 q 44 7 51 0 q 36 35 36 14 l 36 97 q 41 130 36 119 q 65 168 46 140 l 493 779 q 481 801 507 801 l 113 801 q 88 809 94 801 q 82 835 82 817 l 82 1001 q 107 1031 82 1031 l 922 1031 q 949 1003 949 1031 l 949 932 q 944 906 949 917 q 925 875 939 894 l 481 250 q 481 235 474 239 q 497 231 488 231 l 910 231 q 940 204 940 231 l 940 31 q 933 9 940 18 q 907 0 925 0 l 72 0 l 72 0 m 654 1296 l 654 1132 q 643 1101 654 1111 q 608 1092 632 1092 l 413 1092 q 384 1101 392 1092 q 376 1128 376 1110 l 376 1293 q 403 1325 376 1325 l 629 1325 q 654 1296 654 1325 z "},"Ẓ":{"ha":992,"x_min":36,"x_max":949,"o":"m 72 0 q 44 7 51 0 q 36 35 36 14 l 36 97 q 41 130 36 119 q 65 168 46 140 l 493 779 q 481 801 507 801 l 113 801 q 88 809 94 801 q 82 835 82 817 l 82 1001 q 107 1031 82 1031 l 922 1031 q 949 1003 949 1031 l 949 932 q 944 906 949 917 q 925 875 939 894 l 481 250 q 481 235 474 239 q 497 231 488 231 l 910 231 q 940 204 940 231 l 940 31 q 933 9 940 18 q 907 0 925 0 l 72 0 l 72 0 m 585 -76 l 585 -199 q 577 -222 585 -214 q 551 -229 569 -229 l 406 -229 q 385 -222 390 -229 q 379 -203 379 -215 l 379 -79 q 397 -54 379 -54 l 567 -54 q 585 -76 585 -54 z "},"a":{"ha":796,"x_min":13,"x_max":733,"o":"m 436 58 q 349 7 399 28 q 235 -14 300 -14 q 72 44 131 -14 q 13 189 13 103 q 65 332 13 271 q 213 427 117 393 q 439 461 308 461 l 449 461 q 462 465 454 461 q 469 481 469 468 l 469 504 q 449 564 469 543 q 388 585 429 585 q 328 572 358 585 q 279 519 297 558 q 267 505 274 508 q 242 504 261 501 l 60 540 q 45 551 50 543 q 50 585 40 558 q 173 712 82 674 q 400 750 264 750 q 601 721 529 750 q 703 640 674 692 q 733 521 733 589 l 733 38 q 727 8 733 17 q 701 0 721 0 l 511 0 q 485 15 493 0 q 475 49 478 29 l 474 58 q 436 58 469 86 l 436 58 m 469 311 q 449 336 469 336 l 443 336 q 399 330 426 336 q 346 310 372 324 q 301 276 319 297 q 282 226 282 256 q 303 179 282 197 q 361 161 324 161 q 408 169 389 161 q 438 188 426 178 q 460 210 450 199 q 469 238 469 222 l 469 311 l 469 311 z "},"á":{"ha":796,"x_min":13,"x_max":733,"o":"m 436 58 q 349 7 399 28 q 235 -14 300 -14 q 72 44 131 -14 q 13 189 13 103 q 65 332 13 271 q 213 427 117 393 q 439 461 308 461 l 449 461 q 462 465 454 461 q 469 481 469 468 l 469 504 q 449 564 469 543 q 388 585 429 585 q 328 572 358 585 q 279 519 297 558 q 267 505 274 508 q 242 504 261 501 l 60 540 q 45 551 50 543 q 50 585 40 558 q 173 712 82 674 q 400 750 264 750 q 601 721 529 750 q 703 640 674 692 q 733 521 733 589 l 733 38 q 727 8 733 17 q 701 0 721 0 l 511 0 q 485 15 493 0 q 475 49 478 29 l 474 58 q 436 58 469 86 l 436 58 m 469 311 q 449 336 469 336 l 443 336 q 399 330 426 336 q 346 310 372 324 q 301 276 319 297 q 282 226 282 256 q 303 179 282 197 q 361 161 324 161 q 408 169 389 161 q 438 188 426 178 q 460 210 450 199 q 469 238 469 222 l 469 311 l 469 311 m 568 1022 l 606 914 q 579 869 617 879 l 256 792 q 229 792 238 788 q 215 810 221 796 l 194 869 q 206 903 186 894 l 539 1039 q 568 1022 558 1047 z "},"ă":{"ha":796,"x_min":13,"x_max":733,"o":"m 436 58 q 349 7 399 28 q 235 -14 300 -14 q 72 44 131 -14 q 13 189 13 103 q 65 332 13 271 q 213 427 117 393 q 439 461 308 461 l 449 461 q 462 465 454 461 q 469 481 469 468 l 469 504 q 449 564 469 543 q 388 585 429 585 q 328 572 358 585 q 279 519 297 558 q 267 505 274 508 q 242 504 261 501 l 60 540 q 45 551 50 543 q 50 585 40 558 q 173 712 82 674 q 400 750 264 750 q 601 721 529 750 q 703 640 674 692 q 733 521 733 589 l 733 38 q 727 8 733 17 q 701 0 721 0 l 511 0 q 485 15 493 0 q 475 49 478 29 l 474 58 q 436 58 469 86 l 436 58 m 469 311 q 449 336 469 336 l 443 336 q 399 330 426 336 q 346 310 372 324 q 301 276 319 297 q 282 226 282 256 q 303 179 282 197 q 361 161 324 161 q 408 169 389 161 q 438 188 426 178 q 460 210 450 199 q 469 238 469 222 l 469 311 l 469 311 m 656 1031 q 674 1006 683 1031 q 610 904 651 944 q 516 844 569 864 q 401 824 463 824 q 285 842 342 824 q 185 902 228 861 q 126 1008 143 943 q 128 1024 125 1017 q 142 1031 132 1031 l 249 1031 q 267 1026 261 1031 q 282 1011 274 1022 q 315 978 296 993 q 356 956 333 964 q 401 947 379 947 q 467 965 433 947 q 519 1013 501 983 q 533 1028 526 1025 q 547 1031 539 1031 l 656 1031 z "},"ắ":{"ha":796,"x_min":13,"x_max":733,"o":"m 436 58 q 349 7 399 28 q 235 -14 300 -14 q 72 44 131 -14 q 13 189 13 103 q 65 332 13 271 q 213 427 117 393 q 439 461 308 461 l 449 461 q 462 465 454 461 q 469 481 469 468 l 469 504 q 449 564 469 543 q 388 585 429 585 q 328 572 358 585 q 279 519 297 558 q 267 505 274 508 q 242 504 261 501 l 60 540 q 45 551 50 543 q 50 585 40 558 q 173 712 82 674 q 400 750 264 750 q 601 721 529 750 q 703 640 674 692 q 733 521 733 589 l 733 38 q 727 8 733 17 q 701 0 721 0 l 511 0 q 485 15 493 0 q 475 49 478 29 l 474 58 q 436 58 469 86 l 436 58 m 469 311 q 449 336 469 336 l 443 336 q 399 330 426 336 q 346 310 372 324 q 301 276 319 297 q 282 226 282 256 q 303 179 282 197 q 361 161 324 161 q 408 169 389 161 q 438 188 426 178 q 460 210 450 199 q 469 238 469 222 l 469 311 l 469 311 m 656 1031 q 674 1006 683 1031 q 610 904 651 944 q 516 844 569 864 q 401 824 463 824 q 285 842 342 824 q 185 902 228 861 q 126 1008 143 943 q 128 1024 125 1017 q 142 1031 132 1031 l 249 1031 q 267 1026 261 1031 q 282 1011 274 1022 q 315 978 296 993 q 356 956 333 964 q 401 947 379 947 q 467 965 433 947 q 519 1013 501 983 q 533 1028 526 1025 q 547 1031 539 1031 l 656 1031 m 568 1289 l 606 1181 q 579 1136 617 1146 l 256 1058 q 229 1058 238 1054 q 215 1076 221 1063 l 194 1136 q 206 1169 186 1161 l 539 1306 q 568 1289 558 1314 z "},"ặ":{"ha":796,"x_min":13,"x_max":733,"o":"m 436 58 q 349 7 399 28 q 235 -14 300 -14 q 72 44 131 -14 q 13 189 13 103 q 65 332 13 271 q 213 427 117 393 q 439 461 308 461 l 449 461 q 462 465 454 461 q 469 481 469 468 l 469 504 q 449 564 469 543 q 388 585 429 585 q 328 572 358 585 q 279 519 297 558 q 267 505 274 508 q 242 504 261 501 l 60 540 q 45 551 50 543 q 50 585 40 558 q 173 712 82 674 q 400 750 264 750 q 601 721 529 750 q 703 640 674 692 q 733 521 733 589 l 733 38 q 727 8 733 17 q 701 0 721 0 l 511 0 q 485 15 493 0 q 475 49 478 29 l 474 58 q 436 58 469 86 l 436 58 m 469 311 q 449 336 469 336 l 443 336 q 399 330 426 336 q 346 310 372 324 q 301 276 319 297 q 282 226 282 256 q 303 179 282 197 q 361 161 324 161 q 408 169 389 161 q 438 188 426 178 q 460 210 450 199 q 469 238 469 222 l 469 311 l 469 311 m 489 -76 l 489 -199 q 481 -222 489 -214 q 456 -229 474 -229 l 310 -229 q 289 -222 294 -229 q 283 -203 283 -215 l 283 -79 q 301 -54 283 -54 l 471 -54 q 489 -76 489 -54 m 656 1031 q 674 1006 683 1031 q 610 904 651 944 q 516 844 569 864 q 401 824 463 824 q 285 842 342 824 q 185 902 228 861 q 126 1008 143 943 q 128 1024 125 1017 q 142 1031 132 1031 l 249 1031 q 267 1026 261 1031 q 282 1011 274 1022 q 315 978 296 993 q 356 956 333 964 q 401 947 379 947 q 467 965 433 947 q 519 1013 501 983 q 533 1028 526 1025 q 547 1031 539 1031 l 656 1031 z "},"ằ":{"ha":796,"x_min":13,"x_max":733,"o":"m 436 58 q 349 7 399 28 q 235 -14 300 -14 q 72 44 131 -14 q 13 189 13 103 q 65 332 13 271 q 213 427 117 393 q 439 461 308 461 l 449 461 q 462 465 454 461 q 469 481 469 468 l 469 504 q 449 564 469 543 q 388 585 429 585 q 328 572 358 585 q 279 519 297 558 q 267 505 274 508 q 242 504 261 501 l 60 540 q 45 551 50 543 q 50 585 40 558 q 173 712 82 674 q 400 750 264 750 q 601 721 529 750 q 703 640 674 692 q 733 521 733 589 l 733 38 q 727 8 733 17 q 701 0 721 0 l 511 0 q 485 15 493 0 q 475 49 478 29 l 474 58 q 436 58 469 86 l 436 58 m 469 311 q 449 336 469 336 l 443 336 q 399 330 426 336 q 346 310 372 324 q 301 276 319 297 q 282 226 282 256 q 303 179 282 197 q 361 161 324 161 q 408 169 389 161 q 438 188 426 178 q 460 210 450 199 q 469 238 469 222 l 469 311 l 469 311 m 656 1031 q 674 1006 683 1031 q 610 904 651 944 q 516 844 569 864 q 401 824 463 824 q 285 842 342 824 q 185 902 228 861 q 126 1008 143 943 q 128 1024 125 1017 q 142 1031 132 1031 l 249 1031 q 267 1026 261 1031 q 282 1011 274 1022 q 315 978 296 993 q 356 956 333 964 q 401 947 379 947 q 467 965 433 947 q 519 1013 501 983 q 533 1028 526 1025 q 547 1031 539 1031 l 656 1031 m 235 1293 q 264 1310 244 1318 l 596 1174 q 607 1140 615 1165 l 586 1081 q 572 1063 581 1067 q 546 1063 564 1058 l 222 1140 q 196 1185 185 1150 l 235 1293 z "},"ẳ":{"ha":796,"x_min":13,"x_max":733,"o":"m 436 58 q 349 7 399 28 q 235 -14 300 -14 q 72 44 131 -14 q 13 189 13 103 q 65 332 13 271 q 213 427 117 393 q 439 461 308 461 l 449 461 q 462 465 454 461 q 469 481 469 468 l 469 504 q 449 564 469 543 q 388 585 429 585 q 328 572 358 585 q 279 519 297 558 q 267 505 274 508 q 242 504 261 501 l 60 540 q 45 551 50 543 q 50 585 40 558 q 173 712 82 674 q 400 750 264 750 q 601 721 529 750 q 703 640 674 692 q 733 521 733 589 l 733 38 q 727 8 733 17 q 701 0 721 0 l 511 0 q 485 15 493 0 q 475 49 478 29 l 474 58 q 436 58 469 86 l 436 58 m 469 311 q 449 336 469 336 l 443 336 q 399 330 426 336 q 346 310 372 324 q 301 276 319 297 q 282 226 282 256 q 303 179 282 197 q 361 161 324 161 q 408 169 389 161 q 438 188 426 178 q 460 210 450 199 q 469 238 469 222 l 469 311 l 469 311 m 656 1031 q 674 1006 683 1031 q 610 904 651 944 q 516 844 569 864 q 401 824 463 824 q 285 842 342 824 q 185 902 228 861 q 126 1008 143 943 q 128 1024 125 1017 q 142 1031 132 1031 l 249 1031 q 267 1026 261 1031 q 282 1011 274 1022 q 315 978 296 993 q 356 956 333 964 q 401 947 379 947 q 467 965 433 947 q 519 1013 501 983 q 533 1028 526 1025 q 547 1031 539 1031 l 656 1031 m 410 1022 q 382 1026 394 1011 l 343 1081 q 340 1095 338 1088 q 346 1106 342 1103 q 401 1149 383 1133 q 418 1188 418 1165 q 402 1210 418 1204 q 371 1217 386 1217 q 335 1211 353 1217 q 297 1194 318 1206 q 274 1204 283 1186 l 239 1269 q 249 1293 231 1286 q 314 1317 286 1307 q 372 1326 342 1326 q 483 1291 438 1326 q 528 1194 528 1256 q 494 1101 528 1142 q 410 1022 460 1060 z "},"ẵ":{"ha":796,"x_min":13,"x_max":733,"o":"m 436 58 q 349 7 399 28 q 235 -14 300 -14 q 72 44 131 -14 q 13 189 13 103 q 65 332 13 271 q 213 427 117 393 q 439 461 308 461 l 449 461 q 462 465 454 461 q 469 481 469 468 l 469 504 q 449 564 469 543 q 388 585 429 585 q 328 572 358 585 q 279 519 297 558 q 267 505 274 508 q 242 504 261 501 l 60 540 q 45 551 50 543 q 50 585 40 558 q 173 712 82 674 q 400 750 264 750 q 601 721 529 750 q 703 640 674 692 q 733 521 733 589 l 733 38 q 727 8 733 17 q 701 0 721 0 l 511 0 q 485 15 493 0 q 475 49 478 29 l 474 58 q 436 58 469 86 l 436 58 m 469 311 q 449 336 469 336 l 443 336 q 399 330 426 336 q 346 310 372 324 q 301 276 319 297 q 282 226 282 256 q 303 179 282 197 q 361 161 324 161 q 408 169 389 161 q 438 188 426 178 q 460 210 450 199 q 469 238 469 222 l 469 311 l 469 311 m 656 1031 q 674 1006 683 1031 q 610 904 651 944 q 516 844 569 864 q 401 824 463 824 q 285 842 342 824 q 185 902 228 861 q 126 1008 143 943 q 128 1024 125 1017 q 142 1031 132 1031 l 249 1031 q 267 1026 261 1031 q 282 1011 274 1022 q 315 978 296 993 q 356 956 333 964 q 401 947 379 947 q 467 965 433 947 q 519 1013 501 983 q 533 1028 526 1025 q 547 1031 539 1031 l 656 1031 m 656 1154 q 597 1126 633 1139 q 517 1113 560 1113 q 440 1124 476 1113 q 367 1145 403 1135 q 292 1156 332 1156 q 242 1148 263 1156 q 193 1121 221 1140 q 174 1114 182 1113 q 161 1132 167 1115 l 138 1207 q 134 1227 135 1218 q 149 1250 133 1236 q 206 1290 175 1272 q 285 1307 236 1307 q 369 1295 329 1307 q 447 1272 410 1283 q 515 1260 483 1260 q 576 1272 549 1260 q 622 1299 604 1285 q 643 1303 633 1306 q 656 1286 653 1301 l 675 1196 q 656 1154 681 1172 z "},"â":{"ha":796,"x_min":13,"x_max":733,"o":"m 436 58 q 349 7 399 28 q 235 -14 300 -14 q 72 44 131 -14 q 13 189 13 103 q 65 332 13 271 q 213 427 117 393 q 439 461 308 461 l 449 461 q 462 465 454 461 q 469 481 469 468 l 469 504 q 449 564 469 543 q 388 585 429 585 q 328 572 358 585 q 279 519 297 558 q 267 505 274 508 q 242 504 261 501 l 60 540 q 45 551 50 543 q 50 585 40 558 q 173 712 82 674 q 400 750 264 750 q 601 721 529 750 q 703 640 674 692 q 733 521 733 589 l 733 38 q 727 8 733 17 q 701 0 721 0 l 511 0 q 485 15 493 0 q 475 49 478 29 l 474 58 q 436 58 469 86 l 436 58 m 469 311 q 449 336 469 336 l 443 336 q 399 330 426 336 q 346 310 372 324 q 301 276 319 297 q 282 226 282 256 q 303 179 282 197 q 361 161 324 161 q 408 169 389 161 q 438 188 426 178 q 460 210 450 199 q 469 238 469 222 l 469 311 l 469 311 m 478 839 l 421 914 q 399 933 407 933 q 374 914 392 933 l 310 839 q 294 828 300 829 q 274 826 288 826 l 136 826 q 123 833 124 826 q 132 851 122 840 l 288 1024 q 308 1040 297 1035 q 339 1044 319 1044 l 471 1044 q 494 1039 486 1044 q 510 1026 503 1033 l 664 851 q 661 826 688 826 l 515 826 q 494 828 503 826 q 478 839 485 829 z "}}}
